<svg width="20" height="20" viewBox="0 0 20 20" fill="none" xmlns="http://www.w3.org/2000/svg">
	<path d="M19.6551 16.6747H0.344843C0.154414 16.6747 0 16.5203 0 16.3299V3.91613C0 3.7257 0.154414 3.57129 0.344843 3.57129H19.6552C19.8456 3.57129 20 3.7257 20 3.91613V16.3299C20 16.5204 19.8455 16.6747 19.6551 16.6747Z" fill="#F5F5F5" />
	<path d="M20 4.57929H0V3.91613C0 3.7257 0.154414 3.57129 0.344843 3.57129H19.6552C19.8456 3.57129 20 3.7257 20 3.91613L20 4.57929Z" fill="#B22234" />
	<path d="M20 7.60352H0V8.61148H20V7.60352Z" fill="#B22234" />
	<path d="M20 5.58691H0V6.59488H20V5.58691Z" fill="#B22234" />
	<path d="M20 10.6271H0.344843C0.154414 10.6271 0 10.4727 0 10.2823V9.61914H20V10.6271Z" fill="#B22234" />
	<path d="M20 13.6514H0V14.6593H20V13.6514Z" fill="#B22234" />
	<path d="M19.6551 16.675H0.344843C0.154414 16.675 0 16.5205 0 16.3301V15.667H20V16.3302C20 16.5206 19.8455 16.675 19.6551 16.675Z" fill="#B22234" />
	<path d="M20 11.6348H0V12.6427H20V11.6348Z" fill="#B22234" />
	<path d="M8.96549 3.57129H0.344843C0.154414 3.57129 0 3.72566 0 3.91609V10.2821C0 10.4725 0.154414 10.6269 0.344843 10.6269H8.96553C9.15596 10.6269 9.31037 10.4725 9.31037 10.2821V3.91609C9.31033 3.72566 9.15592 3.57129 8.96549 3.57129Z" fill="#3C3B6E" />
	<path d="M0.966263 4.36305L1.04259 4.59196L1.28388 4.59379C1.31513 4.59407 1.32806 4.63391 1.30294 4.65247L1.10884 4.79582L1.18165 5.02586C1.19111 5.05563 1.15716 5.08032 1.13173 5.06211L0.935443 4.92184L0.739154 5.06215C0.713725 5.08032 0.679858 5.05567 0.689233 5.0259L0.762045 4.79586L0.567944 4.6525C0.542827 4.63391 0.555756 4.59411 0.587006 4.59383L0.828295 4.592L0.904623 4.36309C0.914466 4.3334 0.956341 4.3334 0.966263 4.36305Z" fill="#F5F5F5" />
	<path d="M0.966263 5.56029L1.04259 5.78919L1.28388 5.79103C1.31513 5.7913 1.32806 5.83115 1.30294 5.8497L1.10884 5.99306L1.18165 6.2231C1.19111 6.25287 1.15716 6.27755 1.13173 6.25935L0.935443 6.11908L0.739154 6.25939C0.713725 6.27755 0.679858 6.2529 0.689233 6.22314L0.762045 5.9931L0.567944 5.84974C0.542827 5.83115 0.555756 5.79134 0.587006 5.79107L0.828295 5.78923L0.904623 5.56033C0.914466 5.53068 0.956341 5.53068 0.966263 5.56029Z" fill="#F5F5F5" />
	<path d="M0.966263 6.75755L1.04259 6.98646L1.28388 6.9883C1.31513 6.98857 1.32806 7.02841 1.30294 7.04697L1.10884 7.19033L1.18165 7.42036C1.19111 7.45013 1.15716 7.47482 1.13173 7.45662L0.935443 7.31634L0.739154 7.45665C0.713725 7.47482 0.679858 7.45017 0.689233 7.4204L0.762045 7.19037L0.567944 7.04701C0.542827 7.02841 0.555756 6.98861 0.587006 6.98833L0.828295 6.9865L0.904623 6.75759C0.914466 6.72794 0.956341 6.72794 0.966263 6.75755Z" fill="#F5F5F5" />
	<path d="M0.966263 7.95583L1.04259 8.18473L1.28388 8.18657C1.31513 8.18684 1.32806 8.22668 1.30294 8.24524L1.10884 8.3886L1.18165 8.61864C1.19111 8.6484 1.15716 8.67309 1.13173 8.65489L0.935443 8.51461L0.739154 8.65493C0.713725 8.67309 0.679858 8.64844 0.689233 8.61868L0.762045 8.38864L0.567944 8.24528C0.542827 8.22668 0.555756 8.18688 0.587006 8.18661L0.828295 8.18477L0.904623 7.95586C0.914466 7.92618 0.956341 7.92618 0.966263 7.95583Z" fill="#F5F5F5" />
	<path d="M0.966263 9.15312L1.04259 9.38203L1.28388 9.38386C1.31513 9.38414 1.32806 9.42398 1.30294 9.44253L1.10884 9.58589L1.18165 9.81593C1.19111 9.8457 1.15716 9.87038 1.13173 9.85218L0.935443 9.71191L0.739154 9.85222C0.713725 9.87038 0.679858 9.84574 0.689233 9.81597L0.762045 9.58593L0.567944 9.44257C0.542827 9.42398 0.555756 9.38417 0.587006 9.3839L0.828295 9.38207L0.904623 9.15316C0.914466 9.12343 0.956341 9.12343 0.966263 9.15312Z" fill="#F5F5F5" />
	<path d="M1.89595 4.94994L1.97228 5.17885L2.21357 5.18068C2.24482 5.18096 2.25775 5.2208 2.23263 5.23935L2.03853 5.38271L2.11134 5.61275C2.12079 5.64252 2.08685 5.66721 2.06142 5.649L1.86513 5.50869L1.66884 5.649C1.64341 5.66717 1.60955 5.64252 1.61892 5.61275L1.69173 5.38271L1.49763 5.23935C1.47251 5.22076 1.48544 5.18096 1.51669 5.18068L1.75798 5.17885L1.83431 4.94994C1.84411 4.92033 1.88607 4.92033 1.89595 4.94994Z" fill="#F5F5F5" />
	<path d="M1.89595 6.14724L1.97228 6.37614L2.21357 6.37798C2.24482 6.37825 2.25775 6.4181 2.23263 6.43665L2.03853 6.58001L2.11134 6.81005C2.12079 6.83981 2.08685 6.8645 2.06142 6.8463L1.86513 6.70599L1.66884 6.8463C1.64341 6.86446 1.60955 6.83985 1.61892 6.81005L1.69173 6.58001L1.49763 6.43665C1.47251 6.41806 1.48544 6.37825 1.51669 6.37798L1.75798 6.37614L1.83431 6.14724C1.84411 6.11759 1.88607 6.11759 1.89595 6.14724Z" fill="#F5F5F5" />
	<path d="M1.89595 7.3445L1.97228 7.57341L2.21357 7.57524C2.24482 7.57552 2.25775 7.61536 2.23263 7.63392L2.03853 7.77727L2.11134 8.00731C2.12079 8.03708 2.08685 8.06177 2.06142 8.04356L1.86513 7.90325L1.66884 8.04356C1.64341 8.06173 1.60955 8.03708 1.61892 8.00731L1.69173 7.77727L1.49763 7.63392C1.47251 7.61532 1.48544 7.57552 1.51669 7.57524L1.75798 7.57341L1.83431 7.3445C1.84411 7.31485 1.88607 7.31485 1.89595 7.3445Z" fill="#F5F5F5" />
	<path d="M1.89595 8.54271L1.97228 8.77162L2.21357 8.77346C2.24482 8.77373 2.25775 8.81357 2.23263 8.83213L2.03853 8.97549L2.11134 9.20553C2.12079 9.23529 2.08685 9.25998 2.06142 9.24178L1.86513 9.10146L1.66884 9.24178C1.64341 9.25994 1.60955 9.23529 1.61892 9.20553L1.69173 8.97549L1.49763 8.83213C1.47251 8.81353 1.48544 8.77373 1.51669 8.77346L1.75798 8.77162L1.83431 8.54271C1.84411 8.51311 1.88607 8.51311 1.89595 8.54271Z" fill="#F5F5F5" />
	<path d="M2.82564 4.36306L2.90197 4.59196L3.14325 4.5938C3.1745 4.59407 3.18743 4.63392 3.16232 4.65247L2.96822 4.79583L3.04103 5.02587C3.05048 5.05563 3.01654 5.08032 2.99111 5.06212L2.79482 4.92181L2.59853 5.06212C2.5731 5.08028 2.53923 5.05563 2.54861 5.02587L2.62142 4.79583L2.42732 4.65247C2.4022 4.63388 2.41513 4.59407 2.44638 4.5938L2.68767 4.59196L2.764 4.36306C2.77384 4.33341 2.81576 4.33341 2.82564 4.36306Z" fill="#F5F5F5" />
	<path d="M2.82564 5.56029L2.90197 5.7892L3.14325 5.79103C3.1745 5.79131 3.18743 5.83115 3.16232 5.84971L2.96822 5.99307L3.04103 6.2231C3.05048 6.25287 3.01654 6.27756 2.99111 6.25935L2.79482 6.11904L2.59853 6.25935C2.5731 6.27752 2.53923 6.25287 2.54861 6.2231L2.62142 5.99307L2.42732 5.84971C2.4022 5.83111 2.41513 5.79131 2.44638 5.79103L2.68767 5.7892L2.764 5.56029C2.77384 5.53068 2.81576 5.53068 2.82564 5.56029Z" fill="#F5F5F5" />
	<path d="M2.82564 6.75756L2.90197 6.98646L3.14325 6.9883C3.1745 6.98857 3.18743 7.02842 3.16232 7.04697L2.96822 7.19033L3.04103 7.42037C3.05048 7.45014 3.01654 7.47482 2.99111 7.45662L2.79482 7.31631L2.59853 7.45662C2.5731 7.47478 2.53923 7.45014 2.54861 7.42037L2.62142 7.19033L2.42732 7.04697C2.4022 7.02838 2.41513 6.98857 2.44638 6.9883L2.68767 6.98646L2.764 6.75756C2.77384 6.72795 2.81576 6.72795 2.82564 6.75756Z" fill="#F5F5F5" />
	<path d="M2.82564 7.95485L2.90197 8.18376L3.14325 8.1856C3.1745 8.18587 3.18743 8.22571 3.16232 8.24427L2.96822 8.38763L3.04103 8.61766C3.05048 8.64743 3.01654 8.67212 2.99111 8.65391L2.79482 8.5136L2.59853 8.65391C2.5731 8.67208 2.53923 8.64743 2.54861 8.61766L2.62142 8.38763L2.42732 8.24427C2.4022 8.22567 2.41513 8.18587 2.44638 8.1856L2.68767 8.18376L2.764 7.95485C2.77384 7.92521 2.81576 7.92521 2.82564 7.95485Z" fill="#F5F5F5" />
	<path d="M2.82564 9.15312L2.90197 9.38203L3.14325 9.38387C3.1745 9.38414 3.18743 9.42398 3.16232 9.44254L2.96822 9.5859L3.04103 9.81594C3.05048 9.8457 3.01654 9.87039 2.99111 9.85219L2.79482 9.71187L2.59853 9.85219C2.5731 9.87035 2.53923 9.8457 2.54861 9.81594L2.62142 9.5859L2.42732 9.44254C2.4022 9.42394 2.41513 9.38414 2.44638 9.38387L2.68767 9.38203L2.764 9.15312C2.77384 9.12344 2.81576 9.12344 2.82564 9.15312Z" fill="#F5F5F5" />
	<path d="M3.75533 4.94994L3.83165 5.17885L4.07294 5.18068C4.10419 5.18096 4.11712 5.2208 4.092 5.23935L3.8979 5.38271L3.97072 5.61275C3.98017 5.64252 3.94622 5.66721 3.92079 5.649L3.72451 5.50869L3.52822 5.649C3.50279 5.66717 3.46892 5.64252 3.4783 5.61275L3.55111 5.38271L3.35701 5.23935C3.33189 5.22076 3.34482 5.18096 3.37607 5.18068L3.61736 5.17885L3.69369 4.94994C3.70349 4.92033 3.74544 4.92033 3.75533 4.94994Z" fill="#F5F5F5" />
	<path d="M3.75533 6.14724L3.83165 6.37614L4.07294 6.37798C4.10419 6.37825 4.11712 6.4181 4.092 6.43665L3.8979 6.58001L3.97072 6.81005C3.98017 6.83981 3.94622 6.8645 3.92079 6.8463L3.72451 6.70599L3.52822 6.8463C3.50279 6.86446 3.46892 6.83985 3.4783 6.81005L3.55111 6.58001L3.35701 6.43665C3.33189 6.41806 3.34482 6.37825 3.37607 6.37798L3.61736 6.37614L3.69369 6.14724C3.70349 6.11759 3.74544 6.11759 3.75533 6.14724Z" fill="#F5F5F5" />
	<path d="M3.75533 7.3445L3.83165 7.57341L4.07294 7.57524C4.10419 7.57552 4.11712 7.61536 4.092 7.63392L3.8979 7.77727L3.97072 8.00731C3.98017 8.03708 3.94622 8.06177 3.92079 8.04356L3.72451 7.90325L3.52822 8.04356C3.50279 8.06173 3.46892 8.03708 3.4783 8.00731L3.55111 7.77727L3.35701 7.63392C3.33189 7.61532 3.34482 7.57552 3.37607 7.57524L3.61736 7.57341L3.69369 7.3445C3.70349 7.31485 3.74544 7.31485 3.75533 7.3445Z" fill="#F5F5F5" />
	<path d="M3.75533 8.54271L3.83165 8.77162L4.07294 8.77346C4.10419 8.77373 4.11712 8.81357 4.092 8.83213L3.8979 8.97549L3.97072 9.20553C3.98017 9.23529 3.94622 9.25998 3.92079 9.24178L3.72451 9.10146L3.52822 9.24178C3.50279 9.25994 3.46892 9.23529 3.4783 9.20553L3.55111 8.97549L3.35701 8.83213C3.33189 8.81353 3.34482 8.77373 3.37607 8.77346L3.61736 8.77162L3.69369 8.54271C3.70349 8.51311 3.74544 8.51311 3.75533 8.54271Z" fill="#F5F5F5" />
	<path d="M4.68505 4.36306L4.76138 4.59196L5.00267 4.5938C5.03392 4.59407 5.04685 4.63392 5.02173 4.65247L4.82763 4.79583L4.90044 5.02587C4.9099 5.05563 4.87595 5.08032 4.85052 5.06212L4.65419 4.92181L4.4579 5.06212C4.43247 5.08028 4.39861 5.05563 4.40798 5.02587L4.48079 4.79583L4.28669 4.65247C4.26158 4.63388 4.27451 4.59407 4.30576 4.5938L4.54704 4.59196L4.62337 4.36306C4.63326 4.33341 4.67517 4.33341 4.68505 4.36306Z" fill="#F5F5F5" />
	<path d="M4.68505 5.56029L4.76138 5.7892L5.00267 5.79103C5.03392 5.79131 5.04685 5.83115 5.02173 5.84971L4.82763 5.99307L4.90044 6.2231C4.9099 6.25287 4.87595 6.27756 4.85052 6.25935L4.65419 6.11904L4.4579 6.25935C4.43247 6.27752 4.39861 6.25287 4.40798 6.2231L4.48079 5.99307L4.28669 5.84971C4.26158 5.83111 4.27451 5.79131 4.30576 5.79103L4.54704 5.7892L4.62337 5.56029C4.63326 5.53068 4.67517 5.53068 4.68505 5.56029Z" fill="#F5F5F5" />
	<path d="M4.68505 6.75756L4.76138 6.98646L5.00267 6.9883C5.03392 6.98857 5.04685 7.02842 5.02173 7.04697L4.82763 7.19033L4.90044 7.42037C4.9099 7.45014 4.87595 7.47482 4.85052 7.45662L4.65419 7.31631L4.4579 7.45662C4.43247 7.47478 4.39861 7.45014 4.40798 7.42037L4.48079 7.19033L4.28669 7.04697C4.26158 7.02838 4.27451 6.98857 4.30576 6.9883L4.54704 6.98646L4.62337 6.75756C4.63326 6.72795 4.67517 6.72795 4.68505 6.75756Z" fill="#F5F5F5" />
	<path d="M4.68505 7.95485L4.76138 8.18376L5.00267 8.1856C5.03392 8.18587 5.04685 8.22571 5.02173 8.24427L4.82763 8.38763L4.90044 8.61766C4.9099 8.64743 4.87595 8.67212 4.85052 8.65391L4.65419 8.5136L4.4579 8.65391C4.43247 8.67208 4.39861 8.64743 4.40798 8.61766L4.48079 8.38763L4.28669 8.24427C4.26158 8.22567 4.27451 8.18587 4.30576 8.1856L4.54704 8.18376L4.62337 7.95485C4.63326 7.92521 4.67517 7.92521 4.68505 7.95485Z" fill="#F5F5F5" />
	<path d="M4.68505 9.15312L4.76138 9.38203L5.00267 9.38387C5.03392 9.38414 5.04685 9.42398 5.02173 9.44254L4.82763 9.5859L4.90044 9.81594C4.9099 9.8457 4.87595 9.87039 4.85052 9.85219L4.65419 9.71187L4.4579 9.85219C4.43247 9.87035 4.39861 9.8457 4.40798 9.81594L4.48079 9.5859L4.28669 9.44254C4.26158 9.42394 4.27451 9.38414 4.30576 9.38387L4.54704 9.38203L4.62337 9.15312C4.63326 9.12344 4.67517 9.12344 4.68505 9.15312Z" fill="#F5F5F5" />
	<path d="M5.6147 4.94994L5.69103 5.17885L5.93232 5.18068C5.96357 5.18096 5.9765 5.2208 5.95138 5.23935L5.75728 5.38271L5.83009 5.61275C5.83954 5.64252 5.8056 5.66721 5.78017 5.649L5.58388 5.50869L5.38759 5.649C5.36216 5.66717 5.32829 5.64252 5.33767 5.61275L5.41048 5.38271L5.21638 5.23935C5.19126 5.22076 5.20419 5.18096 5.23544 5.18068L5.47673 5.17885L5.55306 4.94994C5.56294 4.92033 5.60482 4.92033 5.6147 4.94994Z" fill="#F5F5F5" />
	<path d="M5.6147 6.14724L5.69103 6.37614L5.93232 6.37798C5.96357 6.37825 5.9765 6.4181 5.95138 6.43665L5.75728 6.58001L5.83009 6.81005C5.83954 6.83981 5.8056 6.8645 5.78017 6.8463L5.58388 6.70599L5.38759 6.8463C5.36216 6.86446 5.32829 6.83985 5.33767 6.81005L5.41048 6.58001L5.21638 6.43665C5.19126 6.41806 5.20419 6.37825 5.23544 6.37798L5.47673 6.37614L5.55306 6.14724C5.56294 6.11759 5.60482 6.11759 5.6147 6.14724Z" fill="#F5F5F5" />
	<path d="M5.6147 7.3445L5.69103 7.57341L5.93232 7.57524C5.96357 7.57552 5.9765 7.61536 5.95138 7.63392L5.75728 7.77727L5.83009 8.00731C5.83954 8.03708 5.8056 8.06177 5.78017 8.04356L5.58388 7.90325L5.38759 8.04356C5.36216 8.06173 5.32829 8.03708 5.33767 8.00731L5.41048 7.77727L5.21638 7.63392C5.19126 7.61532 5.20419 7.57552 5.23544 7.57524L5.47673 7.57341L5.55306 7.3445C5.56294 7.31485 5.60482 7.31485 5.6147 7.3445Z" fill="#F5F5F5" />
	<path d="M5.6147 8.54271L5.69103 8.77162L5.93232 8.77346C5.96357 8.77373 5.9765 8.81357 5.95138 8.83213L5.75728 8.97549L5.83009 9.20553C5.83954 9.23529 5.8056 9.25998 5.78017 9.24178L5.58388 9.10146L5.38759 9.24178C5.36216 9.25994 5.32829 9.23529 5.33767 9.20553L5.41048 8.97549L5.21638 8.83213C5.19126 8.81353 5.20419 8.77373 5.23544 8.77346L5.47673 8.77162L5.55306 8.54271C5.56294 8.51311 5.60482 8.51311 5.6147 8.54271Z" fill="#F5F5F5" />
	<path d="M6.54439 4.36306L6.62072 4.59196L6.862 4.5938C6.89325 4.59407 6.90618 4.63392 6.88107 4.65247L6.68697 4.79583L6.75978 5.02587C6.76923 5.05563 6.73529 5.08032 6.70986 5.06212L6.51357 4.92181L6.31728 5.06212C6.29185 5.08028 6.25798 5.05563 6.26736 5.02587L6.34017 4.79583L6.14607 4.65247C6.12095 4.63388 6.13388 4.59407 6.16513 4.5938L6.40642 4.59196L6.48275 4.36306C6.49255 4.33341 6.53451 4.33341 6.54439 4.36306Z" fill="#F5F5F5" />
	<path d="M6.54439 5.56029L6.62072 5.7892L6.862 5.79103C6.89325 5.79131 6.90618 5.83115 6.88107 5.84971L6.68697 5.99307L6.75978 6.2231C6.76923 6.25287 6.73529 6.27756 6.70986 6.25935L6.51357 6.11904L6.31728 6.25935C6.29185 6.27752 6.25798 6.25287 6.26736 6.2231L6.34017 5.99307L6.14607 5.84971C6.12095 5.83111 6.13388 5.79131 6.16513 5.79103L6.40642 5.7892L6.48275 5.56029C6.49255 5.53068 6.53451 5.53068 6.54439 5.56029Z" fill="#F5F5F5" />
	<path d="M6.54439 6.75756L6.62072 6.98646L6.862 6.9883C6.89325 6.98857 6.90618 7.02842 6.88107 7.04697L6.68697 7.19033L6.75978 7.42037C6.76923 7.45014 6.73529 7.47482 6.70986 7.45662L6.51357 7.31631L6.31728 7.45662C6.29185 7.47478 6.25798 7.45014 6.26736 7.42037L6.34017 7.19033L6.14607 7.04697C6.12095 7.02838 6.13388 6.98857 6.16513 6.9883L6.40642 6.98646L6.48275 6.75756C6.49255 6.72795 6.53451 6.72795 6.54439 6.75756Z" fill="#F5F5F5" />
	<path d="M6.54439 7.95485L6.62072 8.18376L6.862 8.1856C6.89325 8.18587 6.90618 8.22571 6.88107 8.24427L6.68697 8.38763L6.75978 8.61766C6.76923 8.64743 6.73529 8.67212 6.70986 8.65391L6.51357 8.5136L6.31728 8.65391C6.29185 8.67208 6.25798 8.64743 6.26736 8.61766L6.34017 8.38763L6.14607 8.24427C6.12095 8.22567 6.13388 8.18587 6.16513 8.1856L6.40642 8.18376L6.48275 7.95485C6.49255 7.92521 6.53451 7.92521 6.54439 7.95485Z" fill="#F5F5F5" />
	<path d="M6.54439 9.15312L6.62072 9.38203L6.862 9.38387C6.89325 9.38414 6.90618 9.42398 6.88107 9.44254L6.68697 9.5859L6.75978 9.81594C6.76923 9.8457 6.73529 9.87039 6.70986 9.85219L6.51357 9.71187L6.31728 9.85219C6.29185 9.87035 6.25798 9.8457 6.26736 9.81594L6.34017 9.5859L6.14607 9.44254C6.12095 9.42394 6.13388 9.38414 6.16513 9.38387L6.40642 9.38203L6.48275 9.15312C6.49255 9.12344 6.53451 9.12344 6.54439 9.15312Z" fill="#F5F5F5" />
	<path d="M7.47408 4.94994L7.5504 5.17885L7.79169 5.18068C7.82294 5.18096 7.83587 5.2208 7.81075 5.23935L7.61665 5.38271L7.68947 5.61275C7.69892 5.64252 7.66497 5.66721 7.63954 5.649L7.44326 5.50869L7.24697 5.649C7.22154 5.66717 7.18767 5.64252 7.19704 5.61275L7.26986 5.38271L7.07576 5.23935C7.05064 5.22076 7.06357 5.18096 7.09482 5.18068L7.33611 5.17885L7.41244 4.94994C7.42228 4.92033 7.46423 4.92033 7.47408 4.94994Z" fill="#F5F5F5" />
	<path d="M7.47408 6.14724L7.5504 6.37614L7.79169 6.37798C7.82294 6.37825 7.83587 6.4181 7.81075 6.43665L7.61665 6.58001L7.68947 6.81005C7.69892 6.83981 7.66497 6.8645 7.63954 6.8463L7.44326 6.70599L7.24697 6.8463C7.22154 6.86446 7.18767 6.83985 7.19704 6.81005L7.26986 6.58001L7.07576 6.43665C7.05064 6.41806 7.06357 6.37825 7.09482 6.37798L7.33611 6.37614L7.41244 6.14724C7.42228 6.11759 7.46423 6.11759 7.47408 6.14724Z" fill="#F5F5F5" />
	<path d="M7.47408 7.3445L7.5504 7.57341L7.79169 7.57524C7.82294 7.57552 7.83587 7.61536 7.81075 7.63392L7.61665 7.77727L7.68947 8.00731C7.69892 8.03708 7.66497 8.06177 7.63954 8.04356L7.44326 7.90325L7.24697 8.04356C7.22154 8.06173 7.18767 8.03708 7.19704 8.00731L7.26986 7.77727L7.07576 7.63392C7.05064 7.61532 7.06357 7.57552 7.09482 7.57524L7.33611 7.57341L7.41244 7.3445C7.42228 7.31485 7.46423 7.31485 7.47408 7.3445Z" fill="#F5F5F5" />
	<path d="M7.47408 8.54271L7.5504 8.77162L7.79169 8.77346C7.82294 8.77373 7.83587 8.81357 7.81075 8.83213L7.61665 8.97549L7.68947 9.20553C7.69892 9.23529 7.66497 9.25998 7.63954 9.24178L7.44326 9.10146L7.24697 9.24178C7.22154 9.25994 7.18767 9.23529 7.19704 9.20553L7.26986 8.97549L7.07576 8.83213C7.05064 8.81353 7.06357 8.77373 7.09482 8.77346L7.33611 8.77162L7.41244 8.54271C7.42228 8.51311 7.46423 8.51311 7.47408 8.54271Z" fill="#F5F5F5" />
	<path d="M8.40376 4.36306L8.48009 4.59196L8.72138 4.5938C8.75263 4.59407 8.76556 4.63392 8.74044 4.65247L8.54634 4.79583L8.61915 5.02587C8.62861 5.05563 8.59466 5.08032 8.56923 5.06212L8.37294 4.92181L8.17665 5.06212C8.15123 5.08028 8.11736 5.05563 8.12673 5.02587L8.19955 4.79583L8.00544 4.65247C7.98033 4.63388 7.99326 4.59407 8.02451 4.5938L8.26579 4.59196L8.34212 4.36306C8.35197 4.33341 8.39384 4.33341 8.40376 4.36306Z" fill="#F5F5F5" />
	<path d="M8.40376 5.56029L8.48009 5.7892L8.72138 5.79103C8.75263 5.79131 8.76556 5.83115 8.74044 5.84971L8.54634 5.99307L8.61915 6.2231C8.62861 6.25287 8.59466 6.27756 8.56923 6.25935L8.37294 6.11904L8.17665 6.25935C8.15123 6.27752 8.11736 6.25287 8.12673 6.2231L8.19955 5.99307L8.00544 5.84971C7.98033 5.83111 7.99326 5.79131 8.02451 5.79103L8.26579 5.7892L8.34212 5.56029C8.35197 5.53068 8.39384 5.53068 8.40376 5.56029Z" fill="#F5F5F5" />
	<path d="M8.40376 6.75756L8.48009 6.98646L8.72138 6.9883C8.75263 6.98857 8.76556 7.02842 8.74044 7.04697L8.54634 7.19033L8.61915 7.42037C8.62861 7.45014 8.59466 7.47482 8.56923 7.45662L8.37294 7.31631L8.17665 7.45662C8.15123 7.47478 8.11736 7.45014 8.12673 7.42037L8.19955 7.19033L8.00544 7.04697C7.98033 7.02838 7.99326 6.98857 8.02451 6.9883L8.26579 6.98646L8.34212 6.75756C8.35197 6.72795 8.39384 6.72795 8.40376 6.75756Z" fill="#F5F5F5" />
	<path d="M8.40376 7.95485L8.48009 8.18376L8.72138 8.1856C8.75263 8.18587 8.76556 8.22571 8.74044 8.24427L8.54634 8.38763L8.61915 8.61766C8.62861 8.64743 8.59466 8.67212 8.56923 8.65391L8.37294 8.5136L8.17665 8.65391C8.15123 8.67208 8.11736 8.64743 8.12673 8.61766L8.19955 8.38763L8.00544 8.24427C7.98033 8.22567 7.99326 8.18587 8.02451 8.1856L8.26579 8.18376L8.34212 7.95485C8.35197 7.92521 8.39384 7.92521 8.40376 7.95485Z" fill="#F5F5F5" />
	<path d="M8.40376 9.15312L8.48009 9.38203L8.72138 9.38387C8.75263 9.38414 8.76556 9.42398 8.74044 9.44254L8.54634 9.5859L8.61915 9.81594C8.62861 9.8457 8.59466 9.87039 8.56923 9.85219L8.37294 9.71187L8.17665 9.85219C8.15123 9.87035 8.11736 9.8457 8.12673 9.81594L8.19955 9.5859L8.00544 9.44254C7.98033 9.42394 7.99326 9.38414 8.02451 9.38387L8.26579 9.38203L8.34212 9.15312C8.35197 9.12344 8.39384 9.12344 8.40376 9.15312Z" fill="#F5F5F5" />
</svg>
