<svg width="20" height="21" viewBox="0 0 20 21" fill="none"
    xmlns="http://www.w3.org/2000/svg">
    <path d="M19.414 5.22656H15.8986C15.575 5.22656 15.3127 5.4889 15.3127 5.81248C15.3127 6.13606 15.575 6.39839 15.8986 6.39839H17.9996L10.6254 13.7726L6.35232 9.49956C6.12354 9.27074 5.75254 9.27074 5.52372 9.49956L0.187757 14.7728C-0.0410623 15.0016 -0.0718032 15.3726 0.157016 15.6014C0.385796 15.8302 0.787538 15.8302 1.01636 15.6014L5.93804 10.7424L10.2111 15.0155C10.4399 15.2443 10.8109 15.2443 11.0397 15.0155L18.8282 7.22699V9.32796C18.8282 9.65155 19.0905 9.91388 19.4141 9.91388C19.7377 9.91388 20 9.65155 20 9.32796V5.81267C20.0001 5.48042 19.7275 5.22656 19.414 5.22656Z" fill="#94A3B8"/>
</svg>
