<svg width="20" height="18" viewBox="0 0 20 18" fill="none" xmlns="http://www.w3.org/2000/svg">
    <path
        d="M0.64886 5.33286e-05C0.555372 -0.00115355 0.462753 0.0181376 0.377506 0.0565718C0.292259 0.095006 0.21645 0.151651 0.155403 0.222532C0.0943556 0.293412 0.0495493 0.376808 0.0241299 0.466866C-0.00128941 0.556923 -0.00670566 0.651458 0.00826149 0.743834L2.7276 17.2673C2.76148 17.4695 2.86546 17.6533 3.02128 17.7864C3.17709 17.9195 3.37477 17.9934 3.5796 17.9951H16.6254C16.7789 17.997 16.9281 17.9437 17.0457 17.8449C17.1632 17.746 17.2414 17.6082 17.266 17.4565L19.9917 0.750246C20.0067 0.65787 20.0013 0.563335 19.9759 0.473278C19.9505 0.38322 19.9056 0.299824 19.8446 0.228944C19.7836 0.158063 19.7077 0.101418 19.6225 0.0629838C19.5372 0.0245497 19.4446 0.00525849 19.3511 0.00646538L0.64886 5.33286e-05ZM12.0996 11.9422H7.93567L6.80822 6.04968H13.1085L12.0996 11.9422Z"
        fill="#2684FF" />
    <path
        d="M19.121 6.04883H13.109L12.1 11.9414H7.93613L3.01953 17.7858C3.17537 17.9207 3.37405 17.9957 3.58006 17.9974H16.629C16.7826 17.9994 16.9317 17.9461 17.0493 17.8472C17.1669 17.7484 17.2451 17.6105 17.2696 17.4588L19.121 6.04883Z"
        fill="url(#paint0_linear_4769_46507)" />
    <defs>
        <linearGradient id="paint0_linear_4769_46507" x1="20.5111" y1="7.69669" x2="10.5684" y2="15.4526"
            gradientUnits="userSpaceOnUse">
            <stop offset="0.18" stop-color="#0052CC" />
            <stop offset="1" stop-color="#2684FF" />
        </linearGradient>
    </defs>
</svg>