<svg width="20" height="20" viewBox="0 0 20 20" fill="none"
    xmlns="http://www.w3.org/2000/svg">
    <path d="M15.0008 5.82812L14.1675 7.49479L13.0566 8.25896" stroke="white" stroke-width="1.25" stroke-linecap="round" stroke-linejoin="round"/>
    <path d="M4.16602 9.99479H6.75768" stroke="white" stroke-width="1.25" stroke-linecap="round" stroke-linejoin="round"/>
    <path d="M13.2422 9.99479H15.8339" stroke="white" stroke-width="1.25" stroke-linecap="round" stroke-linejoin="round"/>
    <path d="M5 2.49609H4.16667C3.24583 2.49609 2.5 3.24193 2.5 4.16276V4.99609" stroke="white" stroke-width="1.25" stroke-linecap="round" stroke-linejoin="round"/>
    <path d="M15 17.4961H15.8333C16.7542 17.4961 17.5 16.7503 17.5 15.8294V14.9961" stroke="white" stroke-width="1.25" stroke-linecap="round" stroke-linejoin="round"/>
    <path d="M2.5 14.9961V15.8294C2.5 16.7503 3.24583 17.4961 4.16667 17.4961H5" stroke="white" stroke-width="1.25" stroke-linecap="round" stroke-linejoin="round"/>
    <path d="M17.5 4.99609V4.16276C17.5 3.24193 16.7542 2.49609 15.8333 2.49609H15" stroke="white" stroke-width="1.25" stroke-linecap="round" stroke-linejoin="round"/>
    <path d="M5 5.82812L5.83333 7.49479L6.94417 8.25896" stroke="white" stroke-width="1.25" stroke-linecap="round" stroke-linejoin="round"/>
    <path fill-rule="evenodd" clip-rule="evenodd" d="M10.3697 14.1628H9.62891C8.24807 14.1628 7.12891 13.0436 7.12891 11.6628V9.16276C7.12891 8.24193 7.87474 7.49609 8.79557 7.49609H11.2031C12.1239 7.49609 12.8697 8.24193 12.8697 9.16276V11.6628C12.8697 13.0436 11.7506 14.1628 10.3697 14.1628Z" stroke="white" stroke-width="1.25" stroke-linecap="round" stroke-linejoin="round"/>
    <path d="M5 14.1613L5.83333 12.4946L6.94417 11.7305" stroke="white" stroke-width="1.25" stroke-linecap="round" stroke-linejoin="round"/>
    <path d="M15.0008 14.1613L14.1675 12.4946L13.0566 11.7305" stroke="white" stroke-width="1.25" stroke-linecap="round" stroke-linejoin="round"/>
    <path fill-rule="evenodd" clip-rule="evenodd" d="M11.6673 7.49609H8.33398V5.82943C8.33398 5.36943 8.70732 4.99609 9.16732 4.99609H10.834C11.294 4.99609 11.6673 5.36943 11.6673 5.82943V7.49609Z" stroke="white" stroke-width="1.25" stroke-linecap="round" stroke-linejoin="round"/>
</svg>
