<svg width="18" height="18" viewBox="0 0 18 18" fill="none"
    xmlns="http://www.w3.org/2000/svg">
    <path d="M4.77169 6.99292V4.31337C4.77169 3.94426 5.07183 3.64348 5.44165 3.64348C5.81214 3.64348 6.11162 3.34338 6.11162 2.9736C6.11162 2.60382 5.81214 2.30371 5.44165 2.30371C4.33353 2.30371 3.43176 3.20538 3.43176 4.31337V6.99292C3.43176 7.7318 2.83081 8.33269 2.09184 8.33269C1.72135 8.33269 1.42188 8.6328 1.42188 9.00258C1.42188 9.37236 1.72135 9.67247 2.09184 9.67247C2.83081 9.67247 3.43176 10.2734 3.43176 11.0122V13.6918C3.43176 14.7998 4.33353 15.7014 5.44165 15.7014C5.81214 15.7014 6.11162 15.4013 6.11162 15.0316C6.11162 14.6618 5.81214 14.3617 5.44165 14.3617C5.07183 14.3617 4.77169 14.0609 4.77169 13.6918V11.0122C4.77169 10.2084 4.40857 9.49428 3.8458 9.00258C4.40857 8.51088 4.77169 7.79678 4.77169 6.99292Z" fill="#775DA7"/>
    <path d="M13.2361 11.009L13.2361 13.6886C13.2361 14.0577 12.936 14.3585 12.5662 14.3585C12.1957 14.3585 11.8962 14.6586 11.8962 15.0284C11.8962 15.3981 12.1957 15.6982 12.5662 15.6982C13.6743 15.6982 14.576 14.7966 14.576 13.6886L14.576 11.009C14.576 10.2701 15.177 9.66926 15.916 9.66926C16.2865 9.66926 16.5859 9.36915 16.5859 8.99937C16.5859 8.6296 16.2865 8.32949 15.916 8.32949C15.177 8.32949 14.576 7.7286 14.576 6.98971L14.576 4.31017C14.576 3.20217 13.6743 2.3005 12.5662 2.3005C12.1957 2.3005 11.8962 2.60061 11.8962 2.97039C11.8962 3.34017 12.1957 3.64028 12.5662 3.64028C12.936 3.64028 13.2361 3.94106 13.2361 4.31017L13.2361 6.98971C13.2361 7.79358 13.5992 8.50768 14.162 8.99937C13.5992 9.49107 13.2361 10.2052 13.2361 11.009Z" fill="#775DA7"/>
</svg>
