<svg width="18" height="18" viewBox="0 0 18 18" fill="none"
    xmlns="http://www.w3.org/2000/svg">
    <path d="M5.57433 14.2965H4.07932V12.0085H2.81831V14.2965H1.3623V6.0545C1.3623 4.16949 1.75231 3.89648 3.41632 3.89648C5.15833 3.89648 5.57433 4.19549 5.57433 6.0545V14.2965ZM3.44232 5.23549C2.90931 5.23549 2.81831 5.35249 2.81831 6.0545V10.7865H4.07932V6.0545C4.07932 5.35249 3.97532 5.23549 3.44232 5.23549Z" fill="#775DA7"/>
    <path d="M9.98674 8.34251C10.5327 8.47251 10.9097 8.77151 10.9097 10.0195V12.1905C10.9097 14.0235 10.5327 14.2965 8.76473 14.2965H6.63272V4.02649H8.76473C10.5327 4.02649 10.9097 4.28649 10.9097 6.1195V6.8865C10.9097 7.95251 10.3377 8.23851 9.98674 8.29051V8.34251ZM8.12773 8.92752V13.0095H8.76473C9.31074 13.0095 9.40174 12.8795 9.40174 12.1905V9.68152C9.40174 9.10952 9.32374 8.92752 8.80373 8.92752H8.12773ZM8.12773 5.32649V7.74451H8.80373C9.28474 7.74451 9.40174 7.57551 9.40174 7.0815V6.1195C9.40174 5.48249 9.33674 5.32649 8.76473 5.32649H8.12773Z" fill="#775DA7"/>
    <path d="M15.9963 8.38151H14.5533V6.0545C14.5533 5.36549 14.4623 5.23549 13.9293 5.23549C13.3833 5.23549 13.2923 5.37849 13.2923 6.0545V12.2555C13.2923 12.9705 13.3833 13.1005 13.9293 13.1005C14.4623 13.1005 14.5533 12.9705 14.5533 12.2555V9.87652H15.9963V12.2555C15.9963 14.1795 15.6063 14.4265 13.9293 14.4265C12.1613 14.4265 11.7973 14.1535 11.7973 12.2555V6.0545C11.7973 4.16949 12.2263 3.89648 13.9293 3.89648C15.6063 3.89648 15.9963 4.15649 15.9963 6.0545V8.38151Z" fill="#775DA7"/>
</svg>
