<svg width="14" height="12" viewBox="0 0 14 12" fill="none"
    xmlns="http://www.w3.org/2000/svg">
    <path d="M0.574219 2.26271V0.975704H2.97923V11.2458H1.47122V2.26271H0.574219Z" fill="#775DA7"/>
    <path d="M8.36279 11.2458H4.07276V8.15175C4.07276 6.42274 4.24176 6.14974 5.15177 5.59073L6.30878 4.88873C6.75078 4.61573 6.85478 4.45973 6.85478 3.97872V2.96472C6.85478 2.32771 6.76378 2.18471 6.23078 2.18471C5.68477 2.18471 5.58077 2.34071 5.58077 3.00372V4.27772H4.12476V3.00372C4.12476 1.1057 4.48877 0.845703 6.25678 0.845703C8.02479 0.845703 8.36279 1.1057 8.36279 2.96472V4.04372C8.36279 5.12273 8.18079 5.46073 7.33578 5.95473L6.08778 6.69574C5.65877 6.95574 5.58077 7.12474 5.58077 7.68375V9.91976H6.84178V7.43674H8.36279V11.2458Z" fill="#775DA7"/>
    <path d="M9.32591 7.24174H10.7559V9.23075C10.7559 9.88076 10.8859 10.0368 11.3669 10.0368C11.9129 10.0368 12.0169 9.84176 12.0169 9.23075V7.47574C12.0169 6.60474 11.9909 6.35774 11.4059 6.35774H10.5479V5.00573H11.4059C11.9519 5.00573 12.0169 4.83673 12.0169 4.32972V2.99072C12.0169 2.31471 11.8999 2.18471 11.3929 2.18471C10.7689 2.18471 10.7559 2.37971 10.7559 2.99072V4.19972H9.32591V2.99072C9.32591 1.1057 9.70292 0.845703 11.4059 0.845703C13.1479 0.845703 13.5249 1.1187 13.5249 2.96472V4.25172C13.5249 5.33073 13.0049 5.55173 12.6019 5.65573V5.70773C13.1479 5.82473 13.5249 6.12374 13.5249 7.46274V9.25675C13.5249 11.1028 13.1479 11.3758 11.4059 11.3758C9.70292 11.3758 9.32591 11.1158 9.32591 9.23075V7.24174Z" fill="#775DA7"/>
</svg>
