<svg width="20" height="19" viewBox="0 0 20 19" fill="none" xmlns="http://www.w3.org/2000/svg">
    <path d="M9.99943 18.4497L13.6839 7.09857H6.32031L9.99943 18.4497Z" fill="#E24329" />
    <path
        d="M1.1594 7.09857L0.037381 10.5472C-0.0641521 10.8603 0.0454967 11.206 0.313487 11.4012L9.99935 18.4496L1.1594 7.09857Z"
        fill="#FCA326" />
    <path
        d="M1.16016 7.09855H6.32093L4.09987 0.262313C3.9862 -0.0874375 3.4908 -0.0874375 3.37303 0.262313L1.16016 7.09855Z"
        fill="#E24329" />
    <path
        d="M18.8453 7.09863L19.9633 10.5472C20.0649 10.8604 19.9552 11.206 19.6872 11.4012L10 18.4497L18.8453 7.09863Z"
        fill="#FCA326" />
    <path
        d="M18.8444 7.09855H13.6836L15.9006 0.262313C16.0142 -0.0874375 16.5096 -0.0874375 16.6274 0.262313L18.8444 7.09855Z"
        fill="#E24329" />
    <path d="M10 18.4497L13.6845 7.09863H18.8453L10 18.4497Z" fill="#FC6D26" />
    <path d="M10 18.4497L1.16016 7.09863H6.32093L10 18.4497Z" fill="#FC6D26" />
</svg>