<svg width="20" height="21" viewBox="0 0 20 21" fill="none"
    xmlns="http://www.w3.org/2000/svg">
    <path fill-rule="evenodd" clip-rule="evenodd" d="M15.2299 8.47266C15.5751 8.47402 15.8538 8.75494 15.8525 9.10011C15.8471 10.4569 15.4686 11.8146 14.7104 13.0007L13.8006 12.0909C14.3322 11.1676 14.5984 10.1329 14.6025 9.0952C14.6038 8.75003 14.8847 8.47131 15.2299 8.47266ZM11.5928 14.3025C9.28167 15.6408 6.27306 15.321 4.29524 13.3432C3.87648 12.9245 3.53501 12.4573 3.26358 11.9599C3.09823 11.6569 2.71856 11.5453 2.41556 11.7107C2.11257 11.8761 2.00099 12.2557 2.16634 12.5587C2.49158 13.1547 2.90344 13.7192 3.41135 14.2271C5.88016 16.6959 9.67954 17.0242 12.5022 15.2119L11.5928 14.3025Z" fill="#94A3B8"/>
    <path d="M1.9043 8.96263C1.93096 7.29263 2.5793 5.63096 3.85346 4.3568C6.4568 1.75346 10.6785 1.75346 13.2818 4.3568C13.7451 4.82013 14.1218 5.33596 14.4201 5.88263" stroke="#94A3B8" stroke-width="1.25" stroke-linecap="round" stroke-linejoin="round"/>
    <path d="M11.8613 5.88417H14.8072V2.9375" stroke="#94A3B8" stroke-width="1.25" stroke-linecap="round" stroke-linejoin="round"/>
    <path d="M5.27201 12.2598H2.32617V15.2064" stroke="#94A3B8" stroke-width="1.25" stroke-linecap="round" stroke-linejoin="round"/>
    <path d="M17.3159 12.6211L12.1211 17.8159" stroke="#94A3B8" stroke-width="1.25" stroke-linecap="round" stroke-linejoin="round"/>
    <path d="M12.1211 12.6211L17.3159 17.8159" stroke="#94A3B8" stroke-width="1.25" stroke-linecap="round" stroke-linejoin="round"/>
</svg>
