<svg width="18" height="18" viewBox="0 0 20 20" fill="none"
    xmlns="http://www.w3.org/2000/svg">
    <path fill-rule="evenodd" clip-rule="evenodd" d="M13.472 2.50391H4.17452C3.24952 2.50391 2.50119 3.25724 2.50786 4.18307L2.59452 15.8497C2.60119 16.7656 3.34536 17.5039 4.26119 17.5039H15.8287C16.7495 17.5039 17.4954 16.7581 17.4954 15.8372V6.52724C17.4954 6.08557 17.3195 5.66141 17.007 5.34891L14.6504 2.99224C14.3379 2.67974 13.9145 2.50391 13.472 2.50391Z" stroke="#64748B" stroke-width="1.25" stroke-linecap="round" stroke-linejoin="round"/>
    <path d="M13.3288 2.50391V5.76141C13.3288 6.22141 12.9554 6.59474 12.4954 6.59474H7.49544C7.03544 6.59474 6.66211 6.22141 6.66211 5.76141V2.50391" stroke="#64748B" stroke-width="1.25" stroke-linecap="round" stroke-linejoin="round"/>
    <path d="M5.83594 17.5039V11.0756C5.83594 10.4839 6.31594 10.0039 6.9076 10.0039H13.0984C13.6893 10.0039 14.1693 10.4839 14.1693 11.0756V17.5039" stroke="#64748B" stroke-width="1.25" stroke-linecap="round" stroke-linejoin="round"/>
</svg>
