<svg width="20" height="20" viewBox="0 0 20 20" fill="none"
    xmlns="http://www.w3.org/2000/svg">
    <path d="M14.5501 12.2754V13.0337" stroke="#4C357A" stroke-width="1.3" stroke-linecap="round" stroke-linejoin="round"/>
    <path d="M14.5501 16.0664V16.8247" stroke="#4C357A" stroke-width="1.3" stroke-linecap="round" stroke-linejoin="round"/>
    <path d="M12.5789 13.4122L13.2614 13.7914" stroke="#4C357A" stroke-width="1.3" stroke-linecap="round" stroke-linejoin="round"/>
    <path d="M15.8397 15.3087L16.5222 15.6879" stroke="#4C357A" stroke-width="1.3" stroke-linecap="round" stroke-linejoin="round"/>
    <path d="M12.5789 15.6879L13.2614 15.3087" stroke="#4C357A" stroke-width="1.3" stroke-linecap="round" stroke-linejoin="round"/>
    <path d="M15.8397 13.7914L16.5222 13.4122" stroke="#4C357A" stroke-width="1.3" stroke-linecap="round" stroke-linejoin="round"/>
    <path d="M15.6115 13.4902C16.2182 14.0968 16.2182 15.0068 15.6115 15.6135C15.0049 16.2202 14.0949 16.2202 13.4882 15.6135C12.8815 15.0068 12.8815 14.0968 13.4882 13.4902C14.0949 12.8835 15.0049 12.8835 15.6115 13.4902" stroke="#4C357A" stroke-width="1.3" stroke-linecap="round" stroke-linejoin="round"/>
    <path d="M12.2758 4.84359C13.5649 6.13276 13.5649 8.18026 12.2758 9.39359C10.9866 10.6069 8.9391 10.6828 7.72576 9.39359C6.51243 8.10443 6.4366 6.05693 7.72576 4.84359C9.01493 3.63026 10.9866 3.63026 12.2758 4.84359" stroke="#4C357A" stroke-width="1.3" stroke-linecap="round" stroke-linejoin="round"/>
    <path d="M3.93359 16.0668C3.93359 14.171 5.45026 12.6543 7.34609 12.6543H9.31776" stroke="#4C357A" stroke-width="1.3" stroke-linecap="round" stroke-linejoin="round"/>
</svg>
