<svg width="33" height="32" viewBox="0 0 33 32" fill="none"
    xmlns="http://www.w3.org/2000/svg">
    <g clip-path="url(#clip0_1366_59186)">
        <path d="M31.7288 7.5625H26.1042C25.5865 7.5625 25.1668 7.98223 25.1668 8.49996C25.1668 9.01769 25.5865 9.43743 26.1042 9.43743H29.4658L17.6671 21.2362L10.8302 14.3993C10.4642 14.0332 9.87057 14.0332 9.50446 14.3993L0.966915 22.8365C0.600804 23.2026 0.551619 23.7961 0.917729 24.1622C1.28378 24.5283 1.92657 24.5283 2.29268 24.1622L10.1674 16.3879L17.0042 23.2248C17.3703 23.5909 17.9639 23.5909 18.33 23.2248L30.7916 10.7632V14.1247C30.7916 14.6425 31.2113 15.0622 31.729 15.0622C32.2468 15.0622 32.6665 14.6425 32.6665 14.1247V8.50028C32.6667 7.96867 32.2304 7.5625 31.7288 7.5625Z" fill="#0B85DE"/>
    </g>
    <defs>
        <clipPath id="clip0_1366_59186">
            <rect width="32" height="32" fill="white" transform="translate(0.666504)"/>
        </clipPath>
    </defs>
</svg>
