<svg width="32" height="32" viewBox="0 0 32 32" fill="none"
    xmlns="http://www.w3.org/2000/svg">
    <path d="M21.3335 4V9.33333M10.6668 4V9.33333M5.3335 14.6667H26.6668M5.3335 9.33333C5.3335 8.62609 5.61445 7.94781 6.11454 7.44772C6.61464 6.94762 7.29292 6.66667 8.00016 6.66667H24.0002C24.7074 6.66667 25.3857 6.94762 25.8858 7.44772C26.3859 7.94781 26.6668 8.62609 26.6668 9.33333V25.3333C26.6668 26.0406 26.3859 26.7189 25.8858 27.219C25.3857 27.719 24.7074 28 24.0002 28H8.00016C7.29292 28 6.61464 27.719 6.11454 27.219C5.61445 26.7189 5.3335 26.0406 5.3335 25.3333V9.33333Z" stroke="#573792" stroke-width="2" stroke-linecap="round" stroke-linejoin="round"/>
</svg>
