<svg width="20" height="20" viewBox="0 0 20 20" fill="none"
    xmlns="http://www.w3.org/2000/svg">
    <path d="M16.339 10.4583C16.165 10.4583 15.9981 10.5274 15.8751 10.6505C15.752 10.7735 15.6829 10.9404 15.6829 11.1144V13.7558C15.6823 14.2659 15.4794 14.755 15.1187 15.1157C14.7579 15.4765 14.2688 15.6794 13.7587 15.6799H6.24237C5.73222 15.6794 5.24313 15.4765 4.8824 15.1157C4.52167 14.755 4.31876 14.2659 4.31818 13.7558V6.23944C4.31876 5.72929 4.52167 5.2402 4.8824 4.87947C5.24313 4.51874 5.73222 4.31583 6.24237 4.31525H8.88369C9.05771 4.31525 9.22461 4.24612 9.34766 4.12307C9.47072 4.00001 9.53985 3.83311 9.53985 3.65909C9.53985 3.48507 9.47072 3.31817 9.34766 3.19511C9.22461 3.07206 9.05771 3.00293 8.88369 3.00293H6.24237C5.3843 3.00394 4.56167 3.34526 3.95493 3.952C3.34819 4.55874 3.00687 5.38138 3.00586 6.23944V13.7558C3.00687 14.6138 3.34819 15.4365 3.95493 16.0432C4.56167 16.6499 5.3843 16.9913 6.24237 16.9923H13.7587C14.6167 16.9913 15.4394 16.6499 16.0461 16.0432C16.6529 15.4365 16.9942 14.6138 16.9952 13.7558V11.1144C16.9952 10.9404 16.9261 10.7735 16.803 10.6505C16.68 10.5274 16.5131 10.4583 16.339 10.4583Z" fill="url(#paint0_linear_1366_58538)"/>
    <path d="M16.3252 3H12.2461C12.0742 2.99997 11.9093 3.06733 11.7866 3.18762C11.6639 3.30791 11.5933 3.47152 11.5899 3.64331C11.5831 4.01158 11.8928 4.31232 12.2608 4.31232H14.7578L9.53201 9.53973C9.40897 9.66278 9.33984 9.82967 9.33984 10.0037C9.33984 10.1777 9.40897 10.3446 9.53201 10.4676C9.65507 10.5907 9.82196 10.6598 9.99597 10.6598C10.17 10.6598 10.3369 10.5907 10.4599 10.4676L15.6873 5.24188V7.74787C15.6873 7.92189 15.7565 8.08879 15.8795 8.21184C16.0026 8.3349 16.1695 8.40403 16.3435 8.40403C16.5175 8.40403 16.6844 8.3349 16.8075 8.21184C16.9305 8.08879 16.9997 7.92189 16.9997 7.74787V3.6742C16.9997 3.58564 16.9822 3.49795 16.9483 3.41613C16.9144 3.33432 16.8647 3.25998 16.8021 3.19737C16.7395 3.13476 16.6651 3.08511 16.5833 3.05124C16.5014 3.01738 16.4137 2.99996 16.3252 3Z" fill="url(#paint1_linear_1366_58538)"/>
    <defs>
        <linearGradient id="paint0_linear_1366_58538" x1="10.0005" y1="3.00293" x2="10.0005" y2="16.9923" gradientUnits="userSpaceOnUse">
            <stop stop-color="#573792"/>
            <stop offset="1" stop-color="#301266"/>
        </linearGradient>
        <linearGradient id="paint1_linear_1366_58538" x1="13.1698" y1="3" x2="13.1698" y2="10.6598" gradientUnits="userSpaceOnUse">
            <stop stop-color="#573792"/>
            <stop offset="1" stop-color="#301266"/>
        </linearGradient>
    </defs>
</svg>
