<svg width="33" height="32" viewBox="0 0 33 32" fill="none"
    xmlns="http://www.w3.org/2000/svg">
    <path fill-rule="evenodd" clip-rule="evenodd" d="M24.7023 12.7539C25.2546 12.7561 25.7006 13.2056 25.6984 13.7578C25.6899 15.9288 25.0841 18.101 23.871 19.9988L22.4154 18.5433C23.2659 17.066 23.6919 15.4103 23.6984 13.75C23.7006 13.1977 24.1501 12.7517 24.7023 12.7539ZM18.8828 22.0817C15.185 24.2229 10.3713 23.7113 7.20685 20.5468C6.53685 19.8768 5.9905 19.1293 5.5562 18.3335C5.29164 17.8487 4.68416 17.6702 4.19937 17.9348C3.71458 18.1993 3.53605 18.8068 3.80062 19.2916C4.32099 20.2452 4.97998 21.1484 5.79264 21.961C9.74269 25.9111 15.8216 26.4363 20.3379 23.5368L18.8828 22.0817Z" fill="#DE0B99"/>
    <path d="M3.38135 13.5402C3.42401 10.8682 4.46135 8.20954 6.50001 6.17088C10.6653 2.00554 17.42 2.00554 21.5853 6.17088C22.3267 6.91221 22.9293 7.73754 23.4067 8.61221" stroke="#DE0B99" stroke-width="2" stroke-linecap="round" stroke-linejoin="round"/>
    <path d="M19.313 8.6131H24.0263V3.89844" stroke="#DE0B99" stroke-width="2" stroke-linecap="round" stroke-linejoin="round"/>
    <path d="M8.77144 18.8145H4.05811V23.5291" stroke="#DE0B99" stroke-width="2" stroke-linecap="round" stroke-linejoin="round"/>
</svg>