<svg width="20" height="20" viewBox="0 0 20 20" fill="none"
    xmlns="http://www.w3.org/2000/svg">
    <path d="M15.8333 9.16667V6.66667C15.8333 6.22464 15.6577 5.80072 15.3452 5.48816C15.0326 5.17559 14.6087 5 14.1667 5H4.16667C3.72464 5 3.30072 5.17559 2.98816 5.48816C2.67559 5.80072 2.5 6.22464 2.5 6.66667V10.8333C2.5 11.2754 2.67559 11.6993 2.98816 12.0118C3.30072 12.3244 3.72464 12.5 4.16667 12.5H8.33333M14.5833 14.5833L16.6667 16.6667M10.8333 12.9167C10.8333 13.4692 11.0528 13.9991 11.4435 14.3898C11.8342 14.7805 12.3641 15 12.9167 15C13.4692 15 13.9991 14.7805 14.3898 14.3898C14.7805 13.9991 15 13.4692 15 12.9167C15 12.3641 14.7805 11.8342 14.3898 11.4435C13.9991 11.0528 13.4692 10.8333 12.9167 10.8333C12.3641 10.8333 11.8342 11.0528 11.4435 11.4435C11.0528 11.8342 10.8333 12.3641 10.8333 12.9167Z" stroke="#64748B" stroke-width="1.25" stroke-linecap="round" stroke-linejoin="round"/>
</svg>
