<svg width="120" height="120" viewBox="0 0 120 120" fill="none" xmlns="http://www.w3.org/2000/svg">
<rect width="120" height="120" rx="60" fill="#ECF9ED"/>
<path d="M79.4253 73.0021L75.8529 69.4255C75.2049 68.7768 74.1544 68.7768 73.5065 69.4255L69.9341 73.0021C69.2862 73.6507 69.2862 74.7025 69.9341 75.3512L73.5065 78.9277C74.1544 79.5764 75.2049 79.5764 75.8529 78.9277L79.4253 75.3512C80.0732 74.7025 80.0732 73.6507 79.4253 73.0021Z" fill="#25473C"/>
<path d="M60.0346 69.4276L56.4623 73.0042C55.8143 73.6528 55.8143 74.7046 56.4623 75.3533L60.0346 78.9298C60.6826 79.5785 61.7331 79.5785 62.381 78.9298L65.9534 75.3533C66.6014 74.7046 66.6014 73.6528 65.9534 73.0042L62.381 69.4276C61.7331 68.7789 60.6826 68.7789 60.0346 69.4276Z" fill="#40BF42"/>
<path d="M86.9995 31.4628H86.9691C86.3248 29.2757 75.1255 27 61.4044 27C47.6832 27 36.4811 29.2757 35.8396 31.4628H35.8092L35.8202 31.5486C35.8147 31.5873 35.8092 31.6233 35.8092 31.6621C35.8092 31.7507 35.8285 31.8393 35.8645 31.9279L36.5226 37.4122C36.5226 37.4122 36.5226 37.4232 36.5171 37.426C34.6699 38.7632 32.1286 40.6956 29.6842 42.8605C23.0835 48.6992 20.769 53.0373 22.6106 56.1186C23.7361 58.0012 25.8736 58.9425 29.0703 58.9425C31.642 58.9425 34.9049 58.3306 38.8731 57.1097C38.8814 57.107 38.8924 57.1125 38.8924 57.1236L39.133 59.1196C39.1634 59.3826 39.2823 59.6263 39.4704 59.8145C39.4704 59.8145 44.0386 64.3299 44.34 64.7064C44.6414 65.0829 44.7327 65.1936 44.9981 65.5812C45.2829 65.9992 45.3853 66.2844 45.3853 66.2844C45.5899 66.6554 45.5816 67.1066 45.3631 67.4693C45.3631 67.4693 45.1281 67.9206 44.9815 68.1393C44.835 68.358 44.575 68.6431 44.3483 68.8701L39.9156 73.3467C39.4538 73.8091 39.4538 74.5593 39.9156 75.0217L44.2847 79.3958C44.5695 79.7169 44.799 80.0409 45.0119 80.4008L45.4129 81.1925C45.6009 81.5607 45.5843 82.0009 45.3714 82.3553L44.976 83.0114C44.7935 83.2883 44.5916 83.5014 44.3593 83.7617L41.4199 86.735C40.9581 87.1973 40.9581 87.9476 41.4199 88.4099L45.6535 92.6484C46.1208 93.1163 46.8813 93.1163 47.3486 92.6484L51.5822 88.4099C52.044 87.9476 52.044 87.1973 51.5822 86.735L48.6427 83.7644C48.4298 83.5319 48.2058 83.2772 48.0261 83.0114L47.6306 82.3553C47.4177 82.0009 47.4011 81.5607 47.5892 81.1925L47.9901 80.4035C48.2141 80.0159 48.427 79.7308 48.7174 79.3986L53.0865 75.0217C53.5483 74.5593 53.5483 73.8091 53.0865 73.3467L48.64 68.8701C48.4132 68.6431 48.2528 68.4964 48.0067 68.1143C47.7689 67.7489 47.6279 67.4499 47.6279 67.4499C47.4149 67.0956 47.4011 66.6581 47.5919 66.2927C47.5919 66.2927 47.7744 65.8359 47.9929 65.5203C48.2611 65.1327 48.4187 64.8337 48.7036 64.5486L53.0754 60.1716C53.5455 59.701 54.306 59.7038 54.7733 60.1716L60.5582 65.9771C61.02 66.4394 61.7694 66.4394 62.2312 65.9771L67.9635 60.2409C68.4336 59.773 69.1913 59.773 69.6614 60.2409L75.3882 65.9771C75.85 66.4394 76.5994 66.4394 77.0612 65.9771L82.8102 60.1938C83.2775 59.7259 83.2747 58.9646 82.8102 58.4967L77.0391 52.719C76.5718 52.2511 76.5718 51.4898 77.0391 51.0219L85.3874 42.6639C85.5782 42.4729 85.6971 42.2265 85.7303 41.958L86.9359 31.9195C86.9719 31.831 86.9912 31.7424 86.9912 31.6538C86.9912 31.615 86.9885 31.579 86.9802 31.5403L86.9912 31.4544L86.9995 31.4628ZM61.9851 44.2475C59.0539 45.8698 48.0592 51.75 38.0463 54.4714C28.4066 57.4392 25.716 55.9276 24.9832 54.6984C24.6182 54.0866 24.0099 51.5784 31.4982 44.9479C33.3398 43.3173 35.27 41.8029 36.8849 40.5931C36.8932 40.5848 36.907 40.5931 36.9098 40.6042L38.2233 51.523C38.2233 51.523 38.2343 51.5396 38.2426 51.5368C39.9239 51.0496 41.7213 50.4544 43.621 49.7456C51.2006 46.9218 58.0999 43.2453 60.7158 41.7946C61.4182 41.4043 62.3141 41.6922 62.6487 42.4425C62.9474 43.1096 62.6294 43.8959 61.9906 44.2475H61.9851ZM61.4044 34.8984C43.5712 34.8984 39.4178 33.1044 39.6999 32.2185C39.9432 31.4517 49.417 29.9761 61.4044 29.9761C73.3917 29.9761 82.9097 31.4378 83.1088 32.2185C83.3134 33.0186 79.2375 34.8984 61.4044 34.8984Z" fill="#40BF42"/>
</svg>
