<svg width="20" height="20" viewBox="0 0 20 20" fill="none" xmlns="http://www.w3.org/2000/svg">
	<path d="M0.64886 1.00005C0.555372 0.998846 0.462753 1.01814 0.377506 1.05657C0.292259 1.09501 0.21645 1.15165 0.155403 1.22253C0.0943556 1.29341 0.0495493 1.37681 0.0241299 1.46687C-0.00128941 1.55692 -0.00670566 1.65146 0.00826149 1.74383L2.7276 18.2673C2.76148 18.4695 2.86546 18.6533 3.02128 18.7864C3.17709 18.9195 3.37477 18.9934 3.5796 18.9951H16.6254C16.7789 18.997 16.9281 18.9437 17.0457 18.8449C17.1632 18.746 17.2414 18.6082 17.266 18.4565L19.9917 1.75025C20.0067 1.65787 20.0013 1.56334 19.9759 1.47328C19.9505 1.38322 19.9056 1.29982 19.8446 1.22894C19.7836 1.15806 19.7077 1.10142 19.6225 1.06298C19.5372 1.02455 19.4446 1.00526 19.3511 1.00647L0.64886 1.00005ZM12.0996 12.9422H7.93567L6.80822 7.04968H13.1085L12.0996 12.9422Z" fill="#2684FF" />
	<path d="M19.121 7.04883H13.109L12.1 12.9414H7.93613L3.01953 18.7858C3.17537 18.9207 3.37405 18.9957 3.58006 18.9974H16.629C16.7826 18.9994 16.9317 18.9461 17.0493 18.8472C17.1669 18.7484 17.2451 18.6105 17.2696 18.4588L19.121 7.04883Z" fill="url(#paint0_linear_3729_126696)" />
	<defs>
		<linearGradient id="paint0_linear_3729_126696" x1="20.5111" y1="8.69669" x2="10.5684" y2="16.4526" gradientUnits="userSpaceOnUse">
			<stop offset="0.18" stop-color="#0052CC" />
			<stop offset="1" stop-color="#2684FF" />
		</linearGradient>
	</defs>
</svg>
