<svg width="19" height="18" viewBox="0 0 19 18" fill="none" xmlns="http://www.w3.org/2000/svg">
	<path d="M16.1799 12.4673L15.2273 11.5136C15.0545 11.3406 14.7744 11.3406 14.6016 11.5136L13.6489 12.4673C13.4762 12.6403 13.4762 12.9208 13.6489 13.0937L14.6016 14.0475C14.7744 14.2205 15.0545 14.2205 15.2273 14.0475L16.1799 13.0937C16.3527 12.9208 16.3527 12.6403 16.1799 12.4673Z" fill="white" />
	<path d="M11.0092 11.514L10.0565 12.4677C9.88375 12.6407 9.88375 12.9212 10.0565 13.0941L11.0092 14.0479C11.182 14.2209 11.4621 14.2209 11.6349 14.0479L12.5875 13.0941C12.7603 12.9212 12.7603 12.6407 12.5875 12.4677L11.6349 11.514C11.4621 11.341 11.182 11.341 11.0092 11.514Z" fill="white" />
	<path d="M18.1999 1.39006H18.1918C18.0199 0.806843 15.0335 0.199997 11.3745 0.199997C7.71552 0.199997 4.72831 0.806843 4.55723 1.39006H4.54912L4.55207 1.41295C4.55059 1.42329 4.54912 1.43288 4.54912 1.44322C4.54912 1.46684 4.55428 1.49047 4.56387 1.51409L4.73937 2.97657C4.73937 2.97657 4.73937 2.97953 4.73789 2.98027C4.24531 3.33684 3.56764 3.85214 2.91578 4.42946C1.1556 5.98644 0.538398 7.14329 1.02951 7.96496C1.32963 8.46698 1.89964 8.71798 2.75207 8.71798C3.43786 8.71798 4.30799 8.55483 5.36616 8.22926C5.36837 8.22852 5.37132 8.23 5.37132 8.23295L5.43547 8.76523C5.44358 8.83537 5.47529 8.90033 5.52544 8.95053C5.52544 8.95053 6.74362 10.1546 6.824 10.255C6.90438 10.3554 6.92871 10.385 6.9995 10.4883C7.07545 10.5998 7.10274 10.6758 7.10274 10.6758C7.1573 10.7748 7.15509 10.8951 7.09684 10.9918C7.09684 10.9918 7.03416 11.1121 6.99508 11.1705C6.95599 11.2288 6.88668 11.3048 6.82621 11.3654L5.64416 12.5591C5.52101 12.6824 5.52101 12.8825 5.64416 13.0058L6.80925 14.1722C6.8852 14.2578 6.94641 14.3442 7.00319 14.4402L7.11011 14.6513C7.16025 14.7495 7.15583 14.8669 7.09905 14.9614L6.9936 15.1364C6.94493 15.2102 6.8911 15.267 6.82916 15.3364L6.0453 16.1293C5.92216 16.2526 5.92216 16.4527 6.0453 16.576L7.17426 17.7062C7.29888 17.831 7.50167 17.831 7.62629 17.7062L8.75525 16.576C8.8784 16.4527 8.8784 16.2526 8.75525 16.1293L7.97139 15.3372C7.91461 15.2752 7.85488 15.2072 7.80695 15.1364L7.70151 14.9614C7.64473 14.8669 7.6403 14.7495 7.69044 14.6513L7.79737 14.4409C7.8571 14.3376 7.91388 14.2615 7.9913 14.173L9.1564 13.0058C9.27954 12.8825 9.27954 12.6824 9.1564 12.5591L7.97066 11.3654C7.91019 11.3048 7.86742 11.2657 7.80179 11.1638C7.73838 11.0664 7.70077 10.9866 7.70077 10.9866C7.64399 10.8921 7.6403 10.7755 7.69118 10.6781C7.69118 10.6781 7.73985 10.5562 7.7981 10.4721C7.86963 10.3687 7.91166 10.289 7.98762 10.213L9.15345 9.04577C9.2788 8.92027 9.48159 8.921 9.60621 9.04577L11.1489 10.5939C11.272 10.7172 11.4718 10.7172 11.595 10.5939L13.1236 9.06423C13.249 8.93946 13.451 8.93946 13.5764 9.06423L15.1035 10.5939C15.2267 10.7172 15.4265 10.7172 15.5497 10.5939L17.0827 9.05168C17.2073 8.92691 17.2066 8.72389 17.0827 8.59912L15.5438 7.05839C15.4191 6.93362 15.4191 6.7306 15.5438 6.60584L17.77 4.37704C17.8208 4.3261 17.8526 4.2604 17.8614 4.18879L18.1829 1.51188C18.1925 1.48825 18.1977 1.46463 18.1977 1.441C18.1977 1.43067 18.1969 1.42107 18.1947 1.41074L18.1977 1.38785L18.1999 1.39006ZM11.5294 4.79933C10.7477 5.23194 7.8158 6.8 5.14568 7.5257C2.5751 8.31711 1.85761 7.91402 1.6622 7.58624C1.56486 7.42308 1.40263 6.75423 3.39951 4.9861C3.89062 4.55127 4.40533 4.14745 4.83597 3.82483C4.83818 3.82261 4.84187 3.82483 4.8426 3.82778L5.19287 6.73946C5.19287 6.73946 5.19582 6.74389 5.19803 6.74315C5.64637 6.61322 6.12568 6.45449 6.63227 6.2655C8.65349 5.51248 10.4933 4.53208 11.1909 4.14523C11.3782 4.04114 11.6171 4.11792 11.7063 4.31798C11.786 4.4959 11.7012 4.70557 11.5308 4.79933H11.5294ZM11.3745 2.30624C6.619 2.30624 5.51143 1.82785 5.58664 1.59161C5.65153 1.38711 8.17787 0.993621 11.3745 0.993621C14.5711 0.993621 17.1093 1.38342 17.1624 1.59161C17.2169 1.80496 16.13 2.30624 11.3745 2.30624Z" fill="white" />
</svg>
