<svg width="32" height="32" viewBox="0 0 32 32" fill="none" xmlns="http://www.w3.org/2000/svg">
	<path d="M21.334 4V9.33333M10.6673 4V9.33333M5.33398 14.6667H26.6673M5.33398 9.33333C5.33398 8.62609 5.61494 7.94781 6.11503 7.44772C6.61513 6.94762 7.29341 6.66667 8.00065 6.66667H24.0007C24.7079 6.66667 25.3862 6.94762 25.8863 7.44772C26.3864 7.94781 26.6673 8.62609 26.6673 9.33333V25.3333C26.6673 26.0406 26.3864 26.7189 25.8863 27.219C25.3862 27.719 24.7079 28 24.0007 28H8.00065C7.29341 28 6.61513 27.719 6.11503 27.219C5.61494 26.7189 5.33398 26.0406 5.33398 25.3333V9.33333Z" stroke="currentColor" stroke-width="2" stroke-linecap="round" stroke-linejoin="round" />
</svg>
