<svg width="16" height="17" viewBox="0 0 16 17" fill="none" xmlns="http://www.w3.org/2000/svg">
<path d="M10.666 2.39111V5.05778M5.33268 2.39111V5.05778M2.66602 7.72445H13.3327M2.66602 5.05778C2.66602 4.70416 2.80649 4.36502 3.05654 4.11497C3.30659 3.86492 3.64573 3.72445 3.99935 3.72445H11.9993C12.353 3.72445 12.6921 3.86492 12.9422 4.11497C13.1922 4.36502 13.3327 4.70416 13.3327 5.05778V13.0578C13.3327 13.4114 13.1922 13.7505 12.9422 14.0006C12.6921 14.2506 12.353 14.3911 11.9993 14.3911H3.99935C3.64573 14.3911 3.30659 14.2506 3.05654 14.0006C2.80649 13.7505 2.66602 13.4114 2.66602 13.0578V5.05778Z" stroke="#64748B" stroke-linecap="round" stroke-linejoin="round"/>
</svg>
