<svg width="20" height="20" viewBox="0 0 20 20" fill="none" xmlns="http://www.w3.org/2000/svg">
	<path d="M8.33327 17.3139C7.60794 17.1494 6.91134 16.8772 6.2666 16.5064M11.6666 2.68555C13.3234 3.06394 14.8026 3.99362 15.8621 5.32239C16.9217 6.65115 17.4986 8.30026 17.4986 9.99971C17.4986 11.6992 16.9217 13.3483 15.8621 14.677C14.8026 16.0058 13.3234 16.9355 11.6666 17.3139M3.81577 14.2439C3.36119 13.5834 3.01594 12.8541 2.79327 12.0839M2.60327 8.74971C2.7366 7.95805 2.99327 7.20805 3.35327 6.52055L3.4941 6.26638M5.75577 3.81555C6.53548 3.2788 7.41021 2.89531 8.33327 2.68555" stroke="#475569" stroke-width="1.25" stroke-linecap="round" stroke-linejoin="round" />
</svg>
