<svg width="1em" height="1em" viewBox="0 0 20 20" fill="none" xmlns="http://www.w3.org/2000/svg">
<path d="M13.3359 6.66536V4.9987C13.3359 4.55667 13.1603 4.13275 12.8478 3.82019C12.5352 3.50763 12.1113 3.33203 11.6693 3.33203H5.0026C4.56058 3.33203 4.13665 3.50763 3.82409 3.82019C3.51153 4.13275 3.33594 4.55667 3.33594 4.9987V11.6654C3.33594 12.1074 3.51153 12.5313 3.82409 12.8439C4.13665 13.1564 4.56058 13.332 5.0026 13.332H6.66927M6.66927 8.33203C6.66927 7.89 6.84487 7.46608 7.15743 7.15352C7.46999 6.84096 7.89391 6.66536 8.33594 6.66536H15.0026C15.4446 6.66536 15.8686 6.84096 16.1811 7.15352C16.4937 7.46608 16.6693 7.89 16.6693 8.33203V14.9987C16.6693 15.4407 16.4937 15.8646 16.1811 16.1772C15.8686 16.4898 15.4446 16.6654 15.0026 16.6654H8.33594C7.89391 16.6654 7.46999 16.4898 7.15743 16.1772C6.84487 15.8646 6.66927 15.4407 6.66927 14.9987V8.33203Z" stroke="#64748B" stroke-width="1.25" stroke-linecap="round" stroke-linejoin="round"/>
</svg>
