<svg width="20" height="20" viewBox="0 0 20 20" fill="none" xmlns="http://www.w3.org/2000/svg">
<path fill-rule="evenodd" clip-rule="evenodd" d="M15.3453 5.34695L12.9887 2.99029C12.6762 2.67779 12.252 2.50195 11.8103 2.50195H5.83366C4.91283 2.50195 4.16699 3.24779 4.16699 4.16862V15.8353C4.16699 16.7561 4.91283 17.502 5.83366 17.502H14.167C15.0878 17.502 15.8337 16.7561 15.8337 15.8353V6.52529C15.8337 6.08362 15.6578 5.65945 15.3453 5.34695V5.34695Z" stroke="#94A3B8" stroke-width="1.25" stroke-linecap="round" stroke-linejoin="round"/>
<path d="M15.8337 6.66862H12.5003C12.0403 6.66862 11.667 6.29529 11.667 5.83529V2.50195" stroke="#94A3B8" stroke-width="1.25" stroke-linecap="round" stroke-linejoin="round"/>
<path d="M13.3333 9.26628H9.375" stroke="#94A3B8" stroke-width="1.25" stroke-linecap="round" stroke-linejoin="round"/>
<path d="M13.3333 11.6686H9.375" stroke="#94A3B8" stroke-width="1.25" stroke-linecap="round" stroke-linejoin="round"/>
<path d="M13.3333 14.071H9.375" stroke="#94A3B8" stroke-width="1.25" stroke-linecap="round" stroke-linejoin="round"/>
<path d="M6.77116 9.16602C6.71366 9.16602 6.66699 9.21268 6.66699 9.27018C6.66699 9.32768 6.71366 9.37435 6.77116 9.37435C6.82866 9.37435 6.87533 9.32768 6.87533 9.27018C6.87533 9.21268 6.82866 9.16602 6.77116 9.16602" stroke="#94A3B8" stroke-width="1.25" stroke-linecap="round" stroke-linejoin="round"/>
<path d="M6.77116 11.5645C6.71366 11.5645 6.66699 11.6111 6.66699 11.6686C6.66699 11.7261 6.71366 11.7728 6.77116 11.7728C6.82866 11.7728 6.87533 11.7261 6.87533 11.6686C6.87533 11.6111 6.82866 11.5645 6.77116 11.5645" stroke="#94A3B8" stroke-width="1.25" stroke-linecap="round" stroke-linejoin="round"/>
<path d="M6.77116 13.9629C6.71366 13.9629 6.66699 14.0096 6.66699 14.0671C6.66699 14.1246 6.71366 14.1712 6.77116 14.1712C6.82866 14.1712 6.87533 14.1246 6.87533 14.0671C6.87533 14.0096 6.82866 13.9629 6.77116 13.9629" stroke="#94A3B8" stroke-width="1.25" stroke-linecap="round" stroke-linejoin="round"/>
</svg>
