<svg width="24" height="24" viewBox="0 0 24 24" fill="none" xmlns="http://www.w3.org/2000/svg">
<path fill-rule="evenodd" clip-rule="evenodd" d="M19.9982 11H4.00001C3.39337 11 2.81952 11.2753 2.43993 11.7485C2.06034 12.2218 1.91605 12.8417 2.04764 13.4339L3.15875 18.4339C3.3621 19.3489 4.17373 20 5.11112 20H18.757C19.6759 20 20.4766 19.3738 20.698 18.4819L21.9393 13.4819C22.0876 12.8847 21.9527 12.2525 21.5736 11.7679C21.1946 11.2832 20.6135 11 19.9982 11Z" stroke="#573792" stroke-width="1.5" stroke-linecap="round" stroke-linejoin="round"/>
<path d="M21 11.2714V8.94C21 7.83543 20.1046 6.94 19 6.94H12.5291C12.1981 6.94 11.8886 6.7762 11.7024 6.50253L10.2974 4.43747C10.1111 4.16379 9.80157 3.99999 9.47054 4H5C3.89543 4 3 4.89543 3 6V11.2714" stroke="#573792" stroke-width="1.5" stroke-linecap="round" stroke-linejoin="round"/>
</svg>
