<svg width="20" height="20" viewBox="0 0 20 20" fill="none" xmlns="http://www.w3.org/2000/svg">
	<path d="M10.0001 0C4.47791 0 0 4.58454 0 10.2401C0 14.7644 2.86533 18.6028 6.83867 19.9569C7.33844 20.0517 7.52192 19.7347 7.52192 19.4643C7.52192 19.2201 7.51265 18.4134 7.50834 17.5578C4.72631 18.1772 4.13927 16.3496 4.13927 16.3496C3.68437 15.166 3.02894 14.8512 3.02894 14.8512C2.12163 14.2157 3.09733 14.2287 3.09733 14.2287C4.10151 14.301 4.63026 15.284 4.63026 15.284C5.52217 16.8495 6.96966 16.3969 7.5403 16.1352C7.63006 15.4734 7.88922 15.0217 8.1752 14.7659C5.95405 14.507 3.61913 13.629 3.61913 9.70526C3.61913 8.58727 4.00977 7.67379 4.64947 6.95667C4.54564 6.69875 4.20335 5.65725 4.74635 4.24675C4.74635 4.24675 5.58609 3.97153 7.49708 5.2964C8.29476 5.06951 9.15024 4.95573 10.0001 4.95183C10.8499 4.95573 11.7061 5.06951 12.5052 5.2964C14.4139 3.97153 15.2525 4.24675 15.2525 4.24675C15.7968 5.65725 15.4544 6.69875 15.3505 6.95667C15.9917 7.67379 16.3797 8.58727 16.3797 9.70526C16.3797 13.6383 14.0403 14.5043 11.8135 14.7578C12.1722 15.0756 12.4918 15.6988 12.4918 16.6541C12.4918 18.0243 12.4802 19.127 12.4802 19.4643C12.4802 19.7368 12.6602 20.0561 13.1671 19.9555C17.1383 18.6 20 14.7629 20 10.2401C20 4.58454 15.5227 0 10.0001 0Z" fill="#161614" />
</svg>
