<svg width="21" height="20" viewBox="0 0 21 20" fill="none" xmlns="http://www.w3.org/2000/svg">
<g clip-path="url(#clip0_4950_20464)">
<path d="M4.97615 17.5826C5.51756 17.9981 6.33239 18.2906 7.51203 18.1501C7.51385 18.4004 7.51582 18.6333 7.51752 18.8341C7.52001 19.128 7.52192 19.3533 7.52192 19.4643C7.52192 19.4676 7.52176 19.4708 7.52148 19.4737C7.50834 19.4744 7.48878 19.4741 7.46179 19.4705C3.71066 18.1739 1 14.5358 1 10.2401C1 4.84946 5.26514 0.5 10.5001 0.5C15.7355 0.5 20 4.84943 20 10.2401C20 14.5353 17.2916 18.1727 13.5414 19.47C13.5144 19.474 13.4945 19.4748 13.4807 19.4744C13.4804 19.4712 13.4802 19.4678 13.4802 19.4643C13.4802 19.3541 13.4815 19.1609 13.4832 18.9006C13.484 18.7672 13.485 18.6161 13.486 18.4495C13.4889 17.9599 13.4918 17.3406 13.4918 16.6541C13.4918 16.0499 13.3765 15.5393 13.1871 15.1314C14.0894 14.9569 15.0072 14.6337 15.7571 13.991C16.7585 13.1327 17.3797 11.7773 17.3797 9.70526C17.3797 8.5744 17.0199 7.61934 16.413 6.84922C16.5586 6.3276 16.7032 5.32146 16.219 4.06674L16.1336 3.84559L15.9084 3.77168L15.7525 4.24675C15.9084 3.77168 15.9079 3.77152 15.9074 3.77136L15.9064 3.77103L15.9043 3.77036L15.9 3.76898L15.8902 3.76604C15.8832 3.76401 15.8754 3.76185 15.8667 3.75961C15.8492 3.75515 15.8283 3.75041 15.8038 3.74587C15.7548 3.7368 15.692 3.72862 15.6151 3.725C15.461 3.71775 15.2532 3.72898 14.9891 3.78602C14.4966 3.89238 13.8124 4.15706 12.914 4.75397C12.1348 4.55483 11.3146 4.45556 10.5024 4.45181L10.4978 4.45183C9.68573 4.45556 8.86602 4.5548 8.08809 4.75394C7.18848 4.15697 6.50351 3.89232 6.01051 3.78599C5.74615 3.72897 5.53813 3.71776 5.38396 3.725C5.30704 3.72861 5.24423 3.73679 5.19522 3.74585C5.17074 3.75038 5.1498 3.75511 5.13236 3.75957C5.12364 3.7618 5.11581 3.76396 5.10885 3.76599L5.09908 3.76892L5.09469 3.7703L5.09262 3.77097L5.09161 3.77129C5.09112 3.77146 5.09063 3.77162 5.24635 4.24675L5.09063 3.77162L4.86502 3.84555L4.77973 4.06712C4.29668 5.3219 4.44149 6.32802 4.58713 6.8495C3.98152 7.61891 3.61913 8.57367 3.61913 9.70526C3.61913 11.7728 4.23926 13.1281 5.23782 13.9886C5.98721 14.6345 6.90471 14.961 7.80675 15.1381C7.71898 15.3287 7.64747 15.5415 7.59636 15.7754C7.35821 15.8582 7.05694 15.9248 6.75131 15.8969C6.36953 15.8619 5.93098 15.6774 5.56655 15.0397L5.56614 15.039L5.55837 15.0252C5.55209 15.0141 5.54359 14.9996 5.53288 14.982C5.51148 14.9468 5.48107 14.899 5.44165 14.8427C5.3633 14.7306 5.2468 14.581 5.09189 14.4279C4.78601 14.1255 4.29709 13.7778 3.63321 13.73L3.61863 13.729L3.60402 13.7288L3.59733 14.2287C3.60402 13.7288 3.60386 13.7288 3.6037 13.7288L3.60335 13.7288L3.60258 13.7288L3.60076 13.7288L3.59602 13.7287L3.5823 13.7288C3.57137 13.7289 3.55683 13.7291 3.53944 13.7297C3.50511 13.731 3.45738 13.7337 3.40309 13.7398C3.31451 13.7498 3.1317 13.7759 2.97084 13.8698C2.88437 13.9203 2.76153 14.0151 2.69172 14.1794C2.61606 14.3573 2.6367 14.5351 2.69419 14.6754C2.78987 14.9089 3.0098 15.0981 3.24207 15.2608L3.2756 15.2843L3.305 15.2984C3.30557 15.2987 3.30624 15.2991 3.307 15.2995C3.31405 15.3036 3.32945 15.3129 3.35168 15.3285C3.39606 15.3596 3.46804 15.4158 3.55532 15.5054C3.72772 15.6824 3.96678 15.9969 4.16927 16.5204C4.17172 16.5275 4.17481 16.536 4.17856 16.546C4.18658 16.5673 4.1977 16.5952 4.21237 16.6285C4.24166 16.695 4.28543 16.7838 4.34748 16.8856C4.47138 17.089 4.67069 17.3482 4.97615 17.5826Z" fill="#161614" stroke="#161614"/>
</g>
<defs>
<clipPath id="clip0_4950_20464">
<rect width="20" height="20" fill="white" transform="translate(0.5)"/>
</clipPath>
</defs>
</svg>
