<svg width="20" height="20" viewBox="0 0 20 20" fill="none" xmlns="http://www.w3.org/2000/svg">
	<path d="M10.0014 19.4488L13.6859 8.09766H6.32227L10.0014 19.4488Z" fill="#E24329" />
	<path d="M1.16135 8.09766L0.0393341 11.5463C-0.0621989 11.8594 0.0474498 12.2051 0.31544 12.4003L10.0013 19.4487L1.16135 8.09766Z" fill="#FCA326" />
	<path d="M1.16211 8.09855H6.32288L4.10183 1.26231C3.98815 0.912562 3.49275 0.912562 3.37498 1.26231L1.16211 8.09855Z" fill="#E24329" />
	<path d="M18.8473 8.09766L19.9653 11.5463C20.0668 11.8594 19.9572 12.2051 19.6892 12.4003L10.002 19.4487L18.8473 8.09766Z" fill="#FCA326" />
	<path d="M18.8463 8.09855H13.6855L15.9025 1.26231C16.0162 0.912562 16.5116 0.912562 16.6294 1.26231L18.8463 8.09855Z" fill="#E24329" />
	<path d="M10.002 19.4487L13.6865 8.09766H18.8473L10.002 19.4487Z" fill="#FC6D26" />
	<path d="M10.002 19.4487L1.16211 8.09766H6.32288L10.002 19.4487Z" fill="#FC6D26" />
</svg>
