<svg width="21" height="20" viewBox="0 0 21 20" fill="none" xmlns="http://www.w3.org/2000/svg">
<path d="M15.4333 11.8484H10.5333V8.36927H19.1054C19.2103 8.95896 19.2667 9.57284 19.2667 10.2109C19.2667 12.9893 18.2734 15.3265 16.5536 16.9151H13.6375V14.6662C14.6075 14.0113 15.253 13.0368 15.4661 11.8878L15.4734 11.8484H15.4333Z" fill="#4285F4" stroke="#573792" stroke-width="0.0666667"/>
<path d="M10.5003 19.1672C12.9753 19.1672 15.0503 18.3464 16.5669 16.9464L13.6044 14.6464C12.7836 15.1964 11.7336 15.5214 10.5003 15.5214C8.11276 15.5214 6.09193 13.9089 5.37109 11.7422H2.30859V14.1172C3.81693 17.113 6.91693 19.1672 10.5003 19.1672Z" fill="#34A853"/>
<path d="M5.37148 11.7411C5.18815 11.1911 5.08399 10.6036 5.08399 9.99948C5.08399 9.39531 5.18815 8.80781 5.37148 8.25781V5.88281H2.30899C1.66732 7.16019 1.33342 8.56999 1.33399 9.99948C1.33399 11.4786 1.68815 12.8786 2.30899 14.1161L5.37148 11.7411Z" fill="#FBBC05"/>
<path d="M10.5003 4.48177C11.8461 4.48177 13.0544 4.94427 14.0044 5.8526L16.6336 3.22344C15.0461 1.74427 12.9711 0.835938 10.5003 0.835938C6.91693 0.835938 3.81693 2.8901 2.30859 5.88594L5.37109 8.26094C6.09193 6.09427 8.11276 4.48177 10.5003 4.48177Z" fill="#EA4335"/>
</svg>
