<svg width="18" height="17" viewBox="0 0 18 17" fill="none" xmlns="http://www.w3.org/2000/svg">
<path d="M4.77071 6.38403V3.70448C4.77071 3.33538 5.07086 3.0346 5.44068 3.0346C5.81117 3.0346 6.11064 2.73449 6.11064 2.36471C6.11064 1.99493 5.81117 1.69482 5.44068 1.69482C4.33256 1.69482 3.43079 2.59649 3.43079 3.70448V6.38403C3.43079 7.12292 2.82983 7.72381 2.09086 7.72381C1.72037 7.72381 1.4209 8.02392 1.4209 8.39369C1.4209 8.76347 1.72037 9.06358 2.09086 9.06358C2.82983 9.06358 3.43079 9.66447 3.43079 10.4034V13.0829C3.43079 14.1909 4.33256 15.0926 5.44068 15.0926C5.81117 15.0926 6.11064 14.7925 6.11064 14.4227C6.11064 14.0529 5.81117 13.7528 5.44068 13.7528C5.07086 13.7528 4.77071 13.452 4.77071 13.0829V10.4034C4.77071 9.59949 4.40759 8.88539 3.84482 8.39369C4.40759 7.902 4.77071 7.1879 4.77071 6.38403Z" fill="#775DA7"/>
<path d="M13.2351 10.4006L13.2351 13.0802C13.2351 13.4493 12.935 13.7501 12.5652 13.7501C12.1947 13.7501 11.8952 14.0502 11.8952 14.42C11.8952 14.7897 12.1947 15.0898 12.5652 15.0898C13.6733 15.0898 14.5751 14.1882 14.5751 13.0802L14.5751 10.4006C14.5751 9.66175 15.176 9.06086 15.915 9.06086C16.2855 9.06086 16.585 8.76075 16.585 8.39097C16.585 8.0212 16.2855 7.72109 15.915 7.72109C15.176 7.72109 14.5751 7.1202 14.5751 6.38131L14.5751 3.70177C14.5751 2.59377 13.6733 1.69211 12.5652 1.69211C12.1947 1.69211 11.8952 1.99221 11.8952 2.36199C11.8952 2.73177 12.1947 3.03188 12.5652 3.03188C12.935 3.03188 13.2351 3.33266 13.2351 3.70177L13.2351 6.38131C13.2351 7.18518 13.5983 7.89928 14.161 8.39097C13.5983 8.88267 13.2351 9.59677 13.2351 10.4006Z" fill="#775DA7"/>
</svg>
