<svg width="20" height="20" viewBox="0 0 20 20" fill="none" xmlns="http://www.w3.org/2000/svg">
	<path d="M17.7974 9.48828H5.57226C5.18393 9.48828 4.86914 9.80129 4.86914 10.1874C4.86914 10.5736 5.18393 10.8866 5.57226 10.8866H17.7974C18.1858 10.8866 18.5005 10.5736 18.5005 10.1874C18.5005 9.80129 18.1858 9.48828 17.7974 9.48828Z" fill="currentColor" fill-opacity="0.8" />
	<path d="M17.7974 4.24414H5.57226C5.18393 4.24414 4.86914 4.55715 4.86914 4.94329C4.86914 5.32943 5.18393 5.64245 5.57226 5.64245H17.7974C18.1858 5.64245 18.5005 5.32943 18.5005 4.94329C18.5005 4.55715 18.1858 4.24414 17.7974 4.24414Z" fill="currentColor" fill-opacity="0.8" />
	<path d="M17.7974 14.7324H5.57226C5.18393 14.7324 4.86914 15.0454 4.86914 15.4316C4.86914 15.8177 5.18393 16.1307 5.57226 16.1307H17.7974C18.1858 16.1307 18.5005 15.8177 18.5005 15.4316C18.5005 15.0454 18.1858 14.7324 17.7974 14.7324Z" fill="currentColor" fill-opacity="0.8" />
	<path d="M1.44922 5.88771C1.97346 5.88771 2.39844 5.46513 2.39844 4.94386C2.39844 4.42258 1.97346 4 1.44922 4C0.924979 4 0.5 4.42258 0.5 4.94386C0.5 5.46513 0.924979 5.88771 1.44922 5.88771Z" fill="currentColor" fill-opacity="0.8" />
	<path d="M1.44922 11.1319C1.97346 11.1319 2.39844 10.7093 2.39844 10.188C2.39844 9.66672 1.97346 9.24414 1.44922 9.24414C0.924979 9.24414 0.5 9.66672 0.5 10.188C0.5 10.7093 0.924979 11.1319 1.44922 11.1319Z" fill="currentColor" fill-opacity="0.8" />
	<path d="M1.44922 16.374C1.97346 16.374 2.39844 15.9515 2.39844 15.4302C2.39844 14.9089 1.97346 14.4863 1.44922 14.4863C0.924979 14.4863 0.5 14.9089 0.5 15.4302C0.5 15.9515 0.924979 16.374 1.44922 16.374Z" fill="currentColor" fill-opacity="0.8" />
</svg>
