<svg width="1em" height="1em" viewBox="0 0 20 20" fill="none" xmlns="http://www.w3.org/2000/svg">
<path d="M7.49996 4.16667H5.83329C5.39127 4.16667 4.96734 4.34226 4.65478 4.65482C4.34222 4.96738 4.16663 5.39131 4.16663 5.83333V15.8333C4.16663 16.2754 4.34222 16.6993 4.65478 17.0118C4.96734 17.3244 5.39127 17.5 5.83329 17.5H14.1666C14.6087 17.5 15.0326 17.3244 15.3451 17.0118C15.6577 16.6993 15.8333 16.2754 15.8333 15.8333V5.83333C15.8333 5.39131 15.6577 4.96738 15.3451 4.65482C15.0326 4.34226 14.6087 4.16667 14.1666 4.16667H12.5M7.49996 4.16667C7.49996 5.08714 8.24615 5.83333 9.16663 5.83333H10.8333C11.7538 5.83333 12.5 5.08714 12.5 4.16667M7.49996 4.16667C7.49996 3.24619 8.24615 2.5 9.16663 2.5H10.8333C11.7538 2.5 12.5 3.24619 12.5 4.16667M7.49996 14.1667V10M9.99996 14.1667V13.3333M12.5 14.1667V11.6667" stroke="currentColor" stroke-width="1.25" stroke-linecap="round" stroke-linejoin="round"/>
</svg>
