<svg width="16" height="16" viewBox="0 0 16 16" fill="none" xmlns="http://www.w3.org/2000/svg">
<path d="M1.67383 4.32061V3.05353H4.04183V13.1646H2.55703V4.32061H1.67383Z" fill="#573792"/>
<path d="M9.34253 13.1646H5.11853V10.1185C5.11853 8.41624 5.28493 8.14747 6.18093 7.59712L7.32013 6.90598C7.75533 6.6372 7.85773 6.48362 7.85773 6.01006V5.01175C7.85773 4.38461 7.76813 4.24382 7.24333 4.24382C6.70573 4.24382 6.60333 4.3974 6.60333 5.05015V6.30443H5.16973V5.05015C5.16973 3.18151 5.52813 2.92554 7.26893 2.92554C9.00973 2.92554 9.34253 3.18151 9.34253 5.01175V6.07405C9.34253 7.13636 9.16333 7.46913 8.33133 7.95549L7.10253 8.68502C6.68013 8.941 6.60333 9.10738 6.60333 9.65773V11.8591H7.84493V9.41455H9.34253V13.1646Z" fill="#573792"/>
<path d="M10.2908 9.22257H11.6988V11.1808C11.6988 11.8207 11.8268 11.9743 12.3004 11.9743C12.838 11.9743 12.9404 11.7823 12.9404 11.1808V9.45295C12.9404 8.59543 12.9148 8.35225 12.3388 8.35225H11.494V7.02117H12.3388C12.8764 7.02117 12.9404 6.85478 12.9404 6.35563V5.03735C12.9404 4.37181 12.8252 4.24382 12.326 4.24382C11.7116 4.24382 11.6988 4.4358 11.6988 5.03735V6.22764H10.2908V5.03735C10.2908 3.18151 10.662 2.92554 12.3388 2.92554C14.054 2.92554 14.4252 3.19431 14.4252 5.01175V6.27884C14.4252 7.34114 13.9132 7.55872 13.5164 7.66111V7.71231C14.054 7.8275 14.4252 8.12187 14.4252 9.44015V11.2064C14.4252 13.0238 14.054 13.2926 12.3388 13.2926C10.662 13.2926 10.2908 13.0366 10.2908 11.1808V9.22257Z" fill="#573792"/>
</svg>
