<svg width="18" height="17" viewBox="0 0 18 17" fill="none" xmlns="http://www.w3.org/2000/svg">
<path d="M2.57617 4.6548V3.36779H4.98119V13.6379H3.47318V4.6548H2.57617Z" fill="#775DA7"/>
<path d="M10.3647 13.6379H6.07472V10.5438C6.07472 8.81483 6.24372 8.54183 7.15372 7.98282L8.31073 7.28082C8.75273 7.00782 8.85673 6.85182 8.85673 6.37081V5.35681C8.85673 4.7198 8.76573 4.5768 8.23273 4.5768C7.68673 4.5768 7.58273 4.7328 7.58273 5.39581V6.66981H6.12672V5.39581C6.12672 3.49779 6.49072 3.23779 8.25873 3.23779C10.0267 3.23779 10.3647 3.49779 10.3647 5.35681V6.43581C10.3647 7.51482 10.1827 7.85282 9.33774 8.34682L8.08973 9.08783C7.66073 9.34783 7.58273 9.51683 7.58273 10.0758V12.3118H8.84373V9.82883H10.3647V13.6379Z" fill="#775DA7"/>
<path d="M11.3279 9.63383H12.7579V11.6228C12.7579 12.2728 12.8879 12.4289 13.3689 12.4289C13.9149 12.4289 14.0189 12.2338 14.0189 11.6228V9.86783C14.0189 8.99683 13.9929 8.74983 13.4079 8.74983H12.5499V7.39782H13.4079C13.9539 7.39782 14.0189 7.22882 14.0189 6.72181V5.38281C14.0189 4.7068 13.9019 4.5768 13.3949 4.5768C12.7709 4.5768 12.7579 4.7718 12.7579 5.38281V6.59181H11.3279V5.38281C11.3279 3.49779 11.7049 3.23779 13.4079 3.23779C15.1499 3.23779 15.5269 3.51079 15.5269 5.35681V6.64381C15.5269 7.72282 15.0069 7.94382 14.6039 8.04782V8.09982C15.1499 8.21682 15.5269 8.51583 15.5269 9.85483V11.6488C15.5269 13.4949 15.1499 13.7679 13.4079 13.7679C11.7049 13.7679 11.3279 13.5079 11.3279 11.6228V9.63383Z" fill="#775DA7"/>
</svg>
