<svg width="33" height="32" viewBox="0 0 33 32" fill="none" xmlns="http://www.w3.org/2000/svg">
	<g clip-path="url(#clip0_3729_114045)">
		<path d="M31.7283 7.5625H26.1038C25.586 7.5625 25.1663 7.98223 25.1663 8.49996C25.1663 9.01769 25.586 9.43743 26.1038 9.43743H29.4653L17.6666 21.2362L10.8297 14.3993C10.4637 14.0332 9.87008 14.0332 9.50397 14.3993L0.966427 22.8365C0.600316 23.2026 0.55113 23.7961 0.917241 24.1622C1.28329 24.5283 1.92608 24.5283 2.29219 24.1622L10.1669 16.3879L17.0037 23.2248C17.3698 23.5909 17.9634 23.5909 18.3295 23.2248L30.7911 10.7632V14.1247C30.7911 14.6425 31.2108 15.0622 31.7285 15.0622C32.2463 15.0622 32.666 14.6425 32.666 14.1247V8.50028C32.6663 7.96867 32.23 7.5625 31.7283 7.5625Z" fill="currentColor" />
	</g>
	<defs>
		<clipPath id="clip0_3729_114045">
			<rect width="32" height="32" fill="white" transform="translate(0.666016)" />
		</clipPath>
	</defs>
</svg>
