<svg width="16" height="17" viewBox="0 0 16 17" fill="none" xmlns="http://www.w3.org/2000/svg">
<path d="M15.5312 4.17236H12.7189C12.46 4.17236 12.2501 4.38223 12.2501 4.64109C12.2501 4.89996 12.46 5.10983 12.7189 5.10983H14.3996L8.50028 11.0092L5.08186 7.59076C4.89883 7.40771 4.60203 7.40771 4.41898 7.59076L0.150206 11.8093C-0.0328498 11.9924 -0.0574426 12.2892 0.125613 12.4722C0.308637 12.6553 0.630031 12.6553 0.813086 12.4722L4.75043 8.58507L8.16886 12.0035C8.35188 12.1866 8.64869 12.1866 8.83174 12.0035L15.0625 5.77271V7.45349C15.0625 7.71235 15.2724 7.92222 15.5313 7.92222C15.7901 7.92222 16 7.71235 16 7.45349V4.64125C16.0001 4.37545 15.782 4.17236 15.5312 4.17236Z" fill="#0B85DE"/>
</svg>
