<svg width="20" height="20" viewBox="0 0 20 20" fill="none" xmlns="http://www.w3.org/2000/svg">
	<path d="M2.5 13.3333V8.75C2.5 8.19747 2.71949 7.66756 3.11019 7.27686C3.50089 6.88616 4.0308 6.66667 4.58333 6.66667C5.13587 6.66667 5.66577 6.88616 6.05647 7.27686C6.44717 7.66756 6.66667 8.19747 6.66667 8.75V13.3333M6.66667 10H2.5M10 5V15M15.8333 10C16.2754 10 16.6993 9.82441 17.0118 9.51184C17.3244 9.19928 17.5 8.77536 17.5 8.33333C17.5 7.89131 17.3244 7.46738 17.0118 7.15482C16.6993 6.84226 16.2754 6.66667 15.8333 6.66667H13.3333V13.3333H15.8333C16.2754 13.3333 16.6993 13.1577 17.0118 12.8452C17.3244 12.5326 17.5 12.1087 17.5 11.6667C17.5 11.2246 17.3244 10.8007 17.0118 10.4882C16.6993 10.1756 16.2754 10 15.8333 10ZM15.8333 10H13.3333" stroke="#64748B" stroke-width="1.25" stroke-linecap="round" stroke-linejoin="round" />
</svg>
