<svg width="16" height="17" viewBox="0 0 16 17" fill="none" xmlns="http://www.w3.org/2000/svg">
	<path fill-rule="evenodd" clip-rule="evenodd" d="M12.1839 6.76807C12.4601 6.76915 12.6831 6.99389 12.682 7.27003C12.6777 8.35576 12.3747 9.44213 11.7678 10.3912L11.0401 9.66342C11.4656 8.92461 11.6787 8.09653 11.682 7.2661C11.6831 6.98996 11.9078 6.76699 12.1839 6.76807ZM9.27349 11.4324C7.42469 12.5025 5.01824 12.2466 3.43619 10.6645C3.10119 10.3295 2.82801 9.95578 2.61087 9.55788C2.47858 9.31548 2.17485 9.22622 1.93245 9.3585C1.69005 9.49079 1.60079 9.79452 1.73307 10.0369C1.99326 10.5137 2.32275 10.9653 2.72908 11.3716C4.70392 13.3465 7.74299 13.6092 10.001 12.1599L9.27349 11.4324Z" fill="currentColor" />
	<path d="M1.52344 7.16317C1.54477 5.82717 2.06344 4.49784 3.08277 3.4785C5.16544 1.39584 8.54277 1.39584 10.6254 3.4785C10.9961 3.84917 11.2974 4.26184 11.5361 4.69917" stroke="currentColor" stroke-linecap="round" stroke-linejoin="round" />
	<path d="M9.48438 4.69767H11.841V2.34033" stroke="currentColor" stroke-linecap="round" stroke-linejoin="round" />
	<path d="M4.21604 9.79932H1.85938V12.1567" stroke="currentColor" stroke-linecap="round" stroke-linejoin="round" />
	<path d="M13.8512 10.0903L9.69531 14.2462" stroke="currentColor" stroke-linecap="round" stroke-linejoin="round" />
	<path d="M9.69531 10.0903L13.8512 14.2462" stroke="currentColor" stroke-linecap="round" stroke-linejoin="round" />
</svg>
