<svg width="33" height="32" viewBox="0 0 33 32" fill="none" xmlns="http://www.w3.org/2000/svg">
	<path fill-rule="evenodd" clip-rule="evenodd" d="M24.7019 12.7539C25.2541 12.7561 25.7001 13.2056 25.6979 13.7578C25.6894 15.9279 25.0841 18.0993 23.872 19.9966L22.4163 18.5409C23.2659 17.0642 23.6914 15.4094 23.6979 13.75C23.7001 13.1977 24.1496 12.7517 24.7019 12.7539ZM18.8847 22.0804C15.1866 24.2231 10.3715 23.712 7.20636 20.5468C6.53636 19.8768 5.99001 19.1293 5.55572 18.3335C5.29115 17.8487 4.68368 17.6702 4.19888 17.9348C3.71409 18.1993 3.53556 18.8068 3.80013 19.2916C4.32051 20.2452 4.97949 21.1484 5.79215 21.961C9.74286 25.9117 15.8232 26.4365 20.3396 23.5353L18.8847 22.0804Z" fill="currentColor" />
	<path d="M3.38086 13.5402C3.42353 10.8682 4.46086 8.20954 6.49953 6.17088C10.6649 2.00554 17.4195 2.00554 21.5849 6.17088C22.3262 6.91221 22.9289 7.73754 23.4062 8.61221" stroke="currentColor" stroke-width="2" stroke-linecap="round" stroke-linejoin="round" />
	<path d="M19.3105 8.6131H24.0239V3.89844" stroke="currentColor" stroke-width="2" stroke-linecap="round" stroke-linejoin="round" />
	<path d="M8.77388 18.8145H4.06055V23.5291" stroke="currentColor" stroke-width="2" stroke-linecap="round" stroke-linejoin="round" />
	<path d="M28.0441 19.3945L19.7324 27.7062" stroke="currentColor" stroke-width="2" stroke-linecap="round" stroke-linejoin="round" />
	<path d="M19.7324 19.3945L28.0441 27.7062" stroke="currentColor" stroke-width="2" stroke-linecap="round" stroke-linejoin="round" />
</svg>
