<svg width="20" height="21" viewBox="0 0 20 21" fill="none" xmlns="http://www.w3.org/2000/svg">
	<path d="M5 15.9414L15 5.94141M13.3333 15.1081C13.3333 15.3291 13.4211 15.541 13.5774 15.6973C13.7337 15.8536 13.9457 15.9414 14.1667 15.9414C14.3877 15.9414 14.5996 15.8536 14.7559 15.6973C14.9122 15.541 15 15.3291 15 15.1081C15 14.8871 14.9122 14.6751 14.7559 14.5188C14.5996 14.3625 14.3877 14.2747 14.1667 14.2747C13.9457 14.2747 13.7337 14.3625 13.5774 14.5188C13.4211 14.6751 13.3333 14.8871 13.3333 15.1081ZM5 6.77474C5 6.99575 5.0878 7.20771 5.24408 7.364C5.40036 7.52028 5.61232 7.60807 5.83333 7.60807C6.05435 7.60807 6.26631 7.52028 6.42259 7.364C6.57887 7.20771 6.66667 6.99575 6.66667 6.77474C6.66667 6.55373 6.57887 6.34176 6.42259 6.18548C6.26631 6.0292 6.05435 5.94141 5.83333 5.94141C5.61232 5.94141 5.40036 6.0292 5.24408 6.18548C5.0878 6.34176 5 6.55373 5 6.77474Z" stroke="#475569" stroke-width="1.25" stroke-linecap="round" stroke-linejoin="round" />
</svg>
