<svg width="20" height="20" viewBox="0 0 20 20" fill="none" xmlns="http://www.w3.org/2000/svg">
	<path d="M17.5002 14.5846C17.5002 13.434 16.5674 12.5013 15.4168 12.5013C14.2662 12.5013 13.3335 13.434 13.3335 14.5846C13.3335 15.7352 14.2662 16.668 15.4168 16.668C16.5674 16.668 17.5002 15.7352 17.5002 14.5846Z" stroke="#94A3B8" stroke-width="1.25" stroke-linecap="round" stroke-linejoin="round" />
	<path d="M6.66666 10.0007C6.66666 8.85006 5.73392 7.91732 4.58333 7.91732C3.43274 7.91732 2.5 8.85006 2.5 10.0007C2.5 11.1512 3.43274 12.084 4.58333 12.084C5.73392 12.084 6.66666 11.1512 6.66666 10.0007Z" stroke="#94A3B8" stroke-width="1.25" stroke-linecap="round" stroke-linejoin="round" />
	<path d="M17.5002 5.41667C17.5002 4.26608 16.5674 3.33334 15.4168 3.33334C14.2662 3.33334 13.3335 4.26608 13.3335 5.41667C13.3335 6.56726 14.2662 7.5 15.4168 7.5C16.5674 7.5 17.5002 6.56726 17.5002 5.41667Z" stroke="#94A3B8" stroke-width="1.25" stroke-linecap="round" stroke-linejoin="round" />
	<path d="M13.3333 5.41797H11.6667C10.7462 5.41797 10 6.16416 10 7.08464V12.9179C10 13.8384 10.7462 14.5846 11.6667 14.5846H13.3333" stroke="#94A3B8" stroke-width="1.25" stroke-linecap="round" stroke-linejoin="round" />
	<path d="M6.6665 10H9.99983" stroke="#94A3B8" stroke-width="1.25" stroke-linecap="round" stroke-linejoin="round" />
</svg>
