<svg width="16" height="17" viewBox="0 0 16 17" fill="none" xmlns="http://www.w3.org/2000/svg">
	<path d="M8 11.167V11.1737M8 9.16704C8.29983 9.16794 8.59122 9.06776 8.8271 8.88266C9.06299 8.69757 9.2296 8.43837 9.30003 8.14693C9.37046 7.85548 9.34061 7.5488 9.21529 7.27642C9.08996 7.00403 8.87649 6.78183 8.60933 6.64571C8.34412 6.50985 8.04074 6.46773 7.74854 6.52619C7.45634 6.58465 7.19252 6.74026 7 6.96771M13.25 4.68038C13.7167 4.94571 14.0033 5.44238 14 5.97904V10.835C14 11.3744 13.7047 11.8717 13.228 12.1337L8.728 14.9804C8.5049 15.1029 8.25451 15.1671 8 15.1671C7.74549 15.1671 7.4951 15.1029 7.272 14.9804L2.772 12.1337C2.53878 12.0063 2.34408 11.8185 2.20827 11.59C2.07247 11.3616 2.00053 11.1008 2 10.835V5.97838C2 5.43904 2.29533 4.94238 2.772 4.68038L7.272 2.02704C7.50169 1.9004 7.75971 1.83398 8.022 1.83398C8.28429 1.83398 8.54231 1.9004 8.772 2.02704L13.272 4.68038H13.25Z" stroke="#64748B" stroke-linecap="round" stroke-linejoin="round" />
</svg>
