<svg width="18" height="17" viewBox="0 0 18 17" fill="none" xmlns="http://www.w3.org/2000/svg">
<path d="M5.57628 13.6886H4.08127V11.4006H2.82027V13.6886H1.36426V5.44659C1.36426 3.56158 1.75426 3.28857 3.41827 3.28857C5.16028 3.28857 5.57628 3.58758 5.57628 5.44659V13.6886ZM3.44427 4.62758C2.91127 4.62758 2.82027 4.74458 2.82027 5.44659V10.1786H4.08127V5.44659C4.08127 4.74458 3.97727 4.62758 3.44427 4.62758Z" fill="#775DA7"/>
<path d="M9.98869 7.7346C10.5347 7.8646 10.9117 8.1636 10.9117 9.41161V11.5826C10.9117 13.4156 10.5347 13.6886 8.76669 13.6886H6.63467V3.41857H8.76669C10.5347 3.41857 10.9117 3.67858 10.9117 5.51159V6.27859C10.9117 7.3446 10.3397 7.6306 9.98869 7.6826V7.7346ZM8.12968 8.31961V12.4016H8.76669C9.31269 12.4016 9.40369 12.2716 9.40369 11.5826V9.07361C9.40369 8.50161 9.32569 8.31961 8.80569 8.31961H8.12968ZM8.12968 4.71858V7.1366H8.80569C9.28669 7.1366 9.40369 6.9676 9.40369 6.47359V5.51159C9.40369 4.87458 9.33869 4.71858 8.76669 4.71858H8.12968Z" fill="#775DA7"/>
<path d="M15.9983 7.7736H14.5553V5.44659C14.5553 4.75758 14.4643 4.62758 13.9313 4.62758C13.3853 4.62758 13.2943 4.77058 13.2943 5.44659V11.6476C13.2943 12.3626 13.3853 12.4926 13.9313 12.4926C14.4643 12.4926 14.5553 12.3626 14.5553 11.6476V9.26861H15.9983V11.6476C15.9983 13.5716 15.6083 13.8186 13.9313 13.8186C12.1633 13.8186 11.7993 13.5456 11.7993 11.6476V5.44659C11.7993 3.56158 12.2283 3.28857 13.9313 3.28857C15.6083 3.28857 15.9983 3.54858 15.9983 5.44659V7.7736Z" fill="#775DA7"/>
</svg>
