<svg width="20" height="20" viewBox="0 0 20 20" fill="none" xmlns="http://www.w3.org/2000/svg">
<path d="M4.11401 4.97852C3.22901 5.88685 2.58651 7.02852 2.27734 8.30185" stroke="#94A3B8" stroke-width="1.25" stroke-linecap="round" stroke-linejoin="round"/>
<path d="M7.74121 17.039C8.23371 17.1457 8.74454 17.2049 9.26954 17.2049C10.0129 17.2049 10.7304 17.0915 11.4054 16.8824" stroke="#94A3B8" stroke-width="1.25" stroke-linecap="round" stroke-linejoin="round"/>
<path d="M2.27832 11.7051C2.58749 12.9784 3.22999 14.1201 4.11499 15.0284" stroke="#94A3B8" stroke-width="1.25" stroke-linecap="round" stroke-linejoin="round"/>
<path d="M16.1705 12.0566C15.8213 13.2333 15.1763 14.2808 14.3271 15.1216" stroke="#94A3B8" stroke-width="1.25" stroke-linecap="round" stroke-linejoin="round"/>
<path d="M14.3271 4.88086C15.1763 5.72169 15.8205 6.76919 16.1705 7.94586" stroke="#94A3B8" stroke-width="1.25" stroke-linecap="round" stroke-linejoin="round"/>
<path d="M7.74121 2.96422C8.23371 2.85755 8.74454 2.79839 9.26954 2.79839C10.0129 2.79839 10.7304 2.91172 11.4054 3.12089" stroke="#94A3B8" stroke-width="1.25" stroke-linecap="round" stroke-linejoin="round"/>
<path d="M17.9451 8.52621C18.7587 9.3398 18.7587 10.6589 17.9451 11.4725C17.1315 12.2861 15.8125 12.2861 14.9989 11.4725C14.1853 10.6589 14.1853 9.3398 14.9989 8.52621C15.8125 7.71262 17.1316 7.71262 17.9451 8.52621" stroke="#94A3B8" stroke-width="1.25" stroke-linecap="round" stroke-linejoin="round"/>
<path d="M7.3553 14.6414C8.16889 15.455 8.16889 16.7741 7.3553 17.5877C6.54171 18.4013 5.22261 18.4013 4.40902 17.5877C3.59543 16.7741 3.59543 15.455 4.40902 14.6414C5.22262 13.8279 6.54171 13.8279 7.3553 14.6414" stroke="#94A3B8" stroke-width="1.25" stroke-linecap="round" stroke-linejoin="round"/>
<path d="M7.3553 2.41293C8.16889 3.22652 8.16889 4.54561 7.3553 5.3592C6.54171 6.1728 5.22261 6.1728 4.40902 5.3592C3.59543 4.54561 3.59543 3.22652 4.40902 2.41293C5.22262 1.59934 6.54171 1.59934 7.3553 2.41293" stroke="#94A3B8" stroke-width="1.25" stroke-linecap="round" stroke-linejoin="round"/>
</svg>
