<svg width="20" height="20" viewBox="0 0 20 20" fill="none" xmlns="http://www.w3.org/2000/svg">
	<path d="M6.99949 10.0004L8.99949 12.0004L12.9995 8.00042M2.99936 5.20046C2.99936 4.61698 3.23115 4.05741 3.64373 3.64483C4.05631 3.23225 4.61589 3.00046 5.19936 3.00046H6.19936C6.78026 3.00013 7.33745 2.77006 7.74936 2.36046L8.44936 1.66046C8.65381 1.45486 8.89688 1.2917 9.1646 1.18037C9.43233 1.06903 9.71941 1.01172 10.0094 1.01172C10.2993 1.01172 10.5864 1.06903 10.8541 1.18037C11.1218 1.2917 11.3649 1.45486 11.5694 1.66046L12.2694 2.36046C12.6814 2.77046 13.2394 3.00046 13.8194 3.00046H14.8194C15.4028 3.00046 15.9624 3.23225 16.375 3.64483C16.7876 4.05741 17.0194 4.61698 17.0194 5.20046V6.20046C17.0194 6.78046 17.2494 7.33846 17.6594 7.75046L18.3594 8.45046C18.565 8.65491 18.7281 8.89798 18.8395 9.1657C18.9508 9.43342 19.0081 9.72051 19.0081 10.0105C19.0081 10.3004 18.9508 10.5875 18.8395 10.8552C18.7281 11.1229 18.565 11.366 18.3594 11.5705L17.6594 12.2705C17.2498 12.6824 17.0197 13.2396 17.0194 13.8205V14.8205C17.0194 15.4039 16.7876 15.9635 16.375 16.3761C15.9624 16.7887 15.4028 17.0205 14.8194 17.0205H13.8194C13.2385 17.0208 12.6813 17.2509 12.2694 17.6605L11.5694 18.3605C11.3649 18.5661 11.1218 18.7292 10.8541 18.8406C10.5864 18.9519 10.2993 19.0092 10.0094 19.0092C9.71941 19.0092 9.43233 18.9519 9.1646 18.8406C8.89688 18.7292 8.65381 18.5661 8.44936 18.3605L7.74936 17.6605C7.33745 17.2509 6.78026 17.0208 6.19936 17.0205H5.19936C4.61589 17.0205 4.05631 16.7887 3.64373 16.3761C3.23115 15.9635 2.99936 15.4039 2.99936 14.8205V13.8205C2.99903 13.2396 2.76896 12.6824 2.35936 12.2705L1.65936 11.5705C1.45376 11.366 1.2906 11.1229 1.17927 10.8552C1.06794 10.5875 1.01062 10.3004 1.01062 10.0105C1.01062 9.72051 1.06794 9.43342 1.17927 9.1657C1.2906 8.89798 1.45376 8.65491 1.65936 8.45046L2.35936 7.75046C2.76896 7.33855 2.99903 6.78136 2.99936 6.20046V5.20046Z" stroke="#40BF42" stroke-width="1.5" stroke-linecap="round" stroke-linejoin="round" />
</svg>
