<svg width="16" height="16" viewBox="0 0 16 16" fill="none" xmlns="http://www.w3.org/2000/svg">
	<path d="M14.4864 11.9999L9.15304 2.66653C9.03675 2.46133 8.86811 2.29066 8.66433 2.17191C8.46054 2.05316 8.2289 1.9906 7.99304 1.9906C7.75718 1.9906 7.52555 2.05316 7.32176 2.17191C7.11797 2.29066 6.94933 2.46133 6.83304 2.66653L1.49971 11.9999C1.38216 12.2034 1.32053 12.4345 1.32105 12.6695C1.32157 12.9046 1.38423 13.1354 1.50267 13.3384C1.62112 13.5415 1.79114 13.7096 1.99551 13.8258C2.19987 13.9419 2.43131 14.002 2.66638 13.9999H13.333C13.567 13.9996 13.7967 13.9378 13.9992 13.8207C14.2017 13.7036 14.3699 13.5353 14.4867 13.3326C14.6036 13.13 14.6651 12.9001 14.665 12.6662C14.6649 12.4323 14.6033 12.2025 14.4864 11.9999Z" fill="currentColor" />
	<path d="M8 6V8.66667" stroke="white" stroke-linecap="round" stroke-linejoin="round" />
	<path d="M8 11.3344H8.00667" stroke="white" stroke-linecap="round" stroke-linejoin="round" />
</svg>
