<svg width="20" height="19" viewBox="0 0 20 19" fill="none" xmlns="http://www.w3.org/2000/svg">
<path d="M14.553 11.666V12.4243" stroke="#4C357A" stroke-width="1.3" stroke-linecap="round" stroke-linejoin="round"/>
<path d="M14.553 15.4575V16.2159" stroke="#4C357A" stroke-width="1.3" stroke-linecap="round" stroke-linejoin="round"/>
<path d="M12.5789 12.8029L13.2614 13.182" stroke="#4C357A" stroke-width="1.3" stroke-linecap="round" stroke-linejoin="round"/>
<path d="M15.8367 14.7003L16.5192 15.0795" stroke="#4C357A" stroke-width="1.3" stroke-linecap="round" stroke-linejoin="round"/>
<path d="M12.5789 15.0795L13.2614 14.7003" stroke="#4C357A" stroke-width="1.3" stroke-linecap="round" stroke-linejoin="round"/>
<path d="M15.8367 13.182L16.5192 12.8029" stroke="#4C357A" stroke-width="1.3" stroke-linecap="round" stroke-linejoin="round"/>
<path d="M15.6115 12.8798C16.2182 13.4865 16.2182 14.3965 15.6115 15.0031C15.0049 15.6098 14.0949 15.6098 13.4882 15.0031C12.8815 14.3965 12.8815 13.4865 13.4882 12.8798C14.0949 12.2731 15.0049 12.2731 15.6115 12.8798" stroke="#4C357A" stroke-width="1.3" stroke-linecap="round" stroke-linejoin="round"/>
<path d="M12.2719 4.23373C13.561 5.5229 13.561 7.5704 12.2719 8.78373C10.9827 9.99706 8.93519 10.0729 7.72186 8.78373C6.50852 7.49456 6.43269 5.44706 7.72186 4.23373C9.01102 3.0204 10.9827 3.0204 12.2719 4.23373" stroke="#4C357A" stroke-width="1.3" stroke-linecap="round" stroke-linejoin="round"/>
<path d="M3.93164 15.4574C3.93164 13.5616 5.44831 12.0449 7.34414 12.0449H9.31581" stroke="#4C357A" stroke-width="1.3" stroke-linecap="round" stroke-linejoin="round"/>
</svg>
