<svg width="48" height="48" viewBox="0 0 48 48" fill="none" xmlns="http://www.w3.org/2000/svg">
<path d="M41.5847 19.0464C43.1647 20.6264 43.1647 23.1882 41.5847 24.7683C40.0046 26.3483 37.4428 26.3483 35.8628 24.7683C34.2827 23.1882 34.2827 20.6264 35.8628 19.0464C37.4428 17.4663 40.0046 17.4663 41.5847 19.0464" stroke="#399CE4" stroke-width="2.5" stroke-linecap="round" stroke-linejoin="round"/>
<path d="M28.4048 11.8247C30.8378 14.2577 30.8378 18.2023 28.4048 20.6353C25.9719 23.0682 22.0272 23.0682 19.5943 20.6353C17.1613 18.2023 17.1613 14.2577 19.5943 11.8247C22.0272 9.39176 25.9718 9.39176 28.4048 11.8247" stroke="#399CE4" stroke-width="2.5" stroke-linecap="round" stroke-linejoin="round"/>
<path d="M12.1374 19.0464C13.7175 20.6264 13.7175 23.1882 12.1374 24.7683C10.5574 26.3483 7.99558 26.3483 6.41552 24.7683C4.83545 23.1882 4.83545 20.6264 6.41552 19.0464C7.99558 17.4663 10.5574 17.4663 12.1374 19.0464" stroke="#399CE4" stroke-width="2.5" stroke-linecap="round" stroke-linejoin="round"/>
<path d="M46.0004 38.0006V35.8086C46.0004 33.0466 43.7624 30.8086 41.0004 30.8086H39.3984" stroke="#399CE4" stroke-width="2.5" stroke-linecap="round" stroke-linejoin="round"/>
<path d="M2 38.0006V35.8086C2 33.0466 4.238 30.8086 7 30.8086H8.602" stroke="#399CE4" stroke-width="2.5" stroke-linecap="round" stroke-linejoin="round"/>
<path d="M34.6783 38.0008V34.7988C34.6783 30.9328 31.5443 27.7988 27.6783 27.7988H20.3203C16.4543 27.7988 13.3203 30.9328 13.3203 34.7988V38.0008" stroke="#399CE4" stroke-width="2.5" stroke-linecap="round" stroke-linejoin="round"/>
</svg>
