<svg width="20" height="20" viewBox="0 0 20 20" fill="none" xmlns="http://www.w3.org/2000/svg">
	<path d="M9.99723 1.875C7.58756 1.875 5.62223 3.84033 5.62223 6.25C5.62223 7.47294 6.18728 8.52316 7.0085 9.311C7.10948 9.40787 7.13756 9.55996 7.07104 9.68306L5.87613 11.8945C5.79069 11.8823 5.71012 11.875 5.62223 11.875C4.5944 11.875 3.74723 12.7222 3.74723 13.75C3.74723 14.7778 4.5944 15.625 5.62223 15.625C6.65006 15.625 7.49723 14.7778 7.49723 13.75C7.49723 13.252 7.29215 12.7979 6.96988 12.4609L8.48014 9.65619C8.63154 9.37501 8.54419 9.0248 8.27848 8.84766C7.43619 8.28857 6.87223 7.34131 6.87223 6.25C6.87223 4.5166 8.26383 3.125 9.99723 3.125C11.7306 3.125 13.1222 4.5166 13.1222 6.25C13.1222 6.39878 13.1122 6.54394 13.0925 6.68564C13.0454 7.02492 13.2052 7.38002 13.5268 7.49794C13.8528 7.61747 14.2183 7.4487 14.2867 7.10829C14.3427 6.82984 14.3722 6.54192 14.3722 6.25C14.3722 3.84033 12.4069 1.875 9.99723 1.875ZM9.99723 4.375C8.9694 4.375 8.12223 5.22217 8.12223 6.25C8.12223 7.27783 8.9694 8.125 9.99723 8.125C10.0851 8.125 10.1657 8.11768 10.2511 8.10547L11.9699 10.8398C12.1433 11.1217 12.5107 11.2124 12.7953 11.0437L12.8097 11.0352C13.2687 10.769 13.8009 10.625 14.3722 10.625C16.1056 10.625 17.4972 12.0166 17.4972 13.75C17.4972 15.4834 16.1056 16.875 14.3722 16.875C13.6653 16.875 13.0204 16.6465 12.5008 16.2561C12.228 16.0511 11.8412 16.0208 11.5844 16.2455C11.3236 16.4737 11.2971 16.875 11.5627 17.0977C12.3237 17.7359 13.3064 18.125 14.3722 18.125C16.7819 18.125 18.7472 16.1597 18.7472 13.75C18.7472 11.3403 16.7819 9.375 14.3722 9.375C13.8846 9.375 13.4512 9.53764 13.0231 9.71047C12.8883 9.76489 12.7342 9.71487 12.6572 9.59154L11.3644 7.51953C11.6769 7.18506 11.8722 6.73828 11.8722 6.25C11.8722 5.22217 11.0251 4.375 9.99723 4.375ZM9.99723 5.625C10.3488 5.625 10.6222 5.89844 10.6222 6.25C10.6222 6.60156 10.3488 6.875 9.99723 6.875C9.64567 6.875 9.37223 6.60156 9.37223 6.25C9.37223 5.89844 9.64567 5.625 9.99723 5.625ZM4.99839 10.0562C4.944 9.71351 4.6181 9.47714 4.28774 9.58313C3.99565 9.67683 3.7088 9.80227 3.43473 9.96094C1.34977 11.1646 0.629553 13.8525 1.83317 15.9375C3.03678 18.0225 5.72233 18.7427 7.80973 17.5391C8.92366 16.8944 9.55936 15.8034 9.79615 14.6289C9.82545 14.4836 9.95056 14.375 10.0988 14.375H12.6144C12.8756 15.0977 13.5641 15.625 14.3722 15.625C15.4001 15.625 16.2472 14.7778 16.2472 13.75C16.2472 12.7222 15.4001 11.875 14.3722 11.875C13.5641 11.875 12.8756 12.4023 12.6144 13.125H9.37223C9.02705 13.125 8.74723 13.4048 8.74723 13.75C8.74723 14.8291 8.19059 15.8838 7.18473 16.4648C5.68326 17.3315 3.77408 16.814 2.90738 15.3125C2.04069 13.811 2.55826 11.9019 4.05973 11.0352C4.20439 10.9511 4.35184 10.8815 4.50166 10.8245C4.82057 10.7034 5.05187 10.3931 4.99839 10.0562ZM5.62223 13.125C5.97379 13.125 6.24723 13.3984 6.24723 13.75C6.24723 14.1016 5.97379 14.375 5.62223 14.375C5.27067 14.375 4.99723 14.1016 4.99723 13.75C4.99723 13.3984 5.27067 13.125 5.62223 13.125ZM14.3722 13.125C14.7238 13.125 14.9972 13.3984 14.9972 13.75C14.9972 14.1016 14.7238 14.375 14.3722 14.375C14.0207 14.375 13.7472 14.1016 13.7472 13.75C13.7472 13.3984 14.0207 13.125 14.3722 13.125Z" fill="#7547DB" />
</svg>
