<svg width="1em" height="1em" viewBox="0 0 20 20" fill="none" xmlns="http://www.w3.org/2000/svg">
	<path fill-rule="evenodd" clip-rule="evenodd" d="M2.5 3.33333C2.5 2.8731 2.8731 2.5 3.33333 2.5H7.5C7.96024 2.5 8.33333 2.8731 8.33333 3.33333V7.5C8.33333 7.96024 7.96024 8.33333 7.5 8.33333H3.33333C2.8731 8.33333 2.5 7.96024 2.5 7.5V3.33333Z" stroke="white" stroke-width="1.25" stroke-linecap="round" stroke-linejoin="round" />
	<path fill-rule="evenodd" clip-rule="evenodd" d="M11.6641 3.33333C11.6641 2.8731 12.0372 2.5 12.4974 2.5H16.6641C17.1243 2.5 17.4974 2.8731 17.4974 3.33333V7.5C17.4974 7.96024 17.1243 8.33333 16.6641 8.33333H12.4974C12.0372 8.33333 11.6641 7.96024 11.6641 7.5V3.33333Z" stroke="white" stroke-width="1.25" stroke-linecap="round" stroke-linejoin="round" />
	<path fill-rule="evenodd" clip-rule="evenodd" d="M2.5 12.4974C2.5 12.0372 2.8731 11.6641 3.33333 11.6641H7.5C7.96024 11.6641 8.33333 12.0372 8.33333 12.4974V16.6641C8.33333 17.1243 7.96024 17.4974 7.5 17.4974H3.33333C2.8731 17.4974 2.5 17.1243 2.5 16.6641V12.4974Z" stroke="white" stroke-width="1.25" stroke-linecap="round" stroke-linejoin="round" />
	<path fill-rule="evenodd" clip-rule="evenodd" d="M11.6641 12.4974C11.6641 12.0372 12.0372 11.6641 12.4974 11.6641H16.6641C17.1243 11.6641 17.4974 12.0372 17.4974 12.4974V16.6641C17.4974 17.1243 17.1243 17.4974 16.6641 17.4974H12.4974C12.0372 17.4974 11.6641 17.1243 11.6641 16.6641V12.4974Z" stroke="white" stroke-width="1.25" stroke-linecap="round" stroke-linejoin="round" />
</svg>
