<svg width="1em" height="1em" viewBox="0 0 20 20" fill="none" xmlns="http://www.w3.org/2000/svg">
	<path d="M15 5.82812L14.1666 7.49479L13.0558 8.25896" stroke="currentColor" stroke-width="1.25" stroke-linecap="round" stroke-linejoin="round" />
	<path d="M4.16663 9.99479H6.75829" stroke="currentColor" stroke-width="1.25" stroke-linecap="round" stroke-linejoin="round" />
	<path d="M13.2417 9.99479H15.8334" stroke="currentColor" stroke-width="1.25" stroke-linecap="round" stroke-linejoin="round" />
	<path d="M5 2.49609H4.16667C3.24583 2.49609 2.5 3.24193 2.5 4.16276V4.99609" stroke="currentColor" stroke-width="1.25" stroke-linecap="round" stroke-linejoin="round" />
	<path d="M15 17.4961H15.8333C16.7542 17.4961 17.5 16.7503 17.5 15.8294V14.9961" stroke="currentColor" stroke-width="1.25" stroke-linecap="round" stroke-linejoin="round" />
	<path d="M2.5 14.9961V15.8294C2.5 16.7503 3.24583 17.4961 4.16667 17.4961H5" stroke="currentColor" stroke-width="1.25" stroke-linecap="round" stroke-linejoin="round" />
	<path d="M17.5 4.99609V4.16276C17.5 3.24193 16.7542 2.49609 15.8333 2.49609H15" stroke="currentColor" stroke-width="1.25" stroke-linecap="round" stroke-linejoin="round" />
	<path d="M5 5.82812L5.83333 7.49479L6.94417 8.25896" stroke="currentColor" stroke-width="1.25" stroke-linecap="round" stroke-linejoin="round" />
	<path fill-rule="evenodd" clip-rule="evenodd" d="M10.37 14.1628H9.62915C8.24832 14.1628 7.12915 13.0436 7.12915 11.6628V9.16276C7.12915 8.24193 7.87498 7.49609 8.79582 7.49609H11.2033C12.1242 7.49609 12.87 8.24193 12.87 9.16276V11.6628C12.87 13.0436 11.7508 14.1628 10.37 14.1628Z" stroke="currentColor" stroke-width="1.25" stroke-linecap="round" stroke-linejoin="round" />
	<path d="M5 14.1613L5.83333 12.4946L6.94417 11.7305" stroke="currentColor" stroke-width="1.25" stroke-linecap="round" stroke-linejoin="round" />
	<path d="M15 14.1613L14.1666 12.4946L13.0558 11.7305" stroke="currentColor" stroke-width="1.25" stroke-linecap="round" stroke-linejoin="round" />
	<path fill-rule="evenodd" clip-rule="evenodd" d="M11.6667 7.49609H8.33337V5.82943C8.33337 5.36943 8.70671 4.99609 9.16671 4.99609H10.8334C11.2934 4.99609 11.6667 5.36943 11.6667 5.82943V7.49609Z" stroke="currentColor" stroke-width="1.25" stroke-linecap="round" stroke-linejoin="round" />
</svg>
