<svg width="1em" height="1em" viewBox="0 0 20 20" fill="none" xmlns="http://www.w3.org/2000/svg">
<path d="M8.33339 17.3141C7.60807 17.1496 6.91146 16.8774 6.26673 16.5066M11.6667 2.68579C13.3235 3.06418 14.8028 3.99387 15.8623 5.32263C16.9218 6.65139 17.4988 8.3005 17.4988 9.99996C17.4988 11.6994 16.9218 13.3485 15.8623 14.6773C14.8028 16.006 13.3235 16.9357 11.6667 17.3141M3.81589 14.2441C3.36131 13.5837 3.01606 12.8543 2.79339 12.0841M2.60339 8.74996C2.73673 7.95829 2.99339 7.20829 3.35339 6.52079L3.49423 6.26662M5.75589 3.81579C6.53561 3.27904 7.41033 2.89555 8.33339 2.68579M10.0001 6.66662V9.99996L12.5001 12.5" stroke="currentColor" stroke-width="1.25" stroke-linecap="round" stroke-linejoin="round"/>
</svg>
