<svg width="1em" height="1em" viewBox="0 0 20 20" fill="none" xmlns="http://www.w3.org/2000/svg">
<path d="M17.327 7.9364C17.9854 8.59476 17.9854 9.66216 17.327 10.3205C16.6686 10.9789 15.6012 10.9789 14.9429 10.3205C14.2845 9.66216 14.2845 8.59475 14.9429 7.9364C15.6012 7.27804 16.6686 7.27804 17.327 7.9364" stroke="currentColor" stroke-width="1.25" stroke-linecap="round" stroke-linejoin="round"/>
<path d="M11.8355 4.92705C12.8492 5.94078 12.8492 7.58437 11.8355 8.59811C10.8217 9.61185 9.17816 9.61185 8.16441 8.59811C7.15068 7.58438 7.15068 5.94079 8.16441 4.92705C9.17815 3.91331 10.8217 3.91331 11.8355 4.92705" stroke="currentColor" stroke-width="1.25" stroke-linecap="round" stroke-linejoin="round"/>
<path d="M5.05697 7.9364C5.71533 8.59476 5.71533 9.66216 5.05697 10.3205C4.39861 10.9789 3.3312 10.9789 2.67285 10.3205C2.01449 9.66216 2.01449 8.59475 2.67285 7.9364C3.33121 7.27804 4.39861 7.27804 5.05697 7.9364" stroke="currentColor" stroke-width="1.25" stroke-linecap="round" stroke-linejoin="round"/>
<path d="M19.1666 15.8333V14.92C19.1666 13.7692 18.2341 12.8367 17.0833 12.8367H16.4158" stroke="currentColor" stroke-width="1.25" stroke-linecap="round" stroke-linejoin="round"/>
<path d="M0.833252 15.8333V14.92C0.833252 13.7692 1.76575 12.8367 2.91659 12.8367H3.58409" stroke="currentColor" stroke-width="1.25" stroke-linecap="round" stroke-linejoin="round"/>
<path d="M14.4492 15.8336V14.4994C14.4492 12.8886 13.1433 11.5828 11.5325 11.5828H8.46665C6.85582 11.5828 5.54999 12.8886 5.54999 14.4994V15.8336" stroke="currentColor" stroke-width="1.25" stroke-linecap="round" stroke-linejoin="round"/>
</svg>
