<svg width="1em" height="1em" viewBox="0 0 20 20" fill="none" xmlns="http://www.w3.org/2000/svg">
<path d="M2.5 2.5V17.5H17.5M8.46667 8.85L10.4167 11.25M12.5733 11.1067L14.9375 7.285M9.16667 7.5C9.16667 8.42047 8.42047 9.16667 7.5 9.16667C6.57953 9.16667 5.83333 8.42047 5.83333 7.5C5.83333 6.57953 6.57953 5.83333 7.5 5.83333C8.42047 5.83333 9.16667 6.57953 9.16667 7.5ZM17.5 5.83333C17.5 6.75381 16.7538 7.5 15.8333 7.5C14.9129 7.5 14.1667 6.75381 14.1667 5.83333C14.1667 4.91286 14.9129 4.16667 15.8333 4.16667C16.7538 4.16667 17.5 4.91286 17.5 5.83333ZM13.3333 12.5C13.3333 13.4205 12.5871 14.1667 11.6667 14.1667C10.7462 14.1667 10 13.4205 10 12.5C10 11.5795 10.7462 10.8333 11.6667 10.8333C12.5871 10.8333 13.3333 11.5795 13.3333 12.5Z" stroke="currentColor" stroke-width="1.25" stroke-linecap="round" stroke-linejoin="round"/>
</svg>
