<svg width="1em" height="1em" viewBox="0 0 20 20" fill="none" xmlns="http://www.w3.org/2000/svg">
<path d="M3.75 13.75C2.5 14.8 2.08 17.92 2.08 17.92C2.08 17.92 5.2 17.5 6.25 16.45C6.84 15.75 6.83 14.68 6.17 14.03C5.85 13.72 5.42 13.54 4.97 13.53C4.53 13.51 4.09 13.59 3.75 13.75Z" stroke="currentColor" stroke-width="1.25" stroke-linecap="round" stroke-linejoin="round"/>
<path d="M10 12.5L7.5 10C7.94 8.85 8.5 7.75 9.17 6.71C10.14 5.15 11.5 3.87 13.11 2.99C14.72 2.1 16.53 1.65 18.33 1.67C18.33 3.93 17.68 7.92 13.33 10.83C12.28 11.53 11.16 12.09 10 12.5Z" stroke="currentColor" stroke-width="1.25" stroke-linecap="round" stroke-linejoin="round"/>
<path d="M7.5 10H3.33C3.33 10 3.79 7.47 5 6.67C6.35 5.77 9.17 6.67 9.17 6.67" stroke="currentColor" stroke-width="1.25" stroke-linecap="round" stroke-linejoin="round"/>
<path d="M10 12.5V16.67C10 16.67 13.03 16.21 13.33 15C14.23 13.65 13.33 10.83 13.33 10.83" stroke="currentColor" stroke-width="1.25" stroke-linecap="round" stroke-linejoin="round"/>
</svg>
