<svg width="1em" height="1em" viewBox="0 0 20 20" fill="none" xmlns="http://www.w3.org/2000/svg">
<path d="M15.8332 6.66496H12.4998C12.0398 6.66496 11.6665 6.29162 11.6665 5.83162V2.49829" stroke="currentColor" stroke-width="1.25" stroke-linecap="round" stroke-linejoin="round"/>
<path d="M4.1665 10.8316V4.16496C4.1665 3.24412 4.91234 2.49829 5.83317 2.49829H11.8098C12.2515 2.49829 12.6757 2.67412 12.9882 2.98662L15.3448 5.34329C15.6573 5.65579 15.8332 6.07996 15.8332 6.52162V15.8316C15.8332 16.7525 15.0873 17.4983 14.1665 17.4983H10.8332" stroke="currentColor" stroke-width="1.25" stroke-linecap="round" stroke-linejoin="round"/>
<path d="M8.53902 16.1553C7.70152 16.9928 6.34569 16.9928 5.50819 16.1553C4.67069 15.3178 4.67069 13.962 5.50819 13.1245C6.34569 12.287 7.70152 12.287 8.53902 13.1245C9.37569 13.962 9.37569 15.3195 8.53902 16.1553" stroke="currentColor" stroke-width="1.07142" stroke-linecap="round" stroke-linejoin="round"/>
<path d="M7.50006 9.16496H12.5001" stroke="currentColor" stroke-width="1.25" stroke-linecap="round" stroke-linejoin="round"/>
<path d="M10.8332 11.665H12.4999" stroke="currentColor" stroke-width="1.25" stroke-linecap="round" stroke-linejoin="round"/>
<path d="M4.16656 17.499L5.50823 16.1565" stroke="currentColor" stroke-width="1.07142" stroke-linecap="round" stroke-linejoin="round"/>
</svg>
