<svg width="1em" height="1em" viewBox="0 0 20 20" fill="none" xmlns="http://www.w3.org/2000/svg">
<path d="M5.14 15.7075C5.34626 15.021 5.76831 14.4193 6.34354 13.9916C6.91877 13.564 7.61654 13.3331 8.33333 13.3333H11.6667C12.3844 13.3331 13.083 13.5645 13.6587 13.9932C14.2343 14.4218 14.6562 15.0248 14.8617 15.7125M17.5 10C17.5 14.1421 14.1421 17.5 10 17.5C5.85786 17.5 2.5 14.1421 2.5 10C2.5 5.85786 5.85786 2.5 10 2.5C14.1421 2.5 17.5 5.85786 17.5 10ZM12.5 8.33333C12.5 9.71404 11.3807 10.8333 10 10.8333C8.61929 10.8333 7.5 9.71404 7.5 8.33333C7.5 6.95262 8.61929 5.83333 10 5.83333C11.3807 5.83333 12.5 6.95262 12.5 8.33333Z" stroke="currentColor" stroke-width="1.25" stroke-linecap="round" stroke-linejoin="round"/>
</svg>
