<svg width="33" height="32" viewBox="0 0 33 32" fill="none" xmlns="http://www.w3.org/2000/svg">
<rect opacity="0.2" x="3.53125" y="8" width="25.6" height="16" rx="8" fill="#40BF42"/>
<path fill-rule="evenodd" clip-rule="evenodd" d="M11 9C7.13401 9 4 12.134 4 16C4 19.866 7.13401 23 11 23H21.6667C25.5327 23 28.6667 19.866 28.6667 16C28.6667 12.134 25.5327 9 21.6667 9H11ZM2 16C2 11.0294 6.02944 7 11 7H21.6667C26.6372 7 30.6667 11.0294 30.6667 16C30.6667 20.9706 26.6372 25 21.6667 25H11C6.02944 25 2 20.9706 2 16ZM21.6667 14.3333C20.7462 14.3333 20 15.0795 20 16C20 16.9205 20.7462 17.6667 21.6667 17.6667C22.5871 17.6667 23.3333 16.9205 23.3333 16C23.3333 15.0795 22.5871 14.3333 21.6667 14.3333ZM18 16C18 13.975 19.6416 12.3333 21.6667 12.3333C23.6917 12.3333 25.3333 13.975 25.3333 16C25.3333 18.025 23.6917 19.6667 21.6667 19.6667C19.6416 19.6667 18 18.025 18 16Z" fill="#40BF42"/>
</svg>
