<svg width="80" height="80" viewBox="0 0 80 80" fill="none" xmlns="http://www.w3.org/2000/svg">
<path d="M43.334 70H20.0007C18.2325 70 16.5368 69.2976 15.2866 68.0474C14.0364 66.7971 13.334 65.1014 13.334 63.3333V23.3333C13.334 21.5652 14.0364 19.8695 15.2866 18.6193C16.5368 17.369 18.2325 16.6667 20.0007 16.6667H60.0006C61.7688 16.6667 63.4645 17.369 64.7147 18.6193C65.9649 19.8695 66.6673 21.5652 66.6673 23.3333V45M53.334 10V23.3333M26.6673 10V23.3333M13.334 36.6667H66.6673M73.334 73.3333L56.6673 56.6667M56.6673 73.3333L73.334 56.6667" stroke="#EB1726" stroke-width="5" stroke-linecap="round" stroke-linejoin="round"/>
</svg>
