<svg width="80" height="80" viewBox="0 0 80 80" fill="none" xmlns="http://www.w3.org/2000/svg">
<g opacity="0.15">
<path d="M13.334 23.3333H66.6673H13.334Z" fill="#EB1726"/>
<path d="M16.6673 23.3333L20.0007 63.3333C20.0007 65.1014 20.703 66.7971 21.9533 68.0474C23.2035 69.2976 24.8992 70 26.6673 70H53.334C55.1021 70 56.7978 69.2976 58.048 68.0474C59.2983 66.7971 60.0006 65.1014 60.0006 63.3333L63.334 23.3333" fill="#EB1726"/>
<path d="M30.0006 23.3333V13.3333C30.0006 12.4493 30.3518 11.6014 30.977 10.9763C31.6021 10.3512 32.4499 10 33.334 10H46.6673C47.5514 10 48.3992 10.3512 49.0243 10.9763C49.6495 11.6014 50.0006 12.4493 50.0006 13.3333V23.3333" fill="#EB1726"/>
<path d="M33.334 40L46.6673 53.3333L33.334 40ZM46.6673 40L33.334 53.3333L46.6673 40Z" fill="#EB1726"/>
<path d="M13.334 23.3333H66.6673M16.6673 23.3333L20.0007 63.3333C20.0007 65.1014 20.703 66.7971 21.9533 68.0474C23.2035 69.2976 24.8992 70 26.6673 70H53.334C55.1021 70 56.7978 69.2976 58.048 68.0474C59.2983 66.7971 60.0006 65.1014 60.0006 63.3333L63.334 23.3333M30.0006 23.3333V13.3333C30.0006 12.4493 30.3518 11.6014 30.977 10.9763C31.6021 10.3512 32.4499 10 33.334 10H46.6673C47.5514 10 48.3992 10.3512 49.0243 10.9763C49.6495 11.6014 50.0006 12.4493 50.0006 13.3333V23.3333M33.334 40L46.6673 53.3333M46.6673 40L33.334 53.3333" stroke="#EB1726" stroke-width="1.25" stroke-linecap="round" stroke-linejoin="round"/>
</g>
<path fill-rule="evenodd" clip-rule="evenodd" d="M33.334 12.5C33.113 12.5 32.901 12.5878 32.7447 12.7441C32.5884 12.9004 32.5006 13.1123 32.5006 13.3333V20.8333H47.5006V13.3333C47.5006 13.1123 47.4128 12.9004 47.2566 12.7441C47.1003 12.5878 46.8883 12.5 46.6673 12.5H33.334ZM52.5006 20.8333V13.3333C52.5006 11.7862 51.8861 10.3025 50.7921 9.20854C49.6981 8.11458 48.2144 7.5 46.6673 7.5H33.334C31.7869 7.5 30.3032 8.11458 29.2092 9.20854C28.1152 10.3025 27.5006 11.7862 27.5006 13.3333V20.8333H16.6966C16.679 20.8331 16.6613 20.8331 16.6437 20.8333H13.334C11.9533 20.8333 10.834 21.9526 10.834 23.3333C10.834 24.714 11.9533 25.8333 13.334 25.8333H14.367L17.5013 63.4456C17.5306 65.8361 18.4929 68.1225 20.1855 69.8151C21.9046 71.5342 24.2362 72.5 26.6673 72.5H53.334C55.7651 72.5 58.0967 71.5342 59.8158 69.8151C61.5084 68.1225 62.4707 65.8361 62.5 63.4455L65.6343 25.8333H66.6673C68.048 25.8333 69.1673 24.714 69.1673 23.3333C69.1673 21.9526 68.048 20.8333 66.6673 20.8333H63.3576C63.34 20.8331 63.3223 20.8331 63.3047 20.8333H52.5006ZM19.3843 25.8333L22.492 63.1257C22.4978 63.1948 22.5007 63.264 22.5007 63.3333C22.5007 64.4384 22.9396 65.4982 23.721 66.2796C24.5024 67.061 25.5623 67.5 26.6673 67.5H53.334C54.439 67.5 55.4989 67.061 56.2803 66.2796C57.0617 65.4982 57.5006 64.4384 57.5006 63.3333C57.5006 63.264 57.5035 63.1948 57.5093 63.1257L60.617 25.8333H19.3843ZM31.5662 38.2322C32.5425 37.2559 34.1254 37.2559 35.1017 38.2322L40.0006 43.1311L44.8995 38.2322C45.8759 37.2559 47.4588 37.2559 48.4351 38.2322C49.4114 39.2085 49.4114 40.7915 48.4351 41.7678L43.5362 46.6667L48.4351 51.5656C49.4114 52.5419 49.4114 54.1248 48.4351 55.1011C47.4588 56.0774 45.8759 56.0774 44.8995 55.1011L40.0006 50.2022L35.1017 55.1011C34.1254 56.0774 32.5425 56.0774 31.5662 55.1011C30.5899 54.1248 30.5899 52.5419 31.5662 51.5656L36.4651 46.6667L31.5662 41.7678C30.5899 40.7915 30.5899 39.2085 31.5662 38.2322Z" fill="#EB1726"/>
</svg>
