<svg width="32" height="32" viewBox="0 0 32 32" fill="none" xmlns="http://www.w3.org/2000/svg">
<rect x="27.8945" y="19.5693" width="5.32064" height="10.3027" transform="rotate(45.8666 27.8945 19.5693)" fill="#DDD7E9"/>
<path d="M5.33301 20L10.6663 12L15.9997 14.6667L21.333 8L26.6663 13.3333V17L22.5 20H5.33301Z" fill="#573792" fill-opacity="0.2"/>
<path d="M5.33301 25.3333H17.5M22.5 20H5.33301L10.6663 12L15.9997 14.6667L21.333 8L26.6663 13.3333V16.6667" stroke="#573792" stroke-width="2" stroke-linecap="round" stroke-linejoin="round"/>
<path d="M24.5 26.5005L27.5 23.4998M25.8026 21.3013L26.0631 20.9998C26.5907 20.4723 27.3061 20.176 28.0522 20.176C28.7982 20.1761 29.5136 20.4725 30.0411 21C30.5686 21.5276 30.8649 22.2431 30.8648 22.9891C30.8648 23.7351 30.5684 24.4506 30.0408 24.9781L29.7404 25.2391M26.0629 28.8754L25.8396 29.1758C25.3059 29.7036 24.5856 29.9996 23.835 29.9996C23.0844 29.9996 22.3641 29.7036 21.8304 29.1758C21.5673 28.9157 21.3585 28.606 21.2159 28.2646C21.0734 27.9232 21 27.5569 21 27.1869C21 26.817 21.0734 26.4507 21.2159 26.1093C21.3585 25.7679 21.5673 25.4582 21.8304 25.1981L22.1252 24.9376" stroke="#573792" stroke-width="2" stroke-linecap="round" stroke-linejoin="round"/>
</svg>
