<svg width="80" height="80" viewBox="0 0 80 80" fill="none" xmlns="http://www.w3.org/2000/svg">
<path d="M2 17C2 13.134 5.13401 10 9 10H71C74.866 10 78 13.134 78 17V25H2V17Z" fill="#573792" fill-opacity="0.2"/>
<path fill-rule="evenodd" clip-rule="evenodd" d="M58.9062 20.625C57.2188 20.625 55.625 19.0312 55.625 17.3438C55.625 15.5625 57.125 14.0625 58.9062 14.0625C60.75 14.0625 62.1875 15.5 62.1875 17.3438C62.1875 19.125 60.6875 20.625 58.9062 20.625ZM70.1562 71.875H40H9.84375C4.42188 71.875 0 67.4531 0 62.0312V25.3125V17.9688C0 15.3906 1.01562 12.9375 2.875 11.0625C4.75 9.17188 7.21875 8.125 9.84375 8.125H70.1562C72.7812 8.125 75.25 9.17188 77.125 11.0625C78.9844 12.9375 80 15.3906 80 17.9688V25.3125V62.0312C80 67.4531 75.5781 71.875 70.1562 71.875ZM9.84375 10.3125C5.6875 10.3125 2.1875 13.8125 2.1875 17.9688V24.2188H77.8125V17.9688C77.8125 13.8125 74.3125 10.3125 70.1562 10.3125H9.84375ZM2.1875 26.4062V62.0312C2.1875 66.25 5.625 69.6875 9.84375 69.6875H38.9062V26.4062H2.1875ZM41.0938 69.6875H70.1562C74.375 69.6875 77.8125 66.25 77.8125 62.0312V26.4062H41.0938V69.6875ZM27.8125 18.4375H21.7188C21.1094 18.4375 20.625 17.9531 20.625 17.3438C20.625 16.7344 21.1094 16.25 21.7188 16.25H27.8125C28.4219 16.25 28.9062 16.7344 28.9062 17.3438C28.9062 17.9531 28.4219 18.4375 27.8125 18.4375ZM40.9375 18.4375H34.8438C34.2344 18.4375 33.75 17.9531 33.75 17.3438C33.75 16.7344 34.2344 16.25 34.8438 16.25H40.9375C41.5469 16.25 42.0312 16.7344 42.0312 17.3438C42.0312 17.9531 41.5469 18.4375 40.9375 18.4375ZM14.8438 18.4375H8.75C8.14062 18.4375 7.65625 17.9531 7.65625 17.3438C7.65625 16.7344 8.14062 16.25 8.75 16.25H14.8438C15.4531 16.25 15.9375 16.7344 15.9375 17.3438C15.9375 17.9531 15.4531 18.4375 14.8438 18.4375ZM67.5 20.625C65.7188 20.625 64.2188 19.125 64.2188 17.3438C64.2188 15.5 65.6562 14.0625 67.5 14.0625C69.3438 14.0625 70.7812 15.5 70.7812 17.3438C70.7812 19.125 69.2812 20.625 67.5 20.625ZM67.5 16.25C66.8594 16.25 66.4062 16.7031 66.4062 17.3438C66.4062 17.8594 66.875 18.4375 67.5 18.4375C68.125 18.4375 68.5938 17.8594 68.5938 17.3438C68.5938 16.7031 68.1406 16.25 67.5 16.25ZM58.9062 16.25C58.3906 16.25 57.8125 16.7188 57.8125 17.3438C57.8125 17.8281 58.4219 18.4375 58.9062 18.4375C59.5312 18.4375 60 17.8594 60 17.3438C60 16.7031 59.5469 16.25 58.9062 16.25Z" fill="#573792"/>
<mask id="path-3-inside-1_4035_49464" fill="white">
<path d="M67.312 40.648C67.312 43.016 66.384 44.552 64.528 45.256C65.68 45.4693 66.6293 46.1307 67.376 47.24C68.1227 48.3493 68.496 49.48 68.496 50.632C68.496 52.424 67.9093 53.9387 66.736 55.176C65.5627 56.392 63.9947 57 62.032 57H53.008V34.952H61.328C63.1627 34.952 64.6133 35.464 65.68 36.488C66.768 37.512 67.312 38.8987 67.312 40.648ZM56.016 37.704V44.104H61.328C62.2453 44.104 62.96 43.7947 63.472 43.176C64.0053 42.536 64.272 41.7253 64.272 40.744C64.272 39.784 63.984 39.0373 63.408 38.504C62.832 37.9707 62.032 37.704 61.008 37.704H56.016ZM61.808 46.728H56.016V54.216H61.904C62.928 54.216 63.7707 53.864 64.432 53.16C65.0933 52.456 65.424 51.6027 65.424 50.6C65.424 49.64 65.0827 48.7547 64.4 47.944C63.7173 47.1333 62.8533 46.728 61.808 46.728Z"/>
</mask>
<path d="M67.312 40.648C67.312 43.016 66.384 44.552 64.528 45.256C65.68 45.4693 66.6293 46.1307 67.376 47.24C68.1227 48.3493 68.496 49.48 68.496 50.632C68.496 52.424 67.9093 53.9387 66.736 55.176C65.5627 56.392 63.9947 57 62.032 57H53.008V34.952H61.328C63.1627 34.952 64.6133 35.464 65.68 36.488C66.768 37.512 67.312 38.8987 67.312 40.648ZM56.016 37.704V44.104H61.328C62.2453 44.104 62.96 43.7947 63.472 43.176C64.0053 42.536 64.272 41.7253 64.272 40.744C64.272 39.784 63.984 39.0373 63.408 38.504C62.832 37.9707 62.032 37.704 61.008 37.704H56.016ZM61.808 46.728H56.016V54.216H61.904C62.928 54.216 63.7707 53.864 64.432 53.16C65.0933 52.456 65.424 51.6027 65.424 50.6C65.424 49.64 65.0827 48.7547 64.4 47.944C63.7173 47.1333 62.8533 46.728 61.808 46.728Z" fill="#573792"/>
<path d="M64.528 45.256L64.4925 45.1625L64.1584 45.2893L64.5098 45.3543L64.528 45.256ZM67.376 47.24L67.459 47.1842L67.376 47.24ZM66.736 55.176L66.808 55.2454L66.8086 55.2448L66.736 55.176ZM53.008 57H52.908V57.1H53.008V57ZM53.008 34.952V34.852H52.908V34.952H53.008ZM65.68 36.488L65.6107 36.5601L65.6115 36.5608L65.68 36.488ZM56.016 37.704V37.604H55.916V37.704H56.016ZM56.016 44.104H55.916V44.204H56.016V44.104ZM63.472 43.176L63.3952 43.112L63.395 43.1122L63.472 43.176ZM63.408 38.504L63.3401 38.5774V38.5774L63.408 38.504ZM56.016 46.728V46.628H55.916V46.728H56.016ZM56.016 54.216H55.916V54.316H56.016V54.216ZM64.432 53.16L64.5049 53.2285L64.432 53.16ZM64.4 47.944L64.4765 47.8796L64.4 47.944ZM67.212 40.648C67.212 41.8194 66.9824 42.7761 66.5304 43.5243C66.0792 44.2711 65.402 44.8175 64.4925 45.1625L64.5635 45.3495C65.51 44.9905 66.2248 44.4169 66.7016 43.6277C67.1776 42.8399 67.412 41.8446 67.412 40.648H67.212ZM64.5098 45.3543C65.6316 45.5621 66.5591 46.2054 67.293 47.2958L67.459 47.1842C66.6996 46.056 65.7284 45.3766 64.5462 45.1577L64.5098 45.3543ZM67.293 47.2958C68.0304 48.3914 68.396 49.5029 68.396 50.632H68.596C68.596 49.4571 68.2149 48.3073 67.459 47.1842L67.293 47.2958ZM68.396 50.632C68.396 52.3998 67.8182 53.8895 66.6634 55.1072L66.8086 55.2448C68.0005 53.9879 68.596 52.4482 68.596 50.632H68.396ZM66.664 55.1066C65.5126 56.2998 63.9723 56.9 62.032 56.9V57.1C64.017 57.1 65.6127 56.4841 66.808 55.2454L66.664 55.1066ZM62.032 56.9H53.008V57.1H62.032V56.9ZM53.108 57V34.952H52.908V57H53.108ZM53.008 35.052H61.328V34.852H53.008V35.052ZM61.328 35.052C63.1434 35.052 64.5669 35.5581 65.6107 36.5601L65.7493 36.4159C64.6597 35.3699 63.1819 34.852 61.328 34.852V35.052ZM65.6115 36.5608C66.6759 37.5627 67.212 38.9211 67.212 40.648H67.412C67.412 38.8762 66.8601 37.4613 65.7485 36.4152L65.6115 36.5608ZM55.916 37.704V44.104H56.116V37.704H55.916ZM56.016 44.204H61.328V44.004H56.016V44.204ZM61.328 44.204C62.2704 44.204 63.0152 43.8848 63.549 43.2398L63.395 43.1122C62.9048 43.7045 62.2203 44.004 61.328 44.004V44.204ZM63.5488 43.24C64.0997 42.579 64.372 41.7444 64.372 40.744H64.172C64.172 41.7063 63.911 42.493 63.3952 43.112L63.5488 43.24ZM64.372 40.744C64.372 39.7628 64.0768 38.987 63.4759 38.4306L63.3401 38.5774C63.8912 39.0877 64.172 39.8052 64.172 40.744H64.372ZM63.4759 38.4306C62.8764 37.8755 62.0493 37.604 61.008 37.604V37.804C62.0147 37.804 62.7876 38.0659 63.3401 38.5774L63.4759 38.4306ZM61.008 37.604H56.016V37.804H61.008V37.604ZM61.808 46.628H56.016V46.828H61.808V46.628ZM55.916 46.728V54.216H56.116V46.728H55.916ZM56.016 54.316H61.904V54.116H56.016V54.316ZM61.904 54.316C62.9537 54.316 63.8234 53.9539 64.5049 53.2285L64.3591 53.0915C63.7179 53.7741 62.9023 54.116 61.904 54.116V54.316ZM64.5049 53.2285C65.1844 52.5052 65.524 51.627 65.524 50.6H65.324C65.324 51.5783 65.0023 52.4068 64.3591 53.0915L64.5049 53.2285ZM65.524 50.6C65.524 49.6139 65.1727 48.7063 64.4765 47.8796L64.3235 48.0084C64.9927 48.8031 65.324 49.6661 65.324 50.6H65.524ZM64.4765 47.8796C63.7751 47.0467 62.8833 46.628 61.808 46.628V46.828C62.8234 46.828 63.6595 47.2199 64.3235 48.0084L64.4765 47.8796Z" fill="white" mask="url(#path-3-inside-1_4035_49464)"/>
<mask id="path-5-inside-2_4035_49464" fill="white">
<path d="M21.336 38.92L17.688 48.712H24.984L21.336 38.92ZM28.152 57L26.008 51.4H16.664L14.52 57H11.352L19.736 34.952H22.936L31.288 57H28.152Z"/>
</mask>
<path d="M21.336 38.92L17.688 48.712H24.984L21.336 38.92ZM28.152 57L26.008 51.4H16.664L14.52 57H11.352L19.736 34.952H22.936L31.288 57H28.152Z" fill="#573792"/>
<path d="M21.336 38.92L21.4297 38.8851L21.336 38.6336L21.2423 38.8851L21.336 38.92ZM17.688 48.712L17.5943 48.6771L17.544 48.812H17.688V48.712ZM24.984 48.712V48.812H25.128L25.0777 48.6771L24.984 48.712ZM28.152 57L28.0586 57.0358L28.0832 57.1H28.152V57ZM26.008 51.4L26.1014 51.3642L26.0768 51.3H26.008V51.4ZM16.664 51.4V51.3H16.5952L16.5706 51.3642L16.664 51.4ZM14.52 57V57.1H14.5888L14.6134 57.0358L14.52 57ZM11.352 57L11.2585 56.9645L11.207 57.1H11.352V57ZM19.736 34.952V34.852H19.667L19.6425 34.9165L19.736 34.952ZM22.936 34.952L23.0295 34.9166L23.0051 34.852H22.936V34.952ZM31.288 57V57.1H31.4328L31.3815 56.9646L31.288 57ZM21.2423 38.8851L17.5943 48.6771L17.7817 48.7469L21.4297 38.9549L21.2423 38.8851ZM17.688 48.812H24.984V48.612H17.688V48.812ZM25.0777 48.6771L21.4297 38.8851L21.2423 38.9549L24.8903 48.7469L25.0777 48.6771ZM28.2454 56.9642L26.1014 51.3642L25.9146 51.4358L28.0586 57.0358L28.2454 56.9642ZM26.008 51.3H16.664V51.5H26.008V51.3ZM16.5706 51.3642L14.4266 56.9642L14.6134 57.0358L16.7574 51.4358L16.5706 51.3642ZM14.52 56.9H11.352V57.1H14.52V56.9ZM11.4455 57.0355L19.8295 34.9875L19.6425 34.9165L11.2585 56.9645L11.4455 57.0355ZM19.736 35.052H22.936V34.852H19.736V35.052ZM22.8425 34.9874L31.1945 57.0354L31.3815 56.9646L23.0295 34.9166L22.8425 34.9874ZM31.288 56.9H28.152V57.1H31.288V56.9Z" fill="white" mask="url(#path-5-inside-2_4035_49464)"/>
</svg>
