<svg width="80" height="80" viewBox="0 0 80 80" fill="none" xmlns="http://www.w3.org/2000/svg">
<rect opacity="0.2" x="5.82812" y="40.1432" width="39.7714" height="24.8571" rx="12.4286" fill="#573792"/>
<rect opacity="0.2" x="45.5996" y="28.7734" width="39.7714" height="24.8571" rx="12.4286" transform="rotate(-180 45.5996 28.7734)" fill="#573792"/>
<rect opacity="0.2" x="66.4863" y="50" width="13.3016" height="25.7566" transform="rotate(45.8666 66.4863 50)" fill="#573792"/>
<path fill-rule="evenodd" clip-rule="evenodd" d="M2.5 16.3447C2.5 8.09988 9.18375 1.41614 17.4286 1.41614L34 1.41614C42.2448 1.41614 48.9286 8.09989 48.9286 16.3447C48.9286 24.5895 42.2448 31.2733 34 31.2733L17.4286 31.2733C9.18375 31.2733 2.5 24.5895 2.5 16.3447ZM17.4286 6.41614C11.9452 6.41614 7.5 10.8613 7.5 16.3447C7.5 21.8281 11.9452 26.2733 17.4286 26.2733L34 26.2733C39.4834 26.2733 43.9286 21.8281 43.9286 16.3447C43.9286 10.8613 39.4834 6.41614 34 6.41614L17.4286 6.41614ZM27.3571 16.3447C27.3571 12.676 30.3312 9.70185 34 9.70185C37.6687 9.70185 40.6428 12.676 40.6428 16.3447C40.6428 20.0135 37.6687 22.9876 34 22.9876C30.3312 22.9876 27.3571 20.0135 27.3571 16.3447ZM34 14.7019C33.0927 14.7019 32.3571 15.4374 32.3571 16.3447C32.3571 17.252 33.0927 17.9876 34 17.9876C34.9073 17.9876 35.6428 17.252 35.6428 16.3447C35.6428 15.4374 34.9073 14.7019 34 14.7019ZM2.5002 52.5716C2.5002 44.3268 9.18394 37.643 17.4288 37.643H34.0002C42.245 37.643 48.9288 44.3268 48.9288 52.5716C48.9288 60.8164 42.245 67.5002 34.0002 67.5002H17.4288C9.18394 67.5002 2.5002 60.8164 2.5002 52.5716ZM17.4288 42.643C11.9454 42.643 7.5002 47.0882 7.5002 52.5716C7.5002 58.055 11.9454 62.5002 17.4288 62.5002H34.0002C39.4836 62.5002 43.9288 58.055 43.9288 52.5716C43.9288 47.0882 39.4836 42.643 34.0002 42.643H17.4288ZM10.7859 52.5716C10.7859 48.9028 13.76 45.9287 17.4288 45.9287C21.0975 45.9287 24.0716 48.9028 24.0716 52.5716C24.0716 56.2403 21.0975 59.2145 17.4288 59.2145C13.76 59.2145 10.7859 56.2403 10.7859 52.5716ZM17.4288 50.9287C16.5214 50.9287 15.7859 51.6643 15.7859 52.5716C15.7859 53.4789 16.5214 54.2145 17.4288 54.2145C18.3361 54.2145 19.0716 53.4789 19.0716 52.5716C19.0716 51.6643 18.3361 50.9287 17.4288 50.9287ZM63.7332 55.2864L63.1483 55.9635C62.2457 57.0084 60.667 57.1238 59.6221 56.2212C58.5773 55.3186 58.4619 53.7399 59.3644 52.6951L60.0156 51.9413C60.0554 51.8952 60.0968 51.8506 60.1398 51.8076C61.9276 50.0201 64.3522 49.0159 66.8803 49.0161C69.4084 49.0163 71.8329 50.0208 73.6204 51.8086C75.4079 53.5963 76.4119 56.021 76.4118 58.5491C76.4116 61.0772 75.4071 63.5017 73.6194 65.2892C73.5782 65.3304 73.5355 65.3702 73.4915 65.4084L72.7405 66.061C71.6983 66.9666 70.1193 66.8558 69.2136 65.8136C68.308 64.7714 68.4188 63.1924 69.461 62.2867L70.1387 61.6978C70.9545 60.8536 71.4117 59.7247 71.4118 58.5487C71.4118 57.3467 70.9344 56.1938 70.0845 55.3438C69.2347 54.4938 68.0819 54.0162 66.8799 54.0161C65.7051 54.016 64.5772 54.4721 63.7332 55.2864ZM67.2673 58.0575C68.2437 59.0337 68.2439 60.6166 67.2677 61.593L59.7677 69.095C58.7916 70.0714 57.2086 70.0716 56.2322 69.0955C55.2558 68.1193 55.2556 66.5364 56.2317 65.5599L63.7317 58.0579C64.7079 57.0815 66.2908 57.0813 67.2673 58.0575ZM53.936 61.7647C54.8503 62.7994 54.7527 64.3793 53.718 65.2935L53.0394 65.8931C52.6376 66.3016 52.3175 66.7834 52.0966 67.3125C51.8676 67.8609 51.7497 68.4492 51.7497 69.0434C51.7497 69.6377 51.8676 70.226 52.0966 70.7743C52.3255 71.3227 52.6609 71.8201 53.0835 72.2379L53.0836 72.238C53.9498 73.0946 55.1189 73.5751 56.3372 73.5751C57.4988 73.5751 58.6157 73.1383 59.468 72.3551L59.9007 71.7731C60.7245 70.665 62.2905 70.4346 63.3986 71.2583C64.5066 72.0821 64.7371 73.6481 63.9133 74.7562L63.355 75.5072C63.2795 75.6087 63.1965 75.7043 63.1066 75.7932C61.3043 77.5755 58.8719 78.5751 56.3372 78.5751C53.8025 78.5751 51.3701 77.5755 49.5678 75.7932C48.6751 74.9105 47.9663 73.8593 47.4826 72.7007C46.9988 71.5421 46.7497 70.299 46.7497 69.0434C46.7497 67.7879 46.9988 66.5448 47.4826 65.3861C47.9663 64.2275 48.6751 63.1763 49.5679 62.2935C49.6011 62.2607 49.6353 62.2287 49.6703 62.1978L50.4072 61.5466C51.4419 60.6324 53.0218 60.73 53.936 61.7647Z" fill="#573792"/>
</svg>
