<svg width="80" height="80" viewBox="0 0 80 80" fill="none" xmlns="http://www.w3.org/2000/svg">
<rect x="8.93164" y="48.1553" width="6.60194" height="15.9223" fill="#FAD7EE"/>
<rect x="45.8262" y="45.8252" width="6.60194" height="18.2524" fill="#FAD7EE"/>
<rect x="27.1836" y="34.1748" width="6.99029" height="29.9029" fill="#FAD7EE"/>
<rect x="64.4668" y="27.1846" width="6.60194" height="36.8932" fill="#FAD7EE"/>
<circle cx="12.1895" cy="33.0137" r="3.25394" fill="#FAD7EE"/>
<circle cx="30.8457" cy="16.7442" r="3.25394" fill="#FAD7EE"/>
<circle cx="49.2832" cy="30.627" r="3.25394" fill="#FAD7EE"/>
<circle cx="67.7227" cy="12.1885" r="3.25394" fill="#FAD7EE"/>
<path d="M9.87552 67.1443H14.5034C16.7359 67.1443 18.5527 65.3275 18.5527 63.095V49.2115C18.5527 46.9789 16.7359 45.1621 14.5034 45.1621H9.87552C7.64297 45.1621 5.82617 46.9789 5.82617 49.2115V63.095C5.82617 65.3275 7.64297 67.1443 9.87552 67.1443ZM9.29705 49.2115C9.29705 48.8928 9.5569 48.633 9.87552 48.633H14.5034C14.822 48.633 15.0818 48.8928 15.0818 49.2115V63.095C15.0818 63.4136 14.822 63.6734 14.5034 63.6734H9.87552C9.5569 63.6734 9.29705 63.4136 9.29705 63.095V49.2115Z" fill="#E439AC"/>
<path d="M28.3872 31.2783C26.1547 31.2783 24.3379 33.0951 24.3379 35.3277V63.0947C24.3379 65.3272 26.1547 67.144 28.3872 67.144H33.0151C35.2476 67.144 37.0644 65.3272 37.0644 63.0947V35.3277C37.0644 33.0951 35.2476 31.2783 33.0151 31.2783H28.3872ZM33.5936 35.3277V63.0947C33.5936 63.4133 33.3337 63.6731 33.0151 63.6731H28.3872C28.0686 63.6731 27.8088 63.4133 27.8088 63.0947V35.3277C27.8088 35.009 28.0686 34.7492 28.3872 34.7492H33.0151C33.3337 34.7492 33.5936 35.009 33.5936 35.3277Z" fill="#E439AC"/>
<path d="M46.899 42.8477C44.6664 42.8477 42.8496 44.6645 42.8496 46.897V63.0944C42.8496 65.327 44.6664 67.1438 46.899 67.1438H51.5268C53.7594 67.1438 55.5761 65.327 55.5761 63.0944V46.897C55.5761 44.6645 53.7594 42.8477 51.5268 42.8477H46.899ZM52.1053 46.897V63.0944C52.1053 63.413 51.8454 63.6729 51.5268 63.6729H46.899C46.5803 63.6729 46.3205 63.413 46.3205 63.0944V46.897C46.3205 46.5784 46.5803 46.3185 46.899 46.3185H51.5268C51.8454 46.3185 52.1053 46.5784 52.1053 46.897Z" fill="#E439AC"/>
<path d="M70.0366 24.3369H65.4087C63.1762 24.3369 61.3594 26.1537 61.3594 28.3863V63.095C61.3594 65.3276 63.1762 67.1444 65.4087 67.1444H70.0366C72.2691 67.1444 74.0859 65.3276 74.0859 63.095V28.3863C74.0859 26.1537 72.2691 24.3369 70.0366 24.3369ZM70.615 63.095C70.615 63.4136 70.3552 63.6735 70.0366 63.6735H65.4087C65.0901 63.6735 64.8302 63.4136 64.8302 63.095V28.3863C64.8302 28.0676 65.0901 27.8078 65.4087 27.8078H70.0366C70.3552 27.8078 70.615 28.0676 70.615 28.3863V63.095Z" fill="#E439AC"/>
<path d="M12.1894 39.377C15.6987 39.377 18.5527 36.523 18.5527 33.0137C18.5527 32.0415 18.3163 31.13 17.9249 30.3052L27.2416 22.1439C28.239 22.7937 29.4239 23.1796 30.7008 23.1796C32.1464 23.1796 33.4652 22.6766 34.5346 21.8617L43.2872 28.4257C43.0143 29.1341 42.8488 29.8962 42.8488 30.6998C42.8488 34.2091 45.7028 37.0631 49.2121 37.0631C52.7214 37.0631 55.5754 34.2091 55.5754 30.6998C55.5754 29.5769 55.2583 28.5367 54.7459 27.62L64.6436 17.7223C65.5604 18.2347 66.6005 18.5517 67.7234 18.5517C71.2327 18.5517 74.0867 15.6977 74.0867 12.1885C74.0867 8.67918 71.2327 5.8252 67.7234 5.8252C64.2141 5.8252 61.3602 8.67918 61.3602 12.1885C61.3602 13.3114 61.6772 14.3515 62.1896 15.2683L52.2919 25.166C51.3752 24.6536 50.335 24.3365 49.2121 24.3365C47.7665 24.3365 46.4477 24.8395 45.3783 25.6543L36.6257 19.0904C36.8985 18.382 37.064 17.6199 37.064 16.8163C37.064 13.307 34.2101 10.453 30.7008 10.453C27.1915 10.453 24.3375 13.307 24.3375 16.8163C24.3375 17.7885 24.5739 18.7 24.9653 19.5248L15.6486 27.6861C14.6512 27.0363 13.4663 26.6504 12.1894 26.6504C8.68016 26.6504 5.82617 29.5044 5.82617 33.0137C5.82617 36.523 8.68016 39.377 12.1894 39.377ZM67.7234 9.29607C69.3188 9.29607 70.6158 10.5931 70.6158 12.1885C70.6158 13.7838 69.3188 15.0809 67.7234 15.0809C66.1281 15.0809 64.831 13.7838 64.831 12.1885C64.831 10.5931 66.1281 9.29607 67.7234 9.29607ZM49.2121 27.8074C50.8074 27.8074 52.1045 29.1045 52.1045 30.6998C52.1045 32.2951 50.8074 33.5922 49.2121 33.5922C47.6168 33.5922 46.3197 32.2951 46.3197 30.6998C46.3197 29.1045 47.6168 27.8074 49.2121 27.8074ZM30.7008 13.9239C32.2961 13.9239 33.5932 15.221 33.5932 16.8163C33.5932 18.4116 32.2961 19.7087 30.7008 19.7087C29.1054 19.7087 27.8084 18.4116 27.8084 16.8163C27.8084 15.221 29.1054 13.9239 30.7008 13.9239ZM12.1894 30.1213C13.7848 30.1213 15.0818 31.4184 15.0818 33.0137C15.0818 34.609 13.7848 35.9061 12.1894 35.9061C10.5941 35.9061 9.29705 34.609 9.29705 33.0137C9.29705 31.4184 10.5941 30.1213 12.1894 30.1213Z" fill="#E439AC"/>
<path d="M72.3513 70.6143H7.56161C6.60351 70.6143 5.82617 71.3916 5.82617 72.3497C5.82617 73.3078 6.60351 74.0851 7.56161 74.0851H72.3513C73.3094 74.0851 74.0867 73.3078 74.0867 72.3497C74.0867 71.3916 73.3094 70.6143 72.3513 70.6143Z" fill="#E439AC"/>
</svg>
