<svg width="33" height="32" viewBox="0 0 33 32" fill="none" xmlns="http://www.w3.org/2000/svg">
<rect opacity="0.2" x="3.86719" y="8" width="25.6" height="16" rx="8" fill="#FFB802"/>
<path fill-rule="evenodd" clip-rule="evenodd" d="M11.3359 9C7.46994 9 4.33594 12.134 4.33594 16C4.33594 19.866 7.46994 23 11.3359 23H22.0026C25.8686 23 29.0026 19.866 29.0026 16C29.0026 12.134 25.8686 9 22.0026 9H11.3359ZM2.33594 16C2.33594 11.0294 6.36538 7 11.3359 7H22.0026C26.9732 7 31.0026 11.0294 31.0026 16C31.0026 20.9706 26.9732 25 22.0026 25H11.3359C6.36538 25 2.33594 20.9706 2.33594 16ZM22.0026 14.3333C21.0821 14.3333 20.3359 15.0795 20.3359 16C20.3359 16.9205 21.0821 17.6667 22.0026 17.6667C22.9231 17.6667 23.6693 16.9205 23.6693 16C23.6693 15.0795 22.9231 14.3333 22.0026 14.3333ZM18.3359 16C18.3359 13.975 19.9776 12.3333 22.0026 12.3333C24.0276 12.3333 25.6693 13.975 25.6693 16C25.6693 18.025 24.0276 19.6667 22.0026 19.6667C19.9776 19.6667 18.3359 18.025 18.3359 16Z" fill="#FFB802"/>
</svg>
