<svg width="80" height="80" viewBox="0 0 80 80" fill="none" xmlns="http://www.w3.org/2000/svg">
<g clip-path="url(#clip0_3442_41804)">
<path d="M1.24501 15.8373C0.832688 10.3743 3.30652 5.31463 4.59498 3.46764C17.9409 3.03824 44.8075 2.24495 45.5063 2.50701C46.2052 2.76907 48.8549 3.70813 50.0924 4.1449L51.0751 18.2307V45.5288V59.0687L48.7821 67.5857L31.5297 66.603L30.6561 75.2292L27.162 75.8843C23.6314 75.484 15.26 74.3775 10.0188 73.1545C4.77753 71.9316 2.73927 65.0743 2.3753 61.7985C2.17033 48.7543 1.65732 21.3002 1.24501 15.8373Z" fill="#FEE8EA"/>
<path d="M77.4973 37.5008H45.8315C44.4515 37.5008 43.3315 36.3809 43.3315 35.0009C43.3315 33.6209 44.4515 32.501 45.8315 32.501H77.4973C78.8773 32.501 79.9973 33.6209 79.9973 35.0009C79.9973 36.3809 78.8773 37.5008 77.4973 37.5008Z" fill="#EB1726"/>
<path d="M64.9978 50.0011C64.3576 50.0011 63.718 49.7576 63.2309 49.2681C62.2544 48.2909 62.2544 46.7077 63.2309 45.7312L73.9642 34.9985L63.2309 24.2652C62.2544 23.2887 62.2544 21.7055 63.2309 20.729C64.2081 19.7518 65.7913 19.7518 66.7678 20.729L79.2674 33.2286C80.244 34.2051 80.244 35.7883 79.2674 36.7648L66.7678 49.2644C66.2777 49.7576 65.6381 50.0011 64.9978 50.0011Z" fill="#EB1726"/>
<path d="M26.666 80.0004C25.9526 80.0004 25.2757 79.9003 24.5994 79.6903L4.53965 73.0072C1.81025 72.0539 0 69.5106 0 66.6677V6.66959C0 2.99295 2.99002 0.00292969 6.66666 0.00292969C7.37953 0.00292969 8.05639 0.103024 8.73325 0.312979L28.7924 6.99612C31.5224 7.94946 33.3321 10.4927 33.3321 13.3356V73.3337C33.3321 77.0104 30.3427 80.0004 26.666 80.0004ZM6.66666 5.00277C5.74994 5.00277 4.99984 5.75287 4.99984 6.66959V66.6677C4.99984 67.3775 5.47651 68.0373 6.15642 68.2741L26.1222 74.9273C26.2657 74.9737 26.4524 75.0006 26.666 75.0006C27.5828 75.0006 28.3322 74.2505 28.3322 73.3337V13.3356C28.3322 12.6258 27.8556 11.9661 27.1757 11.7292L7.20986 5.07601C7.06643 5.02963 6.87967 5.00277 6.66666 5.00277Z" fill="#EB1726"/>
<path d="M50.8313 26.669C49.4513 26.669 48.3314 25.549 48.3314 24.169V9.16951C48.3314 6.87283 46.4619 5.00277 44.1653 5.00277H6.66643C5.28646 5.00277 4.1665 3.88281 4.1665 2.50285C4.1665 1.12289 5.28646 0.00292969 6.66643 0.00292969H44.1653C49.2219 0.00292969 53.3312 4.11291 53.3312 9.16951V24.169C53.3312 25.549 52.2113 26.669 50.8313 26.669Z" fill="#EB1726"/>
<path d="M44.1653 70H30.832C29.452 70 28.332 68.8801 28.332 67.5001C28.332 66.1201 29.452 65.0002 30.832 65.0002H44.1653C46.462 65.0002 48.3314 63.1301 48.3314 60.8334V45.8339C48.3314 44.4539 49.4514 43.334 50.8313 43.334C52.2113 43.334 53.3312 44.4539 53.3312 45.8339V60.8334C53.3312 65.89 49.2219 70 44.1653 70Z" fill="#EB1726"/>
</g>
<defs>
<clipPath id="clip0_3442_41804">
<rect width="80" height="80" fill="white"/>
</clipPath>
</defs>
</svg>
