<svg width="33" height="32" viewBox="0 0 33 32" fill="none" xmlns="http://www.w3.org/2000/svg">
<path d="M12.666 20L16.666 16L12.666 20ZM19.3327 13.3333L20.666 12L19.3327 13.3333Z" fill="#64748B" fill-opacity="0.15"/>
<path d="M15.3328 7.99998L15.9501 7.28532C17.2006 6.03509 18.8964 5.33279 20.6646 5.33291C22.4328 5.33304 24.1286 6.03558 25.3788 7.28598C26.629 8.53639 27.3313 10.2322 27.3312 12.0005C27.3311 13.7687 26.6286 15.4644 25.3781 16.7147L24.6661 17.3333" fill="#64748B" fill-opacity="0.15"/>
<path d="M4.66602 4L28.666 28L4.66602 4Z" fill="#64748B" fill-opacity="0.15"/>
<path d="M17.999 24.0001L17.4697 24.7121C16.2047 25.963 14.4974 26.6646 12.7184 26.6646C10.9393 26.6646 9.23202 25.963 7.96702 24.7121C7.34349 24.0956 6.84848 23.3615 6.51063 22.5523C6.17279 21.7432 5.99883 20.875 5.99883 19.9981C5.99883 19.1213 6.17279 18.2531 6.51063 17.4439C6.84848 16.6348 7.34349 15.9007 7.96702 15.2841L8.66568 14.6668" fill="#64748B" fill-opacity="0.15"/>
<path d="M12.666 20L16.666 16M19.3327 13.3333L20.666 12M15.3328 7.99998L15.9501 7.28532C17.2006 6.03509 18.8964 5.33279 20.6646 5.33291C22.4328 5.33304 24.1286 6.03558 25.3788 7.28598C26.629 8.53639 27.3313 10.2322 27.3312 12.0005C27.3311 13.7687 26.6286 15.4644 25.3781 16.7147L24.6661 17.3333M4.66602 4L28.666 28M17.999 24.0001L17.4697 24.7121C16.2047 25.963 14.4974 26.6646 12.7184 26.6646C10.9393 26.6646 9.23202 25.963 7.96702 24.7121C7.34349 24.0956 6.84848 23.3615 6.51063 22.5523C6.17279 21.7432 5.99883 20.875 5.99883 19.9981C5.99883 19.1213 6.17279 18.2531 6.51063 17.4439C6.84848 16.6348 7.34349 15.9007 7.96702 15.2841L8.66568 14.6668" stroke="#64748B" stroke-width="2" stroke-linecap="round" stroke-linejoin="round"/>
</svg>
