<svg width="32" height="32" viewBox="0 0 32 32" fill="none" xmlns="http://www.w3.org/2000/svg">
<rect opacity="0.2" x="19.668" y="18" width="9" height="9" rx="4.5" fill="#64748B"/>
<path opacity="0.2" d="M3 17L8.33333 9L13.6667 11.6667L19 5L24.3333 10.3333V14L20.167 17H3Z" fill="#64748B"/>
<path fill-rule="evenodd" clip-rule="evenodd" d="M18.9447 4.00153C19.2287 3.9858 19.506 4.09176 19.7071 4.2929L25.0404 9.62623C25.228 9.81377 25.3333 10.0681 25.3333 10.3333V13.6667C25.3333 14.219 24.8856 14.6667 24.3333 14.6667C23.781 14.6667 23.3333 14.219 23.3333 13.6667V10.7475L19.0829 6.49713L14.4475 12.2914C14.153 12.6596 13.6412 12.772 13.2195 12.5611L8.6757 10.2892L4.86852 16H20.167C20.7193 16 21.167 16.4477 21.167 17C21.167 17.5523 20.7193 18 20.167 18H3C2.63121 18 2.29235 17.797 2.11833 17.4719C1.94431 17.1467 1.96338 16.7522 2.16795 16.4453L7.50128 8.4453C7.78103 8.02568 8.32947 7.88003 8.78055 8.10558L13.3908 10.4107L18.2191 4.37531C18.3968 4.15319 18.6607 4.01726 18.9447 4.00153ZM2.00001 22.3333C2.00001 21.7811 2.44772 21.3333 3.00001 21.3333H15.167C15.7193 21.3333 16.167 21.7811 16.167 22.3333C16.167 22.8856 15.7193 23.3333 15.167 23.3333H3.00001C2.44772 23.3333 2.00001 22.8856 2.00001 22.3333Z" fill="#64748B"/>
<path fill-rule="evenodd" clip-rule="evenodd" d="M24.1667 18.75C22.0956 18.75 20.4167 20.4289 20.4167 22.5C20.4167 24.5711 22.0956 26.25 24.1667 26.25C26.2378 26.25 27.9167 24.5711 27.9167 22.5C27.9167 20.4289 26.2378 18.75 24.1667 18.75ZM18.9167 22.5C18.9167 19.6005 21.2672 17.25 24.1667 17.25C27.0662 17.25 29.4167 19.6005 29.4167 22.5C29.4167 25.3995 27.0662 27.75 24.1667 27.75C21.2672 27.75 18.9167 25.3995 18.9167 22.5ZM23.7167 21.5783V23.3076L25.1578 22.4429L23.7167 21.5783ZM22.8922 20.1221C23.3096 19.8857 23.8219 19.8922 24.2333 20.1389L26.1703 21.3012C26.5713 21.5418 26.8167 21.9752 26.8167 22.4429C26.8167 22.9106 26.5713 23.344 26.1703 23.5847L24.2333 24.7469C23.8219 24.9937 23.3096 25.0002 22.8922 24.7638C22.4747 24.5275 22.2167 24.0848 22.2167 23.6051V21.2807C22.2167 20.801 22.4747 20.3584 22.8922 20.1221Z" fill="#64748B"/>
</svg>
