<svg width="80" height="81" viewBox="0 0 80 81" fill="none" xmlns="http://www.w3.org/2000/svg">
	<path d="M33.3281 17.1667C33.3281 15.3986 34.0305 13.7029 35.2807 12.4526C36.531 11.2024 38.2267 10.5 39.9948 10.5C41.7629 10.5 43.4586 11.2024 44.7088 12.4526C45.9591 13.7029 46.6615 15.3986 46.6615 17.1667C50.4895 18.9768 53.7528 21.7944 56.1016 25.3177C58.4505 28.8409 59.7963 32.9369 59.9948 37.1667V47.1667C60.2456 49.239 60.9796 51.2235 62.1375 52.9604C63.2954 54.6973 64.845 56.1381 66.6615 57.1667H13.3281C15.1446 56.1381 16.6942 54.6973 17.8521 52.9604C19.01 51.2235 19.7439 49.239 19.9948 47.1667V37.1667C20.1933 32.9369 21.5391 28.8409 23.888 25.3177C26.2368 21.7944 29.5001 18.9768 33.3281 17.1667Z" fill="#DDD7E9" />
	<path d="M29.9948 57.1667V60.5C29.9948 63.1522 31.0484 65.6957 32.9237 67.5711C34.7991 69.4464 37.3426 70.5 39.9948 70.5C42.647 70.5 45.1905 69.4464 47.0659 67.5711C48.9412 65.6957 49.9948 63.1522 49.9948 60.5V57.1667" fill="#DDD7E9" />
	<path d="M29.9948 57.1667V60.5C29.9948 63.1522 31.0484 65.6957 32.9237 67.5711C34.7991 69.4464 37.3426 70.5 39.9948 70.5C42.647 70.5 45.1905 69.4464 47.0659 67.5711C48.9412 65.6957 49.9948 63.1522 49.9948 60.5V57.1667M33.3281 17.1667C33.3281 15.3986 34.0305 13.7029 35.2807 12.4526C36.531 11.2024 38.2267 10.5 39.9948 10.5C41.7629 10.5 43.4586 11.2024 44.7088 12.4526C45.9591 13.7029 46.6615 15.3986 46.6615 17.1667C50.4895 18.9768 53.7528 21.7944 56.1016 25.3177C58.4505 28.8409 59.7963 32.9369 59.9948 37.1667V47.1667C60.2456 49.239 60.9796 51.2235 62.1375 52.9604C63.2954 54.6973 64.845 56.1381 66.6615 57.1667H13.3281C15.1446 56.1381 16.6942 54.6973 17.8521 52.9604C19.01 51.2235 19.7439 49.239 19.9948 47.1667V37.1667C20.1933 32.9369 21.5391 28.8409 23.888 25.3177C26.2368 21.7944 29.5001 18.9768 33.3281 17.1667Z" stroke="#573792" stroke-width="5" stroke-linecap="round" stroke-linejoin="round" />
</svg>
