<svg width="80" height="80" viewBox="0 0 80 80" fill="none" xmlns="http://www.w3.org/2000/svg">
<path d="M36.7386 26.3367L38.4411 25.6813L38.4413 23.3186L36.7394 22.6635C36.3457 22.512 36.052 22.176 35.9543 21.7656C35.6658 20.5532 35.1874 19.3993 34.5324 18.3357C34.311 17.9764 34.2811 17.5311 34.4524 17.1455L35.1932 15.4774L33.5224 13.8068L31.8537 14.5481C31.4679 14.7191 31.0228 14.6896 30.6635 14.4681C29.5999 13.8132 28.4462 13.3348 27.2344 13.0463C26.824 12.9488 26.4881 12.655 26.3367 12.2614L25.6814 10.5589H23.3187L22.6633 12.2614C22.5119 12.6551 22.176 12.9488 21.7656 13.0463C20.5538 13.3348 19.4001 13.8132 18.3366 14.4681C17.9773 14.6895 17.5319 14.7194 17.1463 14.5481L15.4776 13.8068L13.807 15.4774L14.5481 17.1462C14.7192 17.5318 14.6893 17.977 14.4681 18.3364C13.813 19.3999 13.3347 20.5537 13.0463 21.7656C12.9486 22.1759 12.6548 22.5119 12.2612 22.6633L10.5589 23.3187V25.6813L12.2607 26.3363C12.6545 26.4878 12.9481 26.8238 13.0458 27.234C13.3345 28.4466 13.8129 29.6007 14.4678 30.6641C14.689 31.0235 14.7189 31.4687 14.5476 31.8543L13.8068 33.5224L15.4776 35.193L17.1463 34.4518C17.5319 34.2808 17.977 34.3102 18.3366 34.5316C19.4006 35.1868 20.5543 35.6652 21.7655 35.9532C22.1759 36.0509 22.5119 36.3445 22.6633 36.7383L23.3187 38.4409H25.6813L26.3363 36.7389C26.488 36.3452 26.8238 36.0514 27.2344 35.9538C28.4465 35.6656 29.6004 35.1873 30.6641 34.532C31.0235 34.3107 31.4685 34.2808 31.8545 34.4521L33.5226 35.193L35.1932 33.5224L34.4521 31.8535C34.2809 31.4679 34.3107 31.0228 34.5319 30.6634C35.187 29.5994 35.6653 28.4457 35.9535 27.2345C36.0512 26.8241 36.345 26.4881 36.7386 26.3367Z" fill="#FAD7EE"/>
<path d="M38.7386 60.3367L40.4411 59.6813L40.4413 57.3186L38.7394 56.6635C38.3457 56.512 38.052 56.176 37.9543 55.7656C37.6658 54.5532 37.1874 53.3993 36.5324 52.3357C36.311 51.9764 36.2811 51.5311 36.4524 51.1455L37.1932 49.4774L35.5224 47.8068L33.8537 48.5481C33.4679 48.7191 33.0228 48.6896 32.6635 48.4681C31.5999 47.8132 30.4462 47.3348 29.2344 47.0463C28.824 46.9488 28.4881 46.655 28.3367 46.2614L27.6814 44.5589H25.3187L24.6633 46.2614C24.5119 46.6551 24.176 46.9488 23.7656 47.0463C22.5538 47.3348 21.4001 47.8132 20.3366 48.4681C19.9773 48.6895 19.5319 48.7194 19.1463 48.5481L17.4776 47.8068L15.807 49.4774L16.5481 51.1462C16.7192 51.5318 16.6893 51.977 16.4681 52.3364C15.813 53.3999 15.3347 54.5537 15.0463 55.7656C14.9486 56.1759 14.6548 56.5119 14.2612 56.6633L12.5589 57.3187V59.6813L14.2607 60.3363C14.6545 60.4878 14.9481 60.8238 15.0458 61.234C15.3345 62.4466 15.8129 63.6007 16.4678 64.6641C16.689 65.0235 16.7189 65.4687 16.5476 65.8543L15.8068 67.5224L17.4776 69.193L19.1463 68.4518C19.5319 68.2808 19.977 68.3102 20.3366 68.5316C21.4006 69.1868 22.5543 69.6652 23.7655 69.9532C24.1759 70.0509 24.5119 70.3445 24.6633 70.7383L25.3187 72.4409H27.6813L28.3363 70.7389C28.488 70.3452 28.8238 70.0514 29.2344 69.9538C30.4465 69.6656 31.6004 69.1873 32.6641 68.532C33.0235 68.3107 33.4685 68.2808 33.8545 68.4521L35.5226 69.193L37.1932 67.5224L36.4521 65.8535C36.2809 65.4679 36.3107 65.0228 36.5319 64.6634C37.187 63.5994 37.6653 62.4457 37.9535 61.2345C38.0512 60.8241 38.345 60.4881 38.7386 60.3367Z" fill="#FAD7EE"/>
<path d="M71.2221 50.5593L73.1309 49.8244L73.1311 47.1754L71.223 46.4409C70.7815 46.2711 70.4523 45.8943 70.3427 45.4342C70.0192 44.0748 69.4829 42.781 68.7484 41.5886C68.5002 41.1856 68.4667 40.6864 68.6587 40.2541L69.4893 38.3838L67.616 36.5107L65.745 37.3418C65.3125 37.5335 64.8135 37.5005 64.4105 37.2521C63.2181 36.5178 61.9245 35.9815 60.5658 35.658C60.1057 35.5486 59.7291 35.2192 59.5593 34.7779L58.8246 32.8691H56.1756L55.4407 34.7779C55.2709 35.2194 54.8943 35.5486 54.4342 35.658C53.0755 35.9815 51.7819 36.5178 50.5895 37.2521C50.1867 37.5003 49.6873 37.5338 49.255 37.3418L47.384 36.5107L45.5108 38.3838L46.3418 40.2548C46.5337 40.6871 46.5001 41.1864 46.2521 41.5893C45.5176 42.7817 44.9813 44.0753 44.658 45.4342C44.5484 45.8942 44.219 46.2709 43.7777 46.4407L41.8691 47.1756V49.8244L43.7772 50.5589C44.2187 50.7287 44.5479 51.1055 44.6575 51.5654C44.9811 52.925 45.5175 54.219 46.2518 55.4112C46.4998 55.8142 46.5333 56.3134 46.3413 56.7457L45.5107 58.616L47.384 60.4892L49.255 59.658C49.6873 59.4663 50.1864 59.4993 50.5895 59.7475C51.7825 60.4822 53.0761 61.0185 54.434 61.3415C54.8942 61.451 55.2709 61.7802 55.4407 62.2217L56.1756 64.1307H58.8244L59.5589 62.2224C59.7289 61.781 60.1055 61.4516 60.5658 61.3422C61.9248 61.019 63.2186 60.4827 64.4113 59.748C64.8142 59.4999 65.3132 59.4663 65.7459 59.6584L67.6162 60.4892L69.4893 58.616L68.6584 56.7448C68.4665 56.3125 68.4999 55.8135 68.7479 55.4105C69.4824 54.2175 70.0187 52.9239 70.3418 51.566C70.4514 51.1058 70.7808 50.7291 71.2221 50.5593Z" fill="#FAD7EE"/>
<path d="M15.1719 24.5147C15.1719 19.363 19.363 15.1719 24.5145 15.1719C29.6663 15.1719 33.8573 19.363 33.8573 24.5147C33.8573 29.6664 29.6663 33.8575 24.5145 33.8575C19.363 33.8575 15.1719 29.6664 15.1719 24.5147Z" fill="white"/>
<path d="M19 58.5C19 54.3644 22.3645 51 26.4999 51C30.6355 51 34 54.3644 34 58.5C34 62.6356 30.6355 66 26.4999 66C22.3645 66 19 62.6356 19 58.5Z" fill="white"/>
<path d="M48 48.5C48 43.2616 52.2616 39 57.4999 39C62.7384 39 67 43.2616 67 48.5C67 53.7384 62.7384 58 57.4999 58C52.2616 58 48 53.7384 48 48.5Z" fill="white"/>
<path d="M40.6352 22.5027C40.6352 21.9855 40.3167 21.5219 39.8342 21.3361L37.967 20.6173C37.6797 19.6239 37.283 18.667 36.7825 17.7603L37.5952 15.9306C37.8052 15.4581 37.7023 14.9052 37.3367 14.5394L34.4906 11.6933C34.1252 11.3277 33.5722 11.2255 33.0994 11.4348L31.2689 12.248C30.3623 11.7477 29.4059 11.3511 28.413 11.0637L27.6939 9.19594C27.5083 8.71344 27.0445 8.395 26.5273 8.395H25.8159V5.65281C25.8159 4.9625 25.2563 4.40281 24.5659 4.40281H15.3091C14.7689 2.58219 13.0816 1.25 11.0881 1.25C8.66047 1.25 6.68531 3.22516 6.68531 5.65281C6.68531 8.08047 8.66047 10.0556 11.0881 10.0556C13.0816 10.0556 14.7689 8.72344 15.3091 6.90281H23.3161V8.395H22.5027C21.9856 8.395 21.5219 8.71344 21.3361 9.19594L20.617 11.0637C19.6239 11.3511 18.6677 11.7477 17.7609 12.248L15.9305 11.4348C15.458 11.2253 14.9048 11.3277 14.5392 11.6933L11.6933 14.5395C11.3277 14.9052 11.2248 15.4581 11.4348 15.9306L12.2477 17.7609C11.7473 18.6677 11.3508 19.6241 11.0634 20.6172L9.19578 21.3363C8.71328 21.5219 8.39484 21.9856 8.39484 22.5028V26.5277C8.39484 27.0448 8.71328 27.5084 9.19578 27.6942L11.063 28.413C11.3505 29.4064 11.747 30.3633 12.2473 31.27L11.4347 33.0997C11.2247 33.5722 11.3275 34.1252 11.6931 34.4909L14.5392 37.337C14.9048 37.7027 15.458 37.8052 15.9305 37.5955L17.7609 36.7823C18.6678 37.2828 19.6242 37.6792 20.6169 37.9664L21.3358 39.8344C21.5214 40.3169 21.9852 40.6353 22.5023 40.6353H26.5272C27.0444 40.6353 27.508 40.3169 27.6938 39.8344L28.4125 37.9672C29.4059 37.6798 30.3627 37.2833 31.2695 36.7828L33.0992 37.5955C33.572 37.8055 34.1248 37.7027 34.4905 37.337L37.3366 34.4909C37.7022 34.1252 37.805 33.5722 37.595 33.0997L36.782 31.2692C37.2825 30.3622 37.6789 29.4059 37.9661 28.4133L39.8341 27.6941C40.3166 27.5084 40.635 27.0447 40.635 26.5275L40.6352 22.5027ZM11.0881 7.55547C10.0389 7.55547 9.18531 6.70187 9.18531 5.65266C9.18531 4.60344 10.0389 3.75 11.0881 3.75C12.1373 3.75 12.9908 4.60359 12.9908 5.65281C12.9908 6.70203 12.1373 7.55547 11.0881 7.55547ZM38.1352 25.6692L36.4719 26.3095C36.0873 26.4575 35.8003 26.7858 35.7048 27.1867C35.4233 28.37 34.9559 29.4972 34.3159 30.5367C34.0998 30.8878 34.0708 31.3227 34.238 31.6994L34.962 33.3298L33.3298 34.962L31.7002 34.2381C31.3231 34.0708 30.8883 34.1 30.5372 34.3162C29.498 34.9564 28.3706 35.4238 27.1864 35.7053C26.7853 35.8006 26.4572 36.0877 26.3091 36.4723L25.6691 38.1352H23.3609L22.7206 36.4717C22.5727 36.087 22.2444 35.8002 21.8434 35.7047C20.6602 35.4233 19.533 34.9559 18.4934 34.3158C18.1422 34.0995 17.7073 34.0708 17.3306 34.2378L15.7003 34.962L14.068 33.3298L14.7917 31.7002C14.9591 31.3234 14.9298 30.8884 14.7137 30.5373C14.0739 29.4984 13.6066 28.3709 13.3245 27.1863C13.2291 26.7855 12.9422 26.4572 12.5575 26.3092L10.8948 25.6692V23.3611L12.558 22.7208C12.9425 22.5728 13.2295 22.2445 13.325 21.8438C13.6067 20.6597 14.0741 19.5325 14.7141 18.4934C14.9302 18.1423 14.9594 17.7073 14.7922 17.3306L14.0681 15.7003L15.7003 14.0681L17.3306 14.7923C17.7073 14.9597 18.1425 14.9305 18.4934 14.7142C19.5325 14.0744 20.6597 13.607 21.8436 13.3252C22.2445 13.2298 22.5727 12.943 22.7206 12.5583L23.3609 10.895H25.6692L26.3094 12.5583C26.4573 12.9428 26.7855 13.2298 27.1864 13.3252C28.3703 13.607 29.4975 14.0744 30.5366 14.7142C30.8877 14.9306 31.3225 14.9594 31.6994 14.7923L33.3297 14.0681L34.962 15.7003L34.2383 17.33C34.0709 17.7067 34.1002 18.1417 34.3164 18.4928C34.9564 19.5319 35.4238 20.6592 35.7056 21.8438C35.8011 22.2447 36.088 22.573 36.4727 22.7209L38.1353 23.3609L38.1352 25.6692ZM24.515 15.1723C19.3634 15.1723 15.1723 19.3634 15.1723 24.5152C15.1723 29.6669 19.3634 33.858 24.515 33.858C29.6667 33.858 33.8578 29.6669 33.8578 24.5152C33.8578 19.3634 29.6667 15.1723 24.515 15.1723ZM24.515 31.3578C20.7419 31.3578 17.6723 28.2881 17.6723 24.515C17.6723 20.7419 20.742 17.6722 24.515 17.6722C28.2881 17.6722 31.3578 20.7419 31.3578 24.515C31.3578 28.2881 28.2881 31.3578 24.515 31.3578ZM67.4959 48.2645C67.4959 42.8298 63.0744 38.4083 57.6397 38.4083C52.205 38.4083 47.7834 42.8298 47.7834 48.2645C47.7834 53.6992 52.2048 58.1206 57.6397 58.1206C63.0745 58.1206 67.4959 53.6992 67.4959 48.2645ZM57.6397 55.6206C53.5834 55.6206 50.2834 52.3208 50.2834 48.2645C50.2834 44.2083 53.5834 40.9083 57.6397 40.9083C61.6959 40.9083 64.9959 44.2083 64.9959 48.2645C64.9959 52.3208 61.6959 55.6206 57.6397 55.6206ZM39.4914 55.5486L37.9641 54.9606C37.7233 54.15 37.3992 53.3683 36.9955 52.6242L37.6602 51.1275C37.87 50.655 37.7673 50.1019 37.4016 49.7363L34.9513 47.2861C34.5856 46.9205 34.0327 46.8175 33.5602 47.0277L32.0628 47.6927C31.3189 47.2891 30.5372 46.965 29.7273 46.7244L29.1392 45.1966C28.9536 44.7141 28.4898 44.3956 27.9727 44.3956H24.5075C23.9905 44.3956 23.5267 44.7141 23.3409 45.1966L22.7528 46.7244C21.943 46.965 21.1613 47.2891 20.4173 47.6927L18.92 47.0277C18.4475 46.8175 17.8945 46.9205 17.5289 47.2861L15.0786 49.7364C14.713 50.1022 14.6102 50.6552 14.82 51.1277L15.485 52.6248C15.0814 53.3686 14.7572 54.1505 14.5166 54.9605L12.9889 55.5486C12.5062 55.7342 12.188 56.198 12.188 56.7152V57.1978H6.90281V46.0762C8.72328 45.5361 10.0555 43.8488 10.0555 41.8553C10.0555 39.4277 8.08047 37.4525 5.65281 37.4525C3.22516 37.4525 1.25 39.4275 1.25 41.8552C1.25 43.8486 2.58219 45.5359 4.40281 46.0761V58.4477C4.40281 59.138 4.9625 59.6977 5.65281 59.6977H12.188V60.1802C12.188 60.6973 12.5064 61.1609 12.9889 61.3467L14.5161 61.9347C14.7569 62.7452 15.0811 63.527 15.4847 64.2711L14.82 65.7677C14.61 66.2402 14.7128 66.7931 15.0784 67.1589L17.5287 69.6092C17.8944 69.9747 18.4473 70.0773 18.92 69.8677L20.4175 69.2025C21.1614 69.6062 21.943 69.9302 22.753 70.1708L23.3411 71.6986C23.5267 72.1811 23.9905 72.4995 24.5077 72.4995H27.9728C28.49 72.4995 28.9536 72.1811 29.1394 71.6986L29.7272 70.1712C30.5377 69.9306 31.3195 69.6066 32.0636 69.2028L33.5603 69.8677C34.033 70.0778 34.5859 69.9748 34.9516 69.6092L37.4019 67.1589C37.7675 66.7931 37.8703 66.2402 37.6603 65.7677L36.9953 64.2702C37.3989 63.5262 37.7231 62.7447 37.9636 61.9348L39.4914 61.3467C39.9739 61.1611 40.2923 60.6973 40.2923 60.1802V56.715C40.2923 56.198 39.9739 55.7342 39.4914 55.5486ZM3.75 41.8552C3.75 40.8059 4.60359 39.9523 5.65281 39.9523C6.70203 39.9523 7.55547 40.8059 7.55547 41.8552C7.55547 42.9044 6.70203 43.758 5.65281 43.758C4.60359 43.758 3.75 42.9044 3.75 41.8552ZM37.7923 59.3219L36.4719 59.8302C36.0872 59.9781 35.8003 60.3064 35.7048 60.7072C35.4667 61.7083 35.0714 62.6616 34.5302 63.5406C34.3141 63.8916 34.2848 64.3266 34.4522 64.7033L35.0272 65.998L33.7908 67.2344L32.4969 66.6595C32.1198 66.4922 31.6848 66.5214 31.3339 66.7377C30.4552 67.2789 29.5017 67.6741 28.5 67.9127C28.0991 68.008 27.7708 68.2948 27.6228 68.6795L27.1147 69.9995H25.3661L24.8578 68.6791C24.7098 68.2944 24.3817 68.0075 23.9806 67.9122C22.9797 67.6739 22.0264 67.2786 21.1473 66.7373C20.7963 66.5212 20.3614 66.4922 19.9847 66.6594L18.69 67.2344L17.4534 65.998L18.0281 64.7041C18.1955 64.3273 18.1662 63.8923 17.95 63.5413C17.4089 62.6627 17.0136 61.7089 16.7752 60.707C16.6797 60.3063 16.3928 59.978 16.0081 59.83L14.6881 59.3219V57.5734L16.0084 57.0652C16.3931 56.9172 16.68 56.5889 16.7755 56.1881C17.0138 55.1867 17.4091 54.2333 17.9503 53.3545C18.1664 53.0034 18.1956 52.5684 18.0283 52.1917L17.4534 50.8973L18.69 49.6609L19.9847 50.2358C20.3612 50.4031 20.7963 50.3738 21.1473 50.1578C22.0264 49.6166 22.9797 49.2214 23.9806 48.983C24.3816 48.8877 24.7097 48.6008 24.8578 48.2161L25.3661 46.8956H27.1147L27.623 48.2161C27.7709 48.6006 28.0991 48.8877 28.5002 48.983C29.5011 49.2212 30.4544 49.6166 31.3334 50.1578C31.6845 50.3739 32.1194 50.4033 32.4961 50.2358L33.7908 49.6608L35.0273 50.8973L34.4527 52.1912C34.2853 52.568 34.3145 53.0031 34.5308 53.3541C35.072 54.2328 35.4673 55.1862 35.7056 56.188C35.8009 56.5889 36.088 56.9172 36.4727 57.0652L37.7928 57.5733L37.7923 59.3219ZM26.2402 50.2303C21.7091 50.2303 18.0228 53.9167 18.0228 58.4478C18.0228 62.9788 21.7091 66.665 26.2402 66.665C30.7712 66.665 34.4575 62.9788 34.4575 58.4478C34.4575 53.9166 30.7712 50.2303 26.2402 50.2303ZM26.2402 64.1648C23.0875 64.1648 20.5228 61.6002 20.5228 58.4477C20.5228 55.295 23.0877 52.7302 26.2402 52.7302C29.3927 52.7302 31.9575 55.295 31.9575 58.4477C31.9575 61.6002 29.3927 64.1648 26.2402 64.1648ZM74.3472 69.9445C72.3537 69.9445 70.6664 71.2767 70.1263 73.0973H58.8895V65.328H59.7797C60.2969 65.328 60.7605 65.0095 60.9463 64.527L61.7247 62.5045C62.802 62.1959 63.8384 61.7663 64.8191 61.2217L66.8009 62.102C67.2734 62.312 67.8264 62.2092 68.1922 61.8436L71.2188 58.817C71.5844 58.4512 71.6872 57.8983 71.4772 57.4258L70.5967 55.4431C71.1413 54.4623 71.5708 53.4264 71.8792 52.35L73.9023 51.5714C74.3848 51.3858 74.7033 50.922 74.7033 50.4048V46.1245C74.7033 45.6073 74.3848 45.1437 73.9023 44.958L71.8798 44.1795C71.5714 43.1025 71.1419 42.0663 70.5972 41.0853L71.4775 39.1033C71.6873 38.6308 71.5847 38.0777 71.2189 37.712L68.1922 34.6856C67.8266 34.32 67.2734 34.2175 66.8009 34.4272L64.8183 35.3078C63.8377 34.7633 62.8017 34.3337 61.7252 34.0253L60.9464 32.0022C60.7608 31.5197 60.297 31.2013 59.7798 31.2013H58.8898V23.8086H70.1264C70.6666 25.6292 72.3538 26.9616 74.3473 26.9616C76.775 26.9616 78.7502 24.9864 78.7502 22.5588C78.7502 20.1311 76.775 18.1559 74.3473 18.1559C72.3539 18.1559 70.6667 19.4881 70.1266 21.3086H57.6398C56.9495 21.3086 56.3898 21.8683 56.3898 22.5586V31.2013H55.4997C54.9825 31.2013 54.5189 31.5197 54.3331 32.0022L53.5544 34.0253C52.4777 34.3339 51.4417 34.7633 50.4613 35.3078L48.4786 34.4272C48.0061 34.2172 47.4531 34.32 47.0873 34.6856L44.0608 37.7122C43.6952 38.078 43.5923 38.6309 43.8023 39.1034L44.6828 41.0859C44.1383 42.0666 43.7087 43.1027 43.4003 44.1794L41.3773 44.958C40.8947 45.1436 40.5764 45.6073 40.5764 46.1245V50.4048C40.5764 50.922 40.8948 51.3856 41.3773 51.5714L43.3998 52.3498C43.7084 53.4272 44.138 54.4633 44.6825 55.4442L43.8023 57.4261C43.5923 57.8986 43.6952 58.4516 44.0608 58.8173L47.0873 61.8438C47.4531 62.2092 48.0058 62.3122 48.4786 62.1022L50.4614 61.2216C51.4422 61.7661 52.4781 62.1956 53.5545 62.5041L54.3333 64.5272C54.5189 65.0097 54.9827 65.3281 55.4998 65.3281H56.39V74.3475C56.39 75.0378 56.9497 75.5975 57.64 75.5975H70.1267C70.6664 77.4178 72.3537 78.75 74.3472 78.75C76.7748 78.75 78.75 76.7748 78.75 74.3472C78.75 71.9195 76.7748 69.9445 74.3472 69.9445ZM74.3472 20.6555C75.3964 20.6555 76.25 21.5091 76.25 22.5583C76.25 23.6075 75.3964 24.4611 74.3472 24.4611C73.298 24.4611 72.4445 23.6075 72.4445 22.5583C72.4445 21.5091 73.298 20.6555 74.3472 20.6555ZM55.6575 61.0083C55.5095 60.6237 55.1814 60.3367 54.7805 60.2414C53.5136 59.9397 52.307 59.4395 51.1945 58.7545C50.8436 58.5386 50.4088 58.5094 50.0319 58.6766L48.2481 59.4686L46.4353 57.6559L47.227 55.8731C47.3944 55.4964 47.3652 55.0614 47.1491 54.7103C46.4642 53.5983 45.9639 52.3914 45.662 51.1234C45.5666 50.7225 45.2797 50.3944 44.895 50.2464L43.0761 49.5462V46.9827L44.8955 46.2823C45.2802 46.1344 45.567 45.8061 45.6625 45.4053C45.9641 44.138 46.4642 42.9314 47.1492 41.8194C47.3655 41.4683 47.3947 41.0333 47.2273 40.6566L46.4353 38.8731L48.2481 37.0603L50.0317 37.8523C50.4086 38.0197 50.8436 37.9906 51.1945 37.7742C52.3066 37.0894 53.513 36.5892 54.7803 36.2875C55.1812 36.1922 55.5094 35.9052 55.6573 35.5206L56.3578 33.7009H58.9216L59.6219 35.5206C59.7698 35.9052 60.098 36.1922 60.4989 36.2875C61.7661 36.5892 62.9727 37.0894 64.0848 37.7744C64.4359 37.9906 64.8709 38.0198 65.2477 37.8523L67.0312 37.0602L68.8441 38.873L68.0522 40.6558C67.8848 41.0325 67.9141 41.4677 68.1303 41.8186C68.8153 42.9309 69.3156 44.1377 69.6172 45.4052C69.7125 45.8061 69.9995 46.1344 70.3842 46.2823L72.2031 46.9825V49.5461L70.3836 50.2464C69.9989 50.3944 69.712 50.7227 69.6166 51.1236C69.3152 52.3903 68.815 53.5969 68.1298 54.7094C67.9137 55.0603 67.8845 55.4953 68.0519 55.872L68.8439 57.6556L67.0312 59.4688L65.2484 58.677C64.8716 58.5095 64.4366 58.5391 64.0855 58.7552C62.9738 59.44 61.767 59.9403 60.4987 60.2422C60.0978 60.3375 59.7695 60.6245 59.6216 61.0091L58.9214 62.8281H56.3578L55.6575 61.0083ZM74.3472 76.25C73.298 76.25 72.4445 75.3964 72.4445 74.3472C72.4445 73.298 73.298 72.4444 74.3472 72.4444C75.3964 72.4444 76.25 73.298 76.25 74.3472C76.25 75.3964 75.3964 76.25 74.3472 76.25Z" fill="#E439AC"/>
</svg>
