<svg width="33" height="32" viewBox="0 0 33 32" fill="none" xmlns="http://www.w3.org/2000/svg">
<path d="M8.88226 8.23025C6.82155 10.2953 5.6656 13.0944 5.66869 16.0118C5.67179 18.9291 6.83368 21.7258 8.89876 23.7864C10.9638 25.8471 13.763 27.0031 16.6803 27C19.5977 26.9969 22.3944 25.835 24.4551 23.77M26.501 20.9712C26.9101 20.1695 27.2196 19.3207 27.4225 18.4438C27.4225 18.1197 27.2938 17.8088 27.0646 17.5796C26.8354 17.3504 26.5245 17.2216 26.2003 17.2216H22.7783M17.8896 17.2216C17.2413 17.2216 16.6196 16.9641 16.1612 16.5057C15.7028 16.0473 15.4453 15.4256 15.4453 14.7773M15.4453 9.88872V6.22225C15.4301 6.07746 15.3863 5.93712 15.3165 5.80937C15.2467 5.68162 15.1522 5.56901 15.0385 5.47806C14.9248 5.38711 14.7942 5.31964 14.6542 5.27955C14.5143 5.23946 14.3677 5.22756 14.2231 5.24453C13.351 5.44623 12.5068 5.75363 11.7091 6.15992" fill="#FBD1D4"/>
<path d="M20.334 5.6112C21.8858 6.1576 23.2952 7.04515 24.4586 8.20847C25.6219 9.37179 26.5095 10.7813 27.0559 12.333H21.5561C21.232 12.333 20.9211 12.2043 20.6919 11.9751C20.4627 11.7459 20.334 11.435 20.334 11.1109V5.6112Z" fill="#FBD1D4"/>
<path d="M5.66797 5L27.6669 26.9988L5.66797 5Z" fill="#FBD1D4"/>
<path d="M8.88226 8.23025C6.82155 10.2953 5.6656 13.0944 5.66869 16.0118C5.67179 18.9291 6.83368 21.7258 8.89876 23.7864C10.9638 25.8471 13.763 27.0031 16.6803 27C19.5977 26.9969 22.3944 25.835 24.4551 23.77M26.501 20.9712C26.9101 20.1695 27.2196 19.3207 27.4225 18.4438C27.4225 18.1197 27.2938 17.8088 27.0645 17.5796C26.8353 17.3504 26.5245 17.2216 26.2003 17.2216H22.7783M17.8896 17.2216C17.2413 17.2216 16.6196 16.9641 16.1612 16.5057C15.7028 16.0473 15.4453 15.4256 15.4453 14.7773M15.4453 9.88872V6.22225C15.4301 6.07746 15.3863 5.93712 15.3165 5.80937C15.2467 5.68162 15.1522 5.56901 15.0385 5.47806C14.9248 5.38711 14.7942 5.31964 14.6542 5.27955C14.5143 5.23946 14.3677 5.22756 14.2231 5.24453C13.351 5.44623 12.5068 5.75363 11.7091 6.15992M5.66797 5L27.6669 26.9988M20.334 5.6112C21.8858 6.1576 23.2952 7.04515 24.4586 8.20847C25.6219 9.37179 26.5095 10.7813 27.0559 12.333H21.5561C21.232 12.333 20.9211 12.2043 20.6919 11.9751C20.4627 11.7459 20.334 11.435 20.334 11.1109V5.6112Z" stroke="#EB1726" stroke-width="1.83324" stroke-linecap="round" stroke-linejoin="round"/>
</svg>
