<svg width="32" height="32" viewBox="0 0 32 32" fill="none" xmlns="http://www.w3.org/2000/svg">
<rect opacity="0.2" x="6.5625" y="18.584" width="18.2061" height="11.3788" rx="5.68941" fill="#573792"/>
<path fill-rule="evenodd" clip-rule="evenodd" d="M19.459 19.584C22.0489 19.584 24.1484 21.6835 24.1484 24.2734C24.1484 26.8633 22.0489 28.9628 19.459 28.9628H11.8731C9.28325 28.9628 7.18373 26.8633 7.18373 24.2734C7.18373 21.6835 9.28325 19.584 11.8731 19.584H19.459ZM26.1484 24.2734C26.1484 20.5789 23.1535 17.584 19.459 17.584H11.8731C8.17868 17.584 5.18373 20.5789 5.18373 24.2734C5.18373 27.9679 8.17868 30.9628 11.8731 30.9628H19.459C23.1535 30.9628 26.1484 27.9679 26.1484 24.2734ZM11.8731 23.3769C12.3682 23.3769 12.7696 23.7783 12.7696 24.2734C12.7696 24.7685 12.3682 25.1699 11.8731 25.1699C11.378 25.1699 10.9767 24.7685 10.9767 24.2734C10.9767 23.7783 11.378 23.3769 11.8731 23.3769ZM14.7696 24.2734C14.7696 22.6737 13.4728 21.3769 11.8731 21.3769C10.2735 21.3769 8.97667 22.6737 8.97667 24.2734C8.97667 25.8731 10.2735 27.1699 11.8731 27.1699C13.4728 27.1699 14.7696 25.8731 14.7696 24.2734Z" fill="#573792"/>
<rect opacity="0.2" x="24.7695" y="13.3789" width="18.2061" height="11.3788" rx="5.68941" transform="rotate(-180 24.7695 13.3789)" fill="#573792"/>
<path fill-rule="evenodd" clip-rule="evenodd" d="M11.873 12.3789C9.28312 12.3789 7.18359 10.2794 7.18359 7.6895C7.18359 5.0996 9.28312 3.00008 11.873 3.00008L19.4589 3.00009C22.0488 3.00009 24.1483 5.09961 24.1483 7.6895C24.1483 10.2794 22.0488 12.3789 19.4589 12.3789L11.873 12.3789ZM5.18359 7.6895C5.18359 11.384 8.17855 14.3789 11.873 14.3789L19.4589 14.3789C23.1533 14.3789 26.1483 11.384 26.1483 7.6895C26.1483 3.99504 23.1534 1.00009 19.4589 1.00009L11.873 1.00008C8.17855 1.00008 5.18359 3.99503 5.18359 7.6895ZM19.4589 8.58597C18.9638 8.58597 18.5624 8.1846 18.5624 7.6895C18.5624 7.19439 18.9638 6.79303 19.4589 6.79303C19.954 6.79303 20.3554 7.19439 20.3554 7.6895C20.3554 8.1846 19.954 8.58597 19.4589 8.58597ZM16.5624 7.6895C16.5624 9.28917 17.8592 10.586 19.4589 10.586C21.0586 10.586 22.3554 9.28917 22.3554 7.6895C22.3554 6.08982 21.0586 4.79303 19.4589 4.79303C17.8592 4.79303 16.5624 6.08982 16.5624 7.6895Z" fill="#573792"/>
</svg>
