<svg width="32" height="32" viewBox="0 0 32 32" fill="none" xmlns="http://www.w3.org/2000/svg">
<path d="M4 9.33333C4 10.7478 4.5619 12.1044 5.5621 13.1046C6.56229 14.1048 7.91885 14.6667 9.33333 14.6667C10.7478 14.6667 12.1044 14.1048 13.1046 13.1046C14.1048 12.1044 14.6667 10.7478 14.6667 9.33333C14.6667 7.91885 14.1048 6.56229 13.1046 5.5621C12.1044 4.5619 10.7478 4 9.33333 4C7.91885 4 6.56229 4.5619 5.5621 5.5621C4.5619 6.56229 4 7.91885 4 9.33333Z" fill="#FEEBDC"/>
<path d="M9.33333 4L9.33359 9.33333H14.6667" fill="#FEEBDC"/>
<path d="M12 22.6668V28.0001V22.6668Z" fill="#FEEBDC"/>
<path d="M22.6664 18.6668V28.0001V18.6668Z" fill="#FEEBDC"/>
<path d="M17.3336 17.3332V27.9999V17.3332Z" fill="#FEEBDC"/>
<path d="M28 16V28V16Z" fill="#FEEBDC"/>
<path d="M14.6667 9.33333C14.6667 10.7478 14.1048 12.1044 13.1046 13.1046C12.1044 14.1048 10.7478 14.6667 9.33333 14.6667C7.91885 14.6667 6.56229 14.1048 5.5621 13.1046C4.5619 12.1044 4 10.7478 4 9.33333C4 7.91885 4.5619 6.56229 5.5621 5.5621C6.56229 4.5619 7.91885 4 9.33333 4M14.6667 9.33333C14.6667 7.91885 14.1048 6.56229 13.1046 5.5621C12.1044 4.5619 10.7478 4 9.33333 4M14.6667 9.33333H9.33359L9.33333 4M12 22.6668V28.0001M22.6664 18.6668V28.0001M17.3336 17.3332V27.9999M28 16V28" stroke="#FA9B4E" stroke-width="2" stroke-linecap="round" stroke-linejoin="round"/>
</svg>
