<svg width="24" height="24" viewBox="0 0 24 24" fill="none" xmlns="http://www.w3.org/2000/svg">
<rect width="24" height="24" rx="12" fill="#F9F8FB"/>
<path d="M15.8849 14.6005L15.1704 13.8852C15.0408 13.7554 14.8307 13.7554 14.7012 13.8852L13.9867 14.6005C13.8571 14.7302 13.8571 14.9406 13.9867 15.0703L14.7012 15.7856C14.8307 15.9154 15.0408 15.9154 15.1704 15.7856L15.8849 15.0703C16.0145 14.9406 16.0145 14.7302 15.8849 14.6005Z" fill="#DE0B99"/>
<path d="M12.0069 13.8855L11.2924 14.6008C11.1628 14.7305 11.1628 14.9409 11.2924 15.0706L12.0069 15.7859C12.1364 15.9156 12.3465 15.9156 12.4761 15.7859L13.1906 15.0706C13.3202 14.9409 13.3202 14.7305 13.1906 14.6008L12.4761 13.8855C12.3465 13.7557 12.1364 13.7557 12.0069 13.8855Z" fill="#5D3597"/>
<path d="M17.3999 6.29257H17.3938C17.265 5.85516 15.0251 5.40002 12.2809 5.40002C9.53666 5.40002 7.29625 5.85516 7.16795 6.29257H7.16186L7.16407 6.30974C7.16297 6.31749 7.16186 6.32469 7.16186 6.33244C7.16186 6.35016 7.16573 6.36788 7.17292 6.38559L7.30455 7.48246C7.30455 7.48246 7.30455 7.48467 7.30344 7.48523C6.93401 7.75266 6.42575 8.13914 5.93686 8.57212C4.61672 9.73986 4.15382 10.6075 4.52215 11.2237C4.74724 11.6003 5.17475 11.7885 5.81408 11.7885C6.32842 11.7885 6.98101 11.6661 7.77464 11.422C7.7763 11.4214 7.77851 11.4225 7.77851 11.4247L7.82663 11.824C7.83271 11.8766 7.85649 11.9253 7.8941 11.9629C7.8941 11.9629 8.80774 12.866 8.86802 12.9413C8.9283 13.0166 8.94656 13.0387 8.99965 13.1163C9.05661 13.1999 9.07708 13.2569 9.07708 13.2569C9.118 13.3311 9.11634 13.4214 9.07265 13.4939C9.07265 13.4939 9.02564 13.5841 8.99633 13.6279C8.96702 13.6716 8.91503 13.7286 8.86968 13.7741L7.98314 14.6694C7.89078 14.7618 7.89078 14.9119 7.98314 15.0044L8.85696 15.8792C8.91393 15.9434 8.95983 16.0082 9.00241 16.0802L9.08261 16.2385C9.12021 16.3122 9.11689 16.4002 9.07431 16.4711L8.99522 16.6023C8.95872 16.6577 8.91835 16.7003 8.87189 16.7524L8.284 17.347C8.19164 17.4395 8.19164 17.5895 8.284 17.682L9.13072 18.5297C9.22419 18.6233 9.37628 18.6233 9.46974 18.5297L10.3165 17.682C10.4088 17.5895 10.4088 17.4395 10.3165 17.347L9.72857 16.7529C9.68598 16.7064 9.64119 16.6555 9.60524 16.6023L9.52615 16.4711C9.48357 16.4002 9.48025 16.3122 9.51786 16.2385L9.59805 16.0807C9.64285 16.0032 9.68543 15.9462 9.7435 15.8797L10.6173 15.0044C10.7097 14.9119 10.7097 14.7618 10.6173 14.6694L9.72801 13.7741C9.68266 13.7286 9.65059 13.6993 9.60137 13.6229C9.5538 13.5498 9.5256 13.49 9.5256 13.49C9.48301 13.4191 9.48025 13.3317 9.51841 13.2586C9.51841 13.2586 9.55491 13.1672 9.5986 13.1041C9.65225 13.0266 9.68377 12.9668 9.74074 12.9097L10.6151 12.0344C10.7091 11.9402 10.8612 11.9408 10.9547 12.0344L12.1117 13.1954C12.204 13.2879 12.3539 13.2879 12.4463 13.1954L13.5927 12.0482C13.6867 11.9546 13.8383 11.9546 13.9323 12.0482L15.0777 13.1954C15.17 13.2879 15.3199 13.2879 15.4123 13.1954L16.5621 12.0388C16.6555 11.9452 16.655 11.7929 16.5621 11.6994L15.4078 10.5438C15.3144 10.4502 15.3144 10.298 15.4078 10.2044L17.0775 8.53281C17.1157 8.49461 17.1394 8.44533 17.1461 8.39162L17.3872 6.38393C17.3944 6.36622 17.3983 6.3485 17.3983 6.33078C17.3983 6.32303 17.3977 6.31583 17.3961 6.30808L17.3983 6.29091L17.3999 6.29257ZM12.397 8.84952C11.8108 9.17398 9.61187 10.35 7.60928 10.8943C5.68135 11.4879 5.14323 11.1855 4.99667 10.9397C4.92367 10.8173 4.802 10.3157 6.29966 8.98961C6.66799 8.66348 7.05402 8.36061 7.377 8.11865C7.37866 8.11699 7.38142 8.11865 7.38198 8.12086L7.64467 10.3046C7.64467 10.3046 7.64689 10.3079 7.64855 10.3074C7.9848 10.2099 8.34428 10.0909 8.72423 9.94915C10.2401 9.38439 11.62 8.64909 12.1432 8.35895C12.2837 8.28088 12.4628 8.33846 12.5298 8.48851C12.5895 8.62195 12.5259 8.7792 12.3981 8.84952H12.397ZM12.2809 6.97971C8.71427 6.97971 7.88359 6.62091 7.94 6.44373C7.98867 6.29036 9.88342 5.99524 12.2809 5.99524C14.6784 5.99524 16.582 6.28759 16.6218 6.44373C16.6627 6.60375 15.8475 6.97971 12.2809 6.97971Z" fill="#5D3597"/>
</svg>
